<?xml version="1.0" encoding="utf-8"?>
<!-- Generator: Adobe Illustrator 19.0.0, SVG Export Plug-In . SVG Version: 6.00 Build 0)  -->
<svg version="1.1" id="Layer_1" xmlns="http://www.w3.org/2000/svg" xmlns:xlink="http://www.w3.org/1999/xlink" x="0px" y="0px"
	 viewBox="0 0 504 288" style="enable-background:new 0 0 504 288;" xml:space="preserve">
<style type="text/css">
	.st0{clip-path:url(#SVGID_1_);}
	.st1{fill:url(#SVGID_2_);}
	.st2{fill:url(#SVGID_3_);}
	.st3{fill:url(#SVGID_4_);}
	.st4{fill:url(#SVGID_5_);}
	.st5{fill:#FFFFFF;}
	.st6{fill:#E94100;}
	.st7{clip-path:url(#SVGID_1_);fill:#FFFFFF;}
</style>
<g>
	<g>
		<defs>
			<rect id="SVGID_318_" x="0" width="504" height="288"/>
		</defs>
		<use xlink:href="#SVGID_318_"  style="overflow:visible;fill:#00113F;"/>
		<clipPath id="SVGID_1_">
			<use xlink:href="#SVGID_318_"  style="overflow:visible;"/>
		</clipPath>
		<g class="st0">
			<linearGradient id="SVGID_2_" gradientUnits="userSpaceOnUse" x1="138.7531" y1="126.353" x2="121.8489" y2="-47.1973">
				<stop  offset="0" style="stop-color:#00113F"/>
				<stop  offset="1" style="stop-color:#000000"/>
			</linearGradient>
			<path class="st1" d="M68.2,66.4C91.4,75,113,88.3,137.1,94c19.2,4.5,39.5,4,58.4-1.6C233,81.3,262,51.9,289.1,23.6
				C300.2,12,312.2-2.2,309.3-18c-1.8-9.8-9.3-17.9-18.1-22.7c-8.8-4.8-18.7-6.9-28.5-8.8c-74.4-14.7-151.4-24.4-225.8-9.6
				c-17.2,3.4-34.3,8.2-49.7,16.6C-28.2-34-41.8-21.7-49.6-6c-7.7,15.8-8.9,35.1-1,50.8c8.8,17.4,30.4,29.7,49.3,21.8
				C22,56.8,44.5,57.6,68.2,66.4z"/>
			
				<linearGradient id="SVGID_3_" gradientUnits="userSpaceOnUse" x1="203.994" y1="165.0372" x2="187.0895" y2="-8.5161" gradientTransform="matrix(0.9553 -0.2956 0.2956 0.9553 -99.6551 -27.9275)">
				<stop  offset="0" style="stop-color:#00113F"/>
				<stop  offset="1" style="stop-color:#000000"/>
			</linearGradient>
			<path class="st2" d="M58.9,33c24.7,1.3,49.3,7.7,74,6c19.6-1.3,38.9-7.9,55.3-18.8c32.6-21.7,51.6-58.4,69.2-93.4
				c7.2-14.3,14.4-31.4,7-45.7c-4.6-8.9-14.2-14.3-24-16.3c-9.8-2-19.9-1.1-29.9,0c-75.4,8-151.9,21.5-218.6,57.6
				c-15.4,8.4-30.4,18-42.6,30.6C-62.9-34.4-72.3-18.6-75-1.3C-77.7,16-73.1,34.9-61,47.5c13.6,14,37.9,19.4,53.5,6.3
				C12,37.5,33.6,31.6,58.9,33z"/>
		</g>
		<g class="st0">
			
				<linearGradient id="SVGID_4_" gradientUnits="userSpaceOnUse" x1="50.0863" y1="891.0197" x2="33.1821" y2="717.4694" gradientTransform="matrix(-1 0 0 -1 403.1267 1064.8893)">
				<stop  offset="0" style="stop-color:#00113F"/>
				<stop  offset="1" style="stop-color:#000000"/>
			</linearGradient>
			<path class="st3" d="M423.6,233.8c-23.2-8.6-44.8-21.9-68.9-27.6c-19.2-4.5-39.5-4-58.4,1.6c-37.6,11.1-66.5,40.5-93.7,68.8
				c-11.1,11.6-23.1,25.8-20.2,41.5c1.8,9.8,9.3,17.9,18.1,22.7c8.8,4.8,18.7,6.9,28.5,8.8c74.4,14.7,151.4,24.4,225.8,9.6
				c17.2-3.4,34.3-8.2,49.7-16.6c15.4-8.4,29-20.8,36.7-36.5c7.7-15.8,8.9-35.1,1-50.8c-8.8-17.4-30.4-29.7-49.3-21.8
				C469.7,243.4,447.3,242.6,423.6,233.8z"/>
			
				<linearGradient id="SVGID_5_" gradientUnits="userSpaceOnUse" x1="-106.7518" y1="869.3293" x2="-123.6563" y2="695.7761" gradientTransform="matrix(-0.9553 0.2956 -0.2956 -0.9553 502.7818 1092.8168)">
				<stop  offset="0" style="stop-color:#00113F"/>
				<stop  offset="1" style="stop-color:#000000"/>
			</linearGradient>
			<path class="st4" d="M432.9,267.2c-24.7-1.3-49.3-7.7-74-6c-19.6,1.3-38.9,7.9-55.3,18.8c-32.6,21.7-51.6,58.4-69.2,93.4
				c-7.2,14.3-14.4,31.4-7,45.7c4.6,8.9,14.2,14.3,24,16.3s19.9,1.1,29.9,0c75.4-8,151.9-21.5,218.6-57.6
				c15.4-8.4,30.4-18,42.6-30.6c12.2-12.6,21.6-28.4,24.3-45.7c2.7-17.3-1.9-36.2-14.1-48.8c-13.6-14-37.9-19.4-53.5-6.3
				C479.8,262.7,458.2,268.6,432.9,267.2z"/>
		</g>
		<g class="st0">
			<g>
				<g>
					<path class="st5" d="M9.3,258.7c-50.3,0-91.2-40.9-91.2-91.2s40.9-91.2,91.2-91.2c50.3,0,91.2,40.9,91.2,91.2
						S59.6,258.7,9.3,258.7z M9.3,77.4c-49.7,0-90.2,40.4-90.2,90.2s40.4,90.2,90.2,90.2c49.7,0,90.2-40.4,90.2-90.2
						S59.1,77.4,9.3,77.4z"/>
				</g>
				<g>
					<path class="st5" d="M9.3,228.5c-33.6,0-60.9-27.3-60.9-60.9s27.3-60.9,60.9-60.9c33.6,0,60.9,27.3,60.9,60.9
						S42.9,228.5,9.3,228.5z M9.3,107.6c-33.1,0-59.9,26.9-59.9,59.9s26.9,59.9,59.9,59.9c33.1,0,59.9-26.9,59.9-59.9
						S42.4,107.6,9.3,107.6z"/>
				</g>
				<g>
					<path class="st5" d="M9.3,198.3c-16.9,0-30.7-13.8-30.7-30.7s13.8-30.7,30.7-30.7c16.9,0,30.7,13.8,30.7,30.7
						S26.3,198.3,9.3,198.3z M9.3,137.8c-16.4,0-29.7,13.3-29.7,29.7s13.3,29.7,29.7,29.7c16.4,0,29.7-13.3,29.7-29.7
						S25.7,137.8,9.3,137.8z"/>
				</g>
			</g>
		</g>
		<g class="st0">
			<g>
				<g>
					<path class="st5" d="M504.4,140.9c-23.6,0-42.7-19.2-42.7-42.7s19.2-42.7,42.7-42.7c23.6,0,42.7,19.2,42.7,42.7
						S528,140.9,504.4,140.9z M504.4,56.5c-23,0-41.7,18.7-41.7,41.7s18.7,41.7,41.7,41.7c23,0,41.7-18.7,41.7-41.7
						S527.5,56.5,504.4,56.5z"/>
				</g>
				<g>
					<path class="st5" d="M504.4,126.9c-15.8,0-28.6-12.9-28.6-28.6c0-15.8,12.9-28.6,28.6-28.6c15.8,0,28.6,12.9,28.6,28.6
						C533.1,114,520.2,126.9,504.4,126.9z M504.4,70.6c-15.2,0-27.6,12.4-27.6,27.6c0,15.2,12.4,27.6,27.6,27.6
						c15.2,0,27.6-12.4,27.6-27.6C532.1,83,519.7,70.6,504.4,70.6z"/>
				</g>
				<g>
					<path class="st5" d="M504.4,112.8c-8,0-14.6-6.5-14.6-14.6s6.5-14.6,14.6-14.6c8,0,14.6,6.5,14.6,14.6S512.5,112.8,504.4,112.8
						z M504.4,84.6c-7.5,0-13.6,6.1-13.6,13.6c0,7.5,6.1,13.6,13.6,13.6c7.5,0,13.6-6.1,13.6-13.6C518,90.7,511.9,84.6,504.4,84.6z"
						/>
				</g>
			</g>
		</g>
		<g class="st0">
			<path class="st6" d="M-102.5,182.4l-6-0.1c0.7-42.6,30.5-85.2,75.9-108.5C8.2,52.8,55.6,48,100.7,46c7-0.3,14-0.6,20.9-0.9
				c37.7-1.4,76.7-2.9,113.3-13.1c48.8-13.6,86.1-42.2,102.4-78.5l5.5,2.5c-17,38-55.7,67.8-106.2,81.8
				c-37.3,10.4-76.6,11.9-114.7,13.3c-6.8,0.3-13.9,0.5-20.8,0.9c-44.4,2-91,6.7-130.8,27.2C-73.4,101.4-101.9,142-102.5,182.4z"/>
		</g>
		<g class="st0">
			<path class="st6" d="M213,312.3l-4.5-4c27.2-30.7,64.4-51.6,104.7-58.8c24.1-4.3,48.9-3.7,72.8-3.2c16.3,0.4,33.1,0.8,49.4-0.4
				c23-1.6,78.7-10,100.5-53.3l5.4,2.7c-23.2,46-81.4,54.9-105.4,56.6c-16.7,1.2-33.6,0.8-50,0.4c-23.7-0.6-48.1-1.2-71.6,3.1
				C275.3,262.5,239.3,282.6,213,312.3z"/>
		</g>
		<g class="st0">
			<path class="st5" d="M158.3,57.5c-5.4,0-10.7-0.3-16.1-1c-19.2-2.5-37.7-9.5-55.5-16.3C77.5,36.6,68,33,58.5,30.1
				c-24.2-7.5-58.4-12.8-84.3,4.7l-0.6-0.8c26.2-17.7,60.8-12.4,85.2-4.8c9.5,3,19,6.6,28.2,10.1c17.8,6.8,36.2,13.8,55.3,16.3
				c32.2,4.2,65.6-4.6,91.4-24.3c25.9-19.7,43.3-49.5,47.7-81.7l1,0.1c-4.5,32.5-22,62.5-48.1,82.3
				C212.6,48.5,185.5,57.5,158.3,57.5z"/>
		</g>
		<g class="st0">
			<path class="st5" d="M274.7,315.3c-4.5-12.6-3.3-27.2,3.4-41c6.2-12.7,16.9-24.2,29.3-31.5c24.2-14.2,53.1-16.7,83-18l2.3-0.1
				c27.7-1.3,56.3-2.6,81.1-14.8c32.1-15.9,56.1-49.8,65.8-93c8.6-38.7,5.5-78.8,2.5-117.6l1-0.1c3,38.8,6.2,79-2.5,117.9
				c-9.7,43.5-33.9,77.7-66.3,93.7c-25,12.3-53.7,13.6-81.5,14.9l-2.3,0.1c-29.8,1.4-58.5,3.8-82.6,17.9
				c-23.5,13.8-42,44.3-32.3,71.3L274.7,315.3z"/>
		</g>
		<polygon class="st7" points="72.9,260.4 62.1,254.2 62.1,266.7 		"/>
		<polygon class="st7" points="459.1,27.1 466.8,31.6 466.8,22.7 		"/>
		<g class="st0">
			<path class="st6" d="M368.4,53.8c-23.3,0-42.3-19-42.3-42.3s19-42.3,42.3-42.3s42.3,19,42.3,42.3S391.8,53.8,368.4,53.8z
				 M368.4-29.7c-22.8,0-41.3,18.5-41.3,41.3c0,22.8,18.5,41.3,41.3,41.3c22.8,0,41.3-18.5,41.3-41.3
				C409.7-11.2,391.2-29.7,368.4-29.7z"/>
		</g>
		<g class="st0">
			<path class="st6" d="M148,341.8c-25.8,0-46.7-21-46.7-46.7c0-25.8,21-46.7,46.7-46.7c25.8,0,46.7,21,46.7,46.7
				C194.7,320.9,173.8,341.8,148,341.8z M148,249.4c-25.2,0-45.7,20.5-45.7,45.7c0,25.2,20.5,45.7,45.7,45.7
				c25.2,0,45.7-20.5,45.7-45.7C193.7,269.9,173.2,249.4,148,249.4z"/>
		</g>
		<g class="st0">
			<circle class="st6" cx="403.5" cy="73.7" r="0.8"/>
			<circle class="st6" cx="411.3" cy="73.7" r="0.8"/>
			<circle class="st6" cx="419.1" cy="73.7" r="0.8"/>
			<circle class="st6" cx="426.9" cy="73.7" r="0.8"/>
			<circle class="st6" cx="434.7" cy="73.7" r="0.8"/>
			<circle class="st6" cx="442.5" cy="73.7" r="0.8"/>
			<circle class="st6" cx="450.3" cy="73.7" r="0.8"/>
			<circle class="st6" cx="458.1" cy="73.7" r="0.8"/>
			<circle class="st6" cx="403.5" cy="81.5" r="0.8"/>
			<circle class="st6" cx="411.3" cy="81.5" r="0.8"/>
			<circle class="st6" cx="419.1" cy="81.5" r="0.8"/>
			<circle class="st6" cx="426.9" cy="81.5" r="0.8"/>
			<circle class="st6" cx="434.7" cy="81.5" r="0.8"/>
			<circle class="st6" cx="442.5" cy="81.5" r="0.8"/>
			<circle class="st6" cx="450.3" cy="81.5" r="0.8"/>
			<circle class="st6" cx="458.1" cy="81.5" r="0.8"/>
			<circle class="st6" cx="403.5" cy="89.3" r="0.8"/>
			<circle class="st6" cx="411.3" cy="89.3" r="0.8"/>
			<circle class="st6" cx="419.1" cy="89.3" r="0.8"/>
			<circle class="st6" cx="426.9" cy="89.3" r="0.8"/>
			<circle class="st6" cx="434.7" cy="89.3" r="0.8"/>
			<circle class="st6" cx="442.5" cy="89.3" r="0.8"/>
			<circle class="st6" cx="450.3" cy="89.3" r="0.8"/>
			<circle class="st6" cx="458.1" cy="89.3" r="0.8"/>
			<circle class="st6" cx="403.5" cy="97.2" r="0.8"/>
			<circle class="st6" cx="411.3" cy="97.2" r="0.8"/>
			<circle class="st6" cx="419.1" cy="97.2" r="0.8"/>
			<circle class="st6" cx="426.9" cy="97.2" r="0.8"/>
			<circle class="st6" cx="434.7" cy="97.2" r="0.8"/>
			<circle class="st6" cx="442.5" cy="97.2" r="0.8"/>
			<circle class="st6" cx="450.3" cy="97.2" r="0.8"/>
			<circle class="st6" cx="458.1" cy="97.2" r="0.8"/>
			<circle class="st6" cx="403.5" cy="105" r="0.8"/>
			<circle class="st6" cx="411.3" cy="105" r="0.8"/>
			<circle class="st6" cx="419.1" cy="105" r="0.8"/>
			<circle class="st6" cx="426.9" cy="105" r="0.8"/>
			<circle class="st6" cx="434.7" cy="105" r="0.8"/>
			<circle class="st6" cx="442.5" cy="105" r="0.8"/>
			<circle class="st6" cx="450.3" cy="105" r="0.8"/>
			<circle class="st6" cx="458.1" cy="105" r="0.8"/>
			<circle class="st6" cx="403.5" cy="112.8" r="0.8"/>
			<circle class="st6" cx="411.3" cy="112.8" r="0.8"/>
			<circle class="st6" cx="419.1" cy="112.8" r="0.8"/>
			<circle class="st6" cx="426.9" cy="112.8" r="0.8"/>
			<circle class="st6" cx="434.7" cy="112.8" r="0.8"/>
			<circle class="st6" cx="442.5" cy="112.8" r="0.8"/>
			<circle class="st6" cx="450.3" cy="112.8" r="0.8"/>
			<circle class="st6" cx="458.1" cy="112.8" r="0.8"/>
			<circle class="st6" cx="403.5" cy="120.6" r="0.8"/>
			<circle class="st6" cx="411.3" cy="120.6" r="0.8"/>
			<circle class="st6" cx="419.1" cy="120.6" r="0.8"/>
			<circle class="st6" cx="426.9" cy="120.6" r="0.8"/>
			<circle class="st6" cx="434.7" cy="120.6" r="0.8"/>
			<circle class="st6" cx="442.5" cy="120.6" r="0.8"/>
			<circle class="st6" cx="450.3" cy="120.6" r="0.8"/>
			<circle class="st6" cx="458.1" cy="120.6" r="0.8"/>
			<circle class="st6" cx="403.5" cy="128.4" r="0.8"/>
			<circle class="st6" cx="411.3" cy="128.4" r="0.8"/>
			<circle class="st6" cx="419.1" cy="128.4" r="0.8"/>
			<circle class="st6" cx="426.9" cy="128.4" r="0.8"/>
			<circle class="st6" cx="434.7" cy="128.4" r="0.8"/>
			<circle class="st6" cx="442.5" cy="128.4" r="0.8"/>
			<circle class="st6" cx="450.3" cy="128.4" r="0.8"/>
			<circle class="st6" cx="458.1" cy="128.4" r="0.8"/>
			<circle class="st6" cx="403.5" cy="136.2" r="0.8"/>
			<circle class="st6" cx="411.3" cy="136.2" r="0.8"/>
			<circle class="st6" cx="419.1" cy="136.2" r="0.8"/>
			<circle class="st6" cx="426.9" cy="136.2" r="0.8"/>
			<circle class="st6" cx="434.7" cy="136.2" r="0.8"/>
			<circle class="st6" cx="442.5" cy="136.2" r="0.8"/>
			<circle class="st6" cx="450.3" cy="136.2" r="0.8"/>
			<circle class="st6" cx="458.1" cy="136.2" r="0.8"/>
			<circle class="st6" cx="403.5" cy="144" r="0.8"/>
			<circle class="st6" cx="411.3" cy="144" r="0.8"/>
			<circle class="st6" cx="419.1" cy="144" r="0.8"/>
			<circle class="st6" cx="426.9" cy="144" r="0.8"/>
			<circle class="st6" cx="434.7" cy="144" r="0.8"/>
			<circle class="st6" cx="442.5" cy="144" r="0.8"/>
			<circle class="st6" cx="450.3" cy="144" r="0.8"/>
			<circle class="st6" cx="458.1" cy="144" r="0.8"/>
			<circle class="st6" cx="403.5" cy="151.8" r="0.8"/>
			<circle class="st6" cx="411.3" cy="151.8" r="0.8"/>
			<circle class="st6" cx="419.1" cy="151.8" r="0.8"/>
			<circle class="st6" cx="426.9" cy="151.8" r="0.8"/>
			<circle class="st6" cx="434.7" cy="151.8" r="0.8"/>
			<circle class="st6" cx="442.5" cy="151.8" r="0.8"/>
			<circle class="st6" cx="450.3" cy="151.8" r="0.8"/>
			<circle class="st6" cx="458.1" cy="151.8" r="0.8"/>
			<circle class="st6" cx="403.5" cy="159.6" r="0.8"/>
			<circle class="st6" cx="411.3" cy="159.6" r="0.8"/>
			<circle class="st6" cx="419.1" cy="159.6" r="0.8"/>
			<circle class="st6" cx="426.9" cy="159.6" r="0.8"/>
			<circle class="st6" cx="434.7" cy="159.6" r="0.8"/>
			<circle class="st6" cx="442.5" cy="159.6" r="0.8"/>
			<circle class="st6" cx="450.3" cy="159.6" r="0.8"/>
			<circle class="st6" cx="458.1" cy="159.6" r="0.8"/>
			<circle class="st6" cx="403.5" cy="167.4" r="0.8"/>
			<circle class="st6" cx="411.3" cy="167.4" r="0.8"/>
			<circle class="st6" cx="419.1" cy="167.4" r="0.8"/>
			<circle class="st6" cx="426.9" cy="167.4" r="0.8"/>
			<circle class="st6" cx="434.7" cy="167.4" r="0.8"/>
			<circle class="st6" cx="442.5" cy="167.4" r="0.8"/>
			<circle class="st6" cx="450.3" cy="167.4" r="0.8"/>
			<circle class="st6" cx="458.1" cy="167.4" r="0.8"/>
			<circle class="st6" cx="403.5" cy="175.2" r="0.8"/>
			<circle class="st6" cx="411.3" cy="175.2" r="0.8"/>
			<circle class="st6" cx="419.1" cy="175.2" r="0.8"/>
			<circle class="st6" cx="426.9" cy="175.2" r="0.8"/>
			<circle class="st6" cx="434.7" cy="175.2" r="0.8"/>
			<circle class="st6" cx="442.5" cy="175.2" r="0.8"/>
			<circle class="st6" cx="450.3" cy="175.2" r="0.8"/>
			<circle class="st6" cx="458.1" cy="175.2" r="0.8"/>
			<circle class="st6" cx="403.5" cy="183" r="0.8"/>
			<circle class="st6" cx="411.3" cy="183" r="0.8"/>
			<circle class="st6" cx="419.1" cy="183" r="0.8"/>
			<circle class="st6" cx="426.9" cy="183" r="0.8"/>
			<circle class="st6" cx="434.7" cy="183" r="0.8"/>
			<circle class="st6" cx="442.5" cy="183" r="0.8"/>
			<circle class="st6" cx="450.3" cy="183" r="0.8"/>
			<circle class="st6" cx="458.1" cy="183" r="0.8"/>
			<circle class="st6" cx="403.5" cy="190.8" r="0.8"/>
			<circle class="st6" cx="411.3" cy="190.8" r="0.8"/>
			<circle class="st6" cx="419.1" cy="190.8" r="0.8"/>
			<circle class="st6" cx="426.9" cy="190.8" r="0.8"/>
			<circle class="st6" cx="434.7" cy="190.8" r="0.8"/>
			<circle class="st6" cx="442.5" cy="190.8" r="0.8"/>
			<circle class="st6" cx="450.3" cy="190.8" r="0.8"/>
			<circle class="st6" cx="458.1" cy="190.8" r="0.8"/>
			<circle class="st6" cx="403.5" cy="198.7" r="0.8"/>
			<circle class="st6" cx="411.3" cy="198.7" r="0.8"/>
			<circle class="st6" cx="419.1" cy="198.7" r="0.8"/>
			<circle class="st6" cx="426.9" cy="198.7" r="0.8"/>
			<circle class="st6" cx="434.7" cy="198.7" r="0.8"/>
			<circle class="st6" cx="442.5" cy="198.7" r="0.8"/>
			<circle class="st6" cx="450.3" cy="198.7" r="0.8"/>
			<circle class="st6" cx="458.1" cy="198.7" r="0.8"/>
		</g>
		<g class="st0">
			<g>
				<path class="st5" d="M123.9,122.8c-4.6,0-8.4-3.8-8.4-8.4c0-4.6,3.8-8.4,8.4-8.4c4.6,0,8.4,3.8,8.4,8.4
					C132.3,119,128.6,122.8,123.9,122.8z M123.9,107c-4.1,0-7.4,3.3-7.4,7.4c0,4.1,3.3,7.4,7.4,7.4c4.1,0,7.4-3.3,7.4-7.4
					C131.3,110.3,128,107,123.9,107z"/>
			</g>
			<g>
				<path class="st5" d="M146.3,122.8c-4.6,0-8.4-3.8-8.4-8.4c0-4.6,3.8-8.4,8.4-8.4s8.4,3.8,8.4,8.4
					C154.8,119,151,122.8,146.3,122.8z M146.3,107c-4.1,0-7.4,3.3-7.4,7.4c0,4.1,3.3,7.4,7.4,7.4c4.1,0,7.4-3.3,7.4-7.4
					C153.8,110.3,150.4,107,146.3,107z"/>
			</g>
			<g>
				<path class="st5" d="M168.7,122.8c-4.6,0-8.4-3.8-8.4-8.4c0-4.6,3.8-8.4,8.4-8.4c4.6,0,8.4,3.8,8.4,8.4
					C177.2,119,173.4,122.8,168.7,122.8z M168.7,107c-4.1,0-7.4,3.3-7.4,7.4c0,4.1,3.3,7.4,7.4,7.4c4.1,0,7.4-3.3,7.4-7.4
					C176.2,110.3,172.8,107,168.7,107z"/>
			</g>
			<g>
				<path class="st5" d="M191.1,122.8c-4.6,0-8.4-3.8-8.4-8.4c0-4.6,3.8-8.4,8.4-8.4c4.6,0,8.4,3.8,8.4,8.4
					C199.6,119,195.8,122.8,191.1,122.8z M191.1,107c-4.1,0-7.4,3.3-7.4,7.4c0,4.1,3.3,7.4,7.4,7.4c4.1,0,7.4-3.3,7.4-7.4
					C198.6,110.3,195.2,107,191.1,107z"/>
			</g>
			<g>
				<path class="st5" d="M123.9,146.1c-4.6,0-8.4-3.8-8.4-8.4c0-4.6,3.8-8.4,8.4-8.4c4.6,0,8.4,3.8,8.4,8.4
					C132.3,142.3,128.6,146.1,123.9,146.1z M123.9,130.2c-4.1,0-7.4,3.3-7.4,7.4c0,4.1,3.3,7.4,7.4,7.4c4.1,0,7.4-3.3,7.4-7.4
					C131.3,133.5,128,130.2,123.9,130.2z"/>
			</g>
			<g>
				<path class="st5" d="M146.3,146.1c-4.6,0-8.4-3.8-8.4-8.4c0-4.6,3.8-8.4,8.4-8.4s8.4,3.8,8.4,8.4
					C154.8,142.3,151,146.1,146.3,146.1z M146.3,130.2c-4.1,0-7.4,3.3-7.4,7.4c0,4.1,3.3,7.4,7.4,7.4c4.1,0,7.4-3.3,7.4-7.4
					C153.8,133.5,150.4,130.2,146.3,130.2z"/>
			</g>
			<g>
				<path class="st5" d="M168.7,146.1c-4.6,0-8.4-3.8-8.4-8.4c0-4.6,3.8-8.4,8.4-8.4c4.6,0,8.4,3.8,8.4,8.4
					C177.2,142.3,173.4,146.1,168.7,146.1z M168.7,130.2c-4.1,0-7.4,3.3-7.4,7.4c0,4.1,3.3,7.4,7.4,7.4c4.1,0,7.4-3.3,7.4-7.4
					C176.2,133.5,172.8,130.2,168.7,130.2z"/>
			</g>
			<g>
				<path class="st5" d="M191.1,146.1c-4.6,0-8.4-3.8-8.4-8.4c0-4.6,3.8-8.4,8.4-8.4c4.6,0,8.4,3.8,8.4,8.4
					C199.6,142.3,195.8,146.1,191.1,146.1z M191.1,130.2c-4.1,0-7.4,3.3-7.4,7.4c0,4.1,3.3,7.4,7.4,7.4c4.1,0,7.4-3.3,7.4-7.4
					C198.6,133.5,195.2,130.2,191.1,130.2z"/>
			</g>
			<g>
				<path class="st5" d="M123.9,169.3c-4.6,0-8.4-3.8-8.4-8.4c0-4.6,3.8-8.4,8.4-8.4c4.6,0,8.4,3.8,8.4,8.4
					C132.3,165.5,128.6,169.3,123.9,169.3z M123.9,153.4c-4.1,0-7.4,3.3-7.4,7.4c0,4.1,3.3,7.4,7.4,7.4c4.1,0,7.4-3.3,7.4-7.4
					C131.3,156.8,128,153.4,123.9,153.4z"/>
			</g>
			<g>
				<path class="st5" d="M168.7,169.3c-4.6,0-8.4-3.8-8.4-8.4c0-4.6,3.8-8.4,8.4-8.4c4.6,0,8.4,3.8,8.4,8.4
					C177.2,165.5,173.4,169.3,168.7,169.3z M168.7,153.4c-4.1,0-7.4,3.3-7.4,7.4c0,4.1,3.3,7.4,7.4,7.4c4.1,0,7.4-3.3,7.4-7.4
					C176.2,156.8,172.8,153.4,168.7,153.4z"/>
			</g>
		</g>
	</g>
</g>
</svg>
