<?xml version="1.0" encoding="utf-8"?>
<!-- Generator: Adobe Illustrator 19.0.0, SVG Export Plug-In . SVG Version: 6.00 Build 0)  -->
<svg version="1.1" id="Layer_1" opacity="0.3" xmlns="http://www.w3.org/2000/svg" xmlns:xlink="http://www.w3.org/1999/xlink"
	 x="0px" y="0px" viewBox="0 0 749.9 400" style="enable-background:new 0 0 749.9 400;" xml:space="preserve">
<style type="text/css">
	.st0{fill:#D4CBD8;}
	.st1{fill:#FFFFFF;}
	.st2{fill:#C2BAC6;}
	.st3{fill:#EEECF1;}
	.st4{fill:#E0DFE5;}
	.st5{opacity:0.74;}
	.st6{opacity:0.86;}
	.st7{fill:#BBAFC0;}
	.st8{fill:#DDD7E0;}
	.st9{fill:#CBC1D1;}
	.st10{fill:#AFA5B5;}
	.st11{fill:#948E9B;}
	.st12{fill:#A499AA;}
	.st13{fill:#938A99;}
	.st14{fill:#A8C1A3;}
	.st15{fill:#CBC4CE;}
	.st16{fill:#DFDCE5;}
	.st17{fill:#A49BAA;}
	.st18{display:none;}
	.st19{display:inline;}
	.st20{fill:#F48462;}
	.st21{fill:#F27A5F;}
	.st22{fill:#8E657D;}
	.st23{fill:#5C69A5;}
	.st24{fill:#F7B369;}
	.st25{fill:#59ACC9;}
	.st26{fill:#68B6D8;}
	.st27{fill:#A37B90;}
	.st28{fill:#F28E70;}
	.st29{fill:#40507F;}
	.st30{fill:#92B4EA;}
</style>
<g>
	<g>
		<path class="st0" d="M749.9,337H640V117.1c0-2.6,2.1-4.8,4.8-4.8h105.1V337z"/>
	</g>
	<g>
		<g>
			<g>
				<path class="st1" d="M737.2,127.5v80.3c0,1.3-0.8,2.3-1.8,2.3h-79c-1,0-1.8-1-1.8-2.3v-80.3c0-1.3,0.8-2.3,1.8-2.3h79
					C736.4,125.2,737.2,126.2,737.2,127.5z"/>
			</g>
		</g>
	</g>
	<g>
		<circle class="st2" cx="729.3" cy="236.7" r="6.9"/>
	</g>
</g>
<g>
	<g>
		<path class="st3" d="M316.3,190.3H197.1c-4.2,0-7.5-3.4-7.5-7.5V54c0-4.2,3.4-7.5,7.5-7.5h119.2c4.2,0,7.5,3.4,7.5,7.5v128.8
			C323.8,186.9,320.4,190.3,316.3,190.3z"/>
	</g>
	<g>
		<path class="st1" d="M316.3,61.2v114.3c0,3.7-3,6.7-6.7,6.7H203.8c-3.7,0-6.7-3-6.7-6.7V61.2c0-3.7,3-6.7,6.7-6.7h105.8
			C313.3,54.5,316.3,57.5,316.3,61.2z"/>
	</g>
	<g>
		<path class="st0" d="M316.3,147.2v28.3c0,3.7-3,6.7-6.7,6.7H203.8c-3.7,0-6.7-3-6.7-6.7v-53.5h22.2v27.2h13.1v10.1h12.3v-29.7H273
			v35.2h18.9v-17.4H316.3z"/>
	</g>
	<g>
		<rect x="252.4" y="46.4" class="st3" width="5.9" height="143.8"/>
	</g>
</g>
<g>
	<g>
		<path class="st3" d="M597,190.3H477.8c-4.2,0-7.5-3.4-7.5-7.5V54c0-4.2,3.4-7.5,7.5-7.5H597c4.2,0,7.5,3.4,7.5,7.5v128.8
			C604.5,186.9,601.1,190.3,597,190.3z"/>
	</g>
	<g>
		<path class="st1" d="M597,61.1v114.3c0,3.7-3,6.7-6.7,6.7H484.5c-3.7,0-6.7-3-6.7-6.7V61.1c0-3.7,3-6.7,6.7-6.7h105.8
			C594,54.4,597,57.4,597,61.1z"/>
	</g>
	<g>
		<path class="st0" d="M597,147.2v28.3c0,3.7-3,6.7-6.7,6.7H484.5c-3.7,0-6.7-3-6.7-6.7v-53.5H500v27.2h13.1v10.1h12.3v-29.7h28.3
			v35.2h18.9v-17.4H597z"/>
	</g>
	<g>
		<rect x="533.1" y="46.4" class="st3" width="5.9" height="143.8"/>
	</g>
</g>
<g>
	<rect y="337.2" class="st4" width="749.9" height="62.8"/>
</g>
<g class="st5">
	<ellipse class="st4" cx="651.4" cy="365.4" rx="49.6" ry="3.2"/>
</g>
<g>
	<g class="st6">
		<polygon class="st3" points="492.6,344 435.8,378.1 159.1,381.8 215.9,347.7 		"/>
	</g>
	<g>
		<polygon class="st7" points="486.9,344.1 430.1,378.2 153.4,381.9 210.2,347.8 		"/>
	</g>
	<g>
		<polygon class="st1" points="449.8,344.6 393.2,378.7 361.7,379.1 420,345 		"/>
	</g>
	<g>
		<polygon class="st1" points="390,345.4 333.4,379.5 301.8,379.9 360.2,345.8 		"/>
	</g>
	<g>
		<polygon class="st1" points="332.5,346.2 275.8,380.2 244.3,380.7 302.7,346.5 		"/>
	</g>
	<g>
		<polygon class="st1" points="272.6,347 216,381 184.4,381.5 242.8,347.4 		"/>
	</g>
</g>
<g class="st5">
	<ellipse class="st4" cx="351.5" cy="348.7" rx="338.9" ry="10.1"/>
</g>
<g>
	<g>
		<g>
			<path class="st8" d="M290.3,280.4h-58c-3.2,0-5.8-2.6-5.8-5.8s2.6-5.8,5.8-5.8h58c3.2,0,5.8,2.6,5.8,5.8S293.5,280.4,290.3,280.4
				z"/>
		</g>
		<g>
			<path class="st8" d="M239.8,351.2c-1.7,0-3.1-1.4-3.1-3.1v-69.5c0-1.7,1.4-3.1,3.1-3.1c1.7,0,3.1,1.4,3.1,3.1V348
				C243,349.8,241.6,351.2,239.8,351.2z"/>
		</g>
		<g>
			<path class="st8" d="M283.4,351.2c-1.7,0-3.1-1.4-3.1-3.1v-69.5c0-1.7,1.4-3.1,3.1-3.1c1.7,0,3.1,1.4,3.1,3.1V348
				C286.5,349.8,285.1,351.2,283.4,351.2z"/>
		</g>
	</g>
	<g>
		<g>
			<path class="st9" d="M526.8,318.2H353.6c-7.5,0-13.5-6-13.5-13.5v-93.1c0-7.5,6-13.5,13.5-13.5h173.2c7.5,0,13.5,6,13.5,13.5
				v93.1C540.3,312.2,534.2,318.2,526.8,318.2z"/>
		</g>
		<g>
			<path class="st10" d="M549.5,309.7v5.7c0,1.5-0.2,2.9-0.6,4.3c-1.9,7-8.3,12.2-15.9,12.2H347.3c-7.6,0-14-5.2-15.9-12.2
				c-0.4-1.4-0.6-2.8-0.6-4.3v-5.7c0-9.1,7.4-16.5,16.5-16.5h185.8C542.2,293.2,549.5,300.6,549.5,309.7z"/>
		</g>
		<g>
			<path class="st11" d="M345.5,351.9h-0.8c-2.1,0-3.8-1.5-4.1-3.6l-2.9-21.9h13l-0.9,21.5C349.6,350.1,347.8,351.9,345.5,351.9z"/>
		</g>
		<g>
			<path class="st11" d="M534.9,351.9h0.8c2.1,0,3.8-1.5,4.1-3.6l2.9-21.9h-13l0.9,21.5C530.8,350.1,532.7,351.9,534.9,351.9z"/>
		</g>
		<g>
			<circle class="st9" cx="338.6" cy="285.9" r="20.1"/>
		</g>
		<g>
			<path class="st11" d="M549,319.7c-1.9,7-8.3,12.2-15.9,12.2H347.3c-7.6,0-14-5.2-15.9-12.2H549z"/>
		</g>
		<g>
			<circle class="st11" cx="338.6" cy="285.9" r="8.9"/>
		</g>
		<g>
			<circle class="st9" cx="539.8" cy="284.5" r="20.1"/>
		</g>
		<g>
			<circle class="st11" cx="539.8" cy="284.5" r="8.9"/>
		</g>
		<g>
			<path class="st1" d="M408,204.3h-53.1c-0.2,0-0.3-0.1-0.3-0.3c0-0.2,0.1-0.3,0.3-0.3H408c0.2,0,0.3,0.1,0.3,0.3
				C408.2,204.2,408.1,204.3,408,204.3z"/>
		</g>
	</g>
	<g>
		<g>
			<path class="st12" d="M61.9,305.6h109.3c5.8,0,10.6-4.7,10.6-10.6v-91.7c0-5.8-4.7-10.6-10.6-10.6H61.9
				c-5.8,0-10.6,4.7-10.6,10.6v91.7C51.3,300.9,56.1,305.6,61.9,305.6z"/>
		</g>
		<g>
			<path class="st9" d="M84.9,305.6h109.3c5.8,0,10.6-4.7,10.6-10.6v-91.7c0-5.8-4.7-10.6-10.6-10.6H84.9c-5.8,0-10.6,4.7-10.6,10.6
				v91.7C74.3,300.9,79.1,305.6,84.9,305.6z"/>
		</g>
		<g>
			<path class="st13" d="M51.5,301.3v7.4c0,1.9,0.1,3.8,0.4,5.7c1.2,9.2,5.3,15.9,10.1,15.9h118.1c4.8,0,8.9-6.8,10.1-15.9
				c0.2-1.8,0.4-3.7,0.4-5.7v-7.4c0-11.9-4.7-21.6-10.5-21.6H62C56.2,279.7,51.5,289.4,51.5,301.3z"/>
		</g>
		<g>
			<path class="st10" d="M210.8,301.6v7.4c0,2-0.1,3.9-0.4,5.7c0,0.2,0,0.4-0.1,0.5c-1.3,8.9-5.4,15.4-10.3,15.4H79
				c-4.8,0-8.8-6.2-10.2-14.8c-0.1-0.4-0.1-0.7-0.2-1.1c-0.2-1.8-0.4-3.7-0.4-5.7v-7.4c0-11.9,4.8-21.6,10.7-21.6h121
				C206,280,210.8,289.7,210.8,301.6z"/>
		</g>
		<g>
			<path class="st11" d="M189,350.8h0.9c2.1,0,3.9-1.6,4.2-3.7l3-22.5h-13.3l1,22.1C184.8,349,186.7,350.8,189,350.8z"/>
		</g>
		<g>
			<path class="st11" d="M89.5,350.8h-0.9c-2.1,0-3.9-1.6-4.2-3.7l-3-22.5h13.3l-1,22.1C93.6,349,91.8,350.8,89.5,350.8z"/>
		</g>
		<g>
			<path class="st13" d="M63.1,349.3h-0.9c-2.1,0-3.9-1.6-4.2-3.7l-3-22.5h13.3l-1,22.1C67.2,347.5,65.3,349.3,63.1,349.3z"/>
		</g>
		<g>
			<circle class="st9" cx="202.8" cy="277.7" r="20.7"/>
		</g>
		<g>
			<circle class="st11" cx="202.8" cy="277.7" r="9.2"/>
		</g>
		<g>
			<rect x="51.3" y="257.1" class="st12" width="53.2" height="41.3"/>
		</g>
		<g>
			<circle class="st9" cx="104.5" cy="277.7" r="20.7"/>
		</g>
		<g>
			<circle class="st11" cx="104.5" cy="277.7" r="9.2"/>
		</g>
		<g>
			<path class="st1" d="M186.3,198.4h-53.1c-0.2,0-0.3-0.1-0.3-0.3c0-0.2,0.1-0.3,0.3-0.3h53.1c0.2,0,0.3,0.1,0.3,0.3
				C186.5,198.3,186.4,198.4,186.3,198.4z"/>
		</g>
		<g>
			<path class="st11" d="M210.3,315.2c-1.3,8.9-5.4,15.4-10.3,15.4H79c-4.8,0-8.8-6.2-10.2-14.8L210.3,315.2z"/>
		</g>
	</g>
	<g>
		<g>
			<g>
				
					<ellipse transform="matrix(-0.8956 0.4449 -0.4449 -0.8956 182.0219 479.9503)" class="st14" cx="34.7" cy="261.3" rx="10.9" ry="21.2"/>
			</g>
		</g>
		<g>
			<g>
				
					<ellipse transform="matrix(-0.4906 -0.8714 0.8714 -0.4906 -111.5546 484.6339)" class="st14" cx="85.9" cy="274.9" rx="10.9" ry="21.2"/>
			</g>
		</g>
		<g>
			<g>
				
					<ellipse transform="matrix(0.1492 0.9888 -0.9888 0.1492 365.7552 174.514)" class="st14" cx="81.5" cy="299.8" rx="8.1" ry="15.7"/>
			</g>
		</g>
		<g>
			<g>
				
					<ellipse transform="matrix(0.6019 -0.7986 0.7986 0.6019 -218.017 135.2121)" class="st14" cx="26.6" cy="286.3" rx="10.9" ry="21.2"/>
			</g>
		</g>
		<g>
			<path class="st8" d="M56.2,315.7C56.2,315.7,56.2,315.7,56.2,315.7c-0.3-0.1-0.4-0.2-0.3-0.4c6.3-20.5,28.2-17.4,28.4-17.4
				c0.2,0,0.3,0.2,0.3,0.4c0,0.2-0.2,0.3-0.4,0.3c-0.2,0-21.5-3-27.7,16.9C56.5,315.6,56.4,315.7,56.2,315.7z"/>
		</g>
		<g>
			<path class="st8" d="M54.4,314.2C54.4,314.2,54.4,314.2,54.4,314.2c-0.2,0-0.4-0.2-0.3-0.4c5.7-24.6,27.2-38.6,27.4-38.8
				c0.2-0.1,0.4-0.1,0.4,0.1c0.1,0.2,0.1,0.3-0.1,0.4c-0.2,0.1-21.5,14-27.2,38.4C54.7,314.1,54.6,314.2,54.4,314.2z"/>
		</g>
		<g>
			<path class="st8" d="M55.9,324c-0.2,0-0.3-0.2-0.3-0.4c3-23.7-21.8-66.4-22.1-66.8c-0.1-0.2,0-0.4,0.1-0.4c0.2-0.1,0.4,0,0.4,0.1
				c0.3,0.4,25.2,43.4,22.1,67.2C56.2,323.9,56,324,55.9,324z"/>
		</g>
		<g>
			<path class="st8" d="M53.4,312.4c-0.2,0-0.3-0.1-0.3-0.3c0-0.2-2.7-17.6-31-30.6c-0.2-0.1-0.2-0.3-0.2-0.4
				c0.1-0.2,0.3-0.2,0.4-0.2c28.7,13.2,31.3,30.9,31.4,31.1C53.7,312.2,53.6,312.4,53.4,312.4C53.4,312.4,53.4,312.4,53.4,312.4z"/>
		</g>
		<g>
			<g>
				<path class="st15" d="M39.5,349.5h24.1c1.3,0,2.4-0.9,2.5-2.2l3.7-35.1c0.1-1.4-1-2.6-2.5-2.6H35.8c-1.5,0-2.7,1.2-2.5,2.6
					l3.7,35.1C37.1,348.5,38.2,349.5,39.5,349.5z"/>
			</g>
		</g>
		<g>
			<g>
				<path class="st8" d="M44.9,349.5H69c1.3,0,2.4-0.9,2.5-2.2l3.7-35.1c0.1-1.4-1-2.6-2.5-2.6H41.2c-1.5,0-2.7,1.2-2.5,2.6
					l3.7,35.1C42.5,348.5,43.6,349.5,44.9,349.5z"/>
			</g>
		</g>
	</g>
</g>
<g>
	<g>
		<rect x="390.5" class="st3" width="4.8" height="59"/>
	</g>
	<g>
		<path class="st3" d="M421.1,75h-56.5v-6.5c0-15.6,12.6-28.2,28.2-28.2c15.6,0,28.2,12.6,28.2,28.2V75z"/>
	</g>
	<g>
		<ellipse class="st7" cx="392.8" cy="75" rx="28.2" ry="2.1"/>
	</g>
</g>
<g>
	<g>
		<path class="st7" d="M145.7,155.3H23.4c-1.8,0-3.3-1.5-3.3-3.3c0-1.8,1.5-3.3,3.3-3.3h122.3c1.8,0,3.3,1.5,3.3,3.3
			C149,153.8,147.5,155.3,145.7,155.3z"/>
	</g>
	<g>
		<path class="st7" d="M170.4,121.5H48.1c-1.8,0-3.3-1.5-3.3-3.3c0-1.8,1.5-3.3,3.3-3.3h122.3c1.8,0,3.3,1.5,3.3,3.3
			C173.7,120.1,172.2,121.5,170.4,121.5z"/>
	</g>
</g>
<g class="st5">
	<ellipse class="st4" cx="370.3" cy="370.6" rx="185" ry="6.5"/>
</g>
<g>
	<g>
		<path class="st0" d="M575.1,255.3l-4.5-9.8c-0.3-0.6,0.2-1.3,0.8-1.3h23.4L584,255.3H575.1z"/>
	</g>
	<g>
		<path class="st2" d="M628,353.9h-61.1c-1.3,0-2.4-1.1-2.4-2.4v-56c0-1.3,1.1-2.4,2.4-2.4H628c1.3,0,2.4,1.1,2.4,2.4v56
			C630.5,352.8,629.4,353.9,628,353.9z"/>
	</g>
	<g>
		<path class="st16" d="M637.6,353.9h-44.4c-1.2,0-2.1-0.9-2.1-2.1v-56.7c0-1.2,0.9-2.1,2.1-2.1h44.4c1.2,0,2.1,0.9,2.1,2.1v56.7
			C639.7,352.9,638.7,353.9,637.6,353.9z"/>
	</g>
	<g>
		<path class="st0" d="M624.1,293h-47.3c-0.9,0-1.7-0.8-1.7-1.7v-36c0-0.9,0.8-1.7,1.7-1.7h47.3c0.9,0,1.7,0.8,1.7,1.7v36
			C625.8,292.2,625,293,624.1,293z"/>
	</g>
	<g>
		<path class="st16" d="M630.3,293H583c-0.9,0-1.7-0.8-1.7-1.7v-36c0-0.9,0.8-1.7,1.7-1.7h47.3c0.9,0,1.7,0.8,1.7,1.7v36
			C632,292.2,631.3,293,630.3,293z"/>
	</g>
	<g>
		<path class="st16" d="M581.3,255.3l7.8-12.8c0.1-0.2,0.3-0.3,0.5-0.3h49c0.5,0,0.8,0.5,0.5,0.9l-7.1,12.1H581.3z"/>
	</g>
	<g>
		<path class="st17" d="M672.5,365.5h-60c-1.3,0-2.4-1.1-2.4-2.4v-55c0-1.3,1.1-2.4,2.4-2.4h60c1.3,0,2.4,1.1,2.4,2.4v55
			C674.9,364.5,673.8,365.5,672.5,365.5z"/>
	</g>
	<g>
		<path class="st2" d="M685.7,365.5h-60c-1.3,0-2.4-1.1-2.4-2.4v-55c0-1.3,1.1-2.4,2.4-2.4h60c1.3,0,2.4,1.1,2.4,2.4v55
			C688.1,364.5,687,365.5,685.7,365.5z"/>
	</g>
</g>
<g class="st18">
	<g class="st19">
		<g>
			<path class="st20" d="M299.8,191.7c0,0,2.5-4.8,5.9-6.4c3.4-1.6,7-2.2,5.9-0.3c-1.1,1.9-3.9,4.8-3.9,4.8h5.3c0,0,3.6-0.6,6.2-0.6
				c2.5,0,2.8,1.9,2.8,1.9s2.5,0,3.4,1c0.8,1-0.3,2.2-0.3,2.2s3.4,1,1.4,3.2c-2,2.2-9.8,4.8-13.4,5.5c-3.6,0.6-11.2-0.3-11.2-0.3
				S293.6,195.8,299.8,191.7z"/>
		</g>
	</g>
	<g class="st19">
		<path d="M317.7,197.6c-0.1,0-0.1,0-0.2-0.1l-7.4-6.9c-0.1-0.1-0.1-0.3,0-0.4c0.1-0.1,0.3-0.1,0.4,0l7.4,6.9c0.1,0.1,0.1,0.3,0,0.4
			C317.9,197.6,317.8,197.6,317.7,197.6z"/>
	</g>
	<g class="st19">
		<path d="M300.3,195.9c0,0-0.1,0-0.1,0c-0.2,0-0.3-0.1-0.3-0.3c0-0.2,0.1-0.3,0.3-0.3c0,0,0.1,0,0.1,0c2.7,0,4.7-0.6,5.7-1.9
			c1.1-1.4,0.9-3,0.9-3c0-0.2,0.1-0.3,0.2-0.3c0.2,0,0.3,0.1,0.3,0.2c0,0.1,0.3,1.9-1,3.5C305.3,195.2,303.2,195.9,300.3,195.9z"/>
	</g>
	<g class="st19">
		<path class="st21" d="M223.2,335.9c0,0,35.5-8.3,39.7-35.2c5.1-33-3.9-49.2-3.9-49.2l-23.2,27.7l-7,33.5l-9.2,6.6l-5.1,10.8
			L223.2,335.9z"/>
	</g>
	<g class="st19">
		<path class="st22" d="M224.9,339c0,0-6.2,18.5-10.5,24.2c-4.2,5.8-7.5,6.4-9.2,6c-1.7-0.4-4.5-36.7-4.5-36.7s9.9-1.6,8.8-5.4
			c-1.1-3.8-9.7-0.6-9.7-0.6l-1.2-10.9c0,0,9.8-1.7,13.8-1.4c4.3,0.3,11.1,1.9,11.1,1.9L224.9,339z"/>
	</g>
	<g class="st19">
		<path class="st20" d="M227.3,335c0,0-6.6,16.1-7.8,13.4c-1.2-2.6-3.3-18.1-2.2-22.8c1.1-4.7,6-9.3,6-9.3l5.5,9.9L227.3,335z"/>
	</g>
	<g class="st19">
		<path d="M247.2,154.1c0,0-9.1-7-16.8-2.2c-7.8,4.8-4.8,14.8-4.8,14.8s-9.6,2.6-11,14.9c-1.4,12.2,10.2,14.5,10.2,14.5l16.7-9.9
			L247.2,154.1z"/>
	</g>
	<g class="st19">
		<path class="st20" d="M247.7,279.1c0,0-2,64.4-4.8,71.2c-2.7,6.8-17.6,0-17.6,0l-3.5-69.7L247.7,279.1z"/>
	</g>
	<g class="st19">
		<path class="st23" d="M263.3,238.4c0,0,2.1,11.3,2.1,23.6c0,12.4,1.2,25.9,0,27.1c-1.2,1.2-13.6,5.3-28.5,4.3
			c-14.9-0.9-19.4-5-19.2-6.4c0.2-1.4,2-2.6,2-2.6s-1-35.7,3-45.3c4-9.6,21-11.6,21-11.6l17.5-1.4L263.3,238.4z"/>
	</g>
	<g class="st19">
		<path class="st24" d="M237.3,232.8c0,0,17.7,1.1,24.9-2.4l-0.4-21.3c0,0-3.9-27.3-9.4-27.9c-5.5-0.6-12.3,0.5-12.3,0.5l-17.7,25.2
			L237.3,232.8z"/>
	</g>
	<g class="st19">
		<path d="M254.6,168.3c0,0,2.7-3,1.8-7.7c-0.6-3.2-2-4.2-2-4.2s2.1-4.3-4.3-4c-6.4,0.4-10.1,3.5-10.1,3.5s-2.9-1.4-4.2,2
			c-1.3,3.4,0.1,8.4,0.1,8.4L254.6,168.3z"/>
	</g>
	<g class="st19">
		<g>
			<g>
				<g>
					<path class="st20" d="M240.7,173.8l0.3,7.8c0,0,1.5,2.2,6.1,2.4c3.4,0.1,4.4-1.6,4.4-1.6l-1.1-6.8l-8.3-1.5L240.7,173.8z"/>
				</g>
			</g>
		</g>
	</g>
	<g class="st19">
		<g>
			<g>
				<g>
					<path d="M240.7,173.3c0,0.2,0.1,0.5,0.3,0.7c1.9,3.8,8.1,5.2,10.1,5.3l-0.6-3.8L240.7,173.3z"/>
				</g>
			</g>
		</g>
	</g>
	<g class="st19">
		<g>
			<g>
				<g>
					<path class="st20" d="M251.4,157.7c0,0,4.5,9.6,3.1,15.1c-1.4,5.5-6.4,4.7-9.4,3.8c-3-1-4.4-2.8-4.4-2.8s-2.8,1-4.7-1.5
						c-1.9-2.5-0.8-5.5,0.7-6.2c1.6-0.7,3.5,0.4,3.5,0.4l-1.5-2.8C238.7,163.6,244.5,149.1,251.4,157.7z"/>
				</g>
			</g>
		</g>
	</g>
	<g class="st19">
		<g>
			<g>
				<g>
					<path d="M240.2,166.4c0,0,4.2,0.8,7-3.9c2.8-4.7,2.5-6.6,2.5-6.6l3,4.8c0,0,0.6-3.3-0.8-5.4c-1.4-2.1-2.7-1.6-2.7-1.6l-9.2,2.4
						l-2.3,7.4L240.2,166.4z"/>
				</g>
			</g>
		</g>
	</g>
	<g class="st19">
		<path d="M251.8,169.9C251.8,169.9,251.8,169.9,251.8,169.9c-0.2-0.1-0.3-0.2-0.3-0.4c0.5-1.8-0.8-3.7-0.9-3.7
			c-0.1-0.1-0.1-0.3,0.1-0.4c0.1-0.1,0.3-0.1,0.4,0.1c0.1,0.1,1.6,2.2,1,4.2C252.1,169.8,252,169.9,251.8,169.9z"/>
	</g>
	<g class="st19">
		<path d="M239.9,170.9c-0.1,0-0.1,0-0.2-0.1l-2.7-2.7c-0.1-0.1-0.1-0.3,0-0.4c0.1-0.1,0.3-0.1,0.4,0l2.7,2.7c0.1,0.1,0.1,0.3,0,0.4
			C240,170.9,239.9,170.9,239.9,170.9z"/>
	</g>
	<g class="st19">
		<path d="M237.1,170.2c-0.1,0-0.3-0.1-0.3-0.2c0-0.2,0.1-0.3,0.2-0.3l1.8-0.3c0.2,0,0.3,0.1,0.3,0.2c0,0.2-0.1,0.3-0.2,0.3
			L237.1,170.2C237.1,170.2,237.1,170.2,237.1,170.2z"/>
	</g>
	<g class="st19">
		<path d="M251.4,162.2c-0.1,0-0.3-0.1-0.3-0.3c0-0.2,0.1-0.3,0.3-0.3l1.5-0.1c0.2,0,0.3,0.1,0.3,0.3c0,0.2-0.1,0.3-0.3,0.3
			L251.4,162.2C251.5,162.2,251.4,162.2,251.4,162.2z"/>
	</g>
	<g class="st19">
		<path d="M245.8,163.3c-0.1,0-0.2-0.1-0.3-0.2c0-0.2,0.1-0.3,0.2-0.4l2.8-0.7c0.2,0,0.3,0.1,0.4,0.2c0,0.2-0.1,0.3-0.2,0.4
			L245.8,163.3C245.9,163.3,245.9,163.3,245.8,163.3z"/>
	</g>
	<g class="st19">
		<path d="M253,166c-0.1,0-0.2-0.1-0.3-0.2l-0.6-1.7c0-0.1,0-0.2,0-0.3l0.5-0.7c0.1-0.1,0.3-0.1,0.4,0c0.1,0.1,0.1,0.3,0,0.4
			l-0.4,0.5l0.5,1.6C253.4,165.8,253.3,166,253,166C253.1,166,253.1,166,253,166z"/>
	</g>
	<g class="st19">
		<path d="M248.1,166.6c-0.1,0-0.2-0.1-0.3-0.2l-0.6-1.7c0-0.1,0-0.2,0.1-0.3l0.7-0.9c0.1-0.1,0.3-0.1,0.4,0c0.1,0.1,0.1,0.3,0,0.4
			l-0.6,0.8l0.5,1.6C248.5,166.3,248.4,166.5,248.1,166.6C248.2,166.6,248.2,166.6,248.1,166.6z"/>
	</g>
	<g class="st19">
		<path class="st24" d="M304.4,205.4c0,0-7.7,10.6-22,12.2c-14.3,1.6-23.1-6.2-23.1-6.2l-6.5-30c0,0,14.5,7.1,26.4,11.6
			c7,2.7,18.5-3,18.5-3L304.4,205.4z"/>
	</g>
	<g class="st19">
		<path class="st1" d="M278.4,201.2c-0.1,0-0.2,0-0.3,0c-0.5-0.1-0.9-0.4-1.1-0.8c-1-2,1.8-7.3,2-7.5c0.1-0.1,0.2-0.2,0.3-0.1
			c0.1,0,0.2,0.1,0.2,0.2c0.1,0.6,1.4,6.3-0.1,7.9C279.1,201,278.8,201.2,278.4,201.2z M279.1,193.8c-0.9,1.8-2.2,5-1.6,6.3
			c0.1,0.3,0.4,0.4,0.7,0.5c0.3,0.1,0.6,0,0.7-0.2C279.9,199.4,279.4,195.8,279.1,193.8z"/>
	</g>
	<g class="st19">
		<path class="st1" d="M261.6,212.6C261.6,212.6,261.6,212.6,261.6,212.6c-0.2,0-0.3-0.2-0.3-0.4c2.6-10.1-1.7-18.6-1.8-18.7
			c-0.1-0.1,0-0.3,0.1-0.4c0.1-0.1,0.3,0,0.4,0.1c0,0.1,4.5,8.8,1.8,19.1C261.9,212.5,261.7,212.6,261.6,212.6z"/>
	</g>
	<g class="st19">
		<g>
			<path class="st20" d="M244.4,245.4c0,0-7-1-5.6,1.5c1.4,2.5,8.1,2.6,9.3,1.2c1.2-1.4-1.9-5.7-1.9-5.7L244.4,245.4z"/>
		</g>
	</g>
	<g class="st19">
		<path class="st25" d="M226.2,282.8l39.5,0.2c2,0,3.7-1.6,3.7-3.7l0.1-25.2c0-2-1.6-3.7-3.7-3.7l-39.5-0.2c-2,0-3.7,1.6-3.7,3.7
			l-0.1,25.2C222.5,281.2,224.2,282.8,226.2,282.8z"/>
	</g>
	<g class="st19">
		<path class="st26" d="M229,282.8l39.5,0.2c2,0,3.7-1.6,3.7-3.7l0.1-25.2c0-2-1.6-3.7-3.7-3.7l-39.5-0.2c-2,0-3.7,1.6-3.7,3.7
			l-0.1,25.2C225.3,281.2,226.9,282.8,229,282.8z"/>
	</g>
	<g class="st19">
		<g>
			<path class="st26" d="M228.6,254.9c0-7.2,8.8-13.1,19.6-13c10.8,0,19.5,6,19.5,13.2c0,7.2-8.8,13.1-19.6,13
				C237.3,268,228.6,262.1,228.6,254.9z M231.2,254.9c0,5.8,7.6,10.5,16.9,10.6c9.4,0,17-4.6,17-10.4c0-5.8-7.6-10.5-16.9-10.6
				C238.9,244.4,231.2,249.1,231.2,254.9z"/>
		</g>
	</g>
	<g class="st19">
		<path class="st1" d="M268.8,266.9c0,0-43.1-0.1-43.1-0.1c-0.2,0-0.3-0.1-0.3-0.3c0-0.2,0.1-0.3,0.3-0.3c0,0,43.1,0.1,43.1,0.1
			c0.2,0,0.3,0.1,0.3,0.3C269.1,266.7,268.9,266.9,268.8,266.9z"/>
	</g>
	<g class="st19">
		<path class="st1" d="M264.1,271.8h-2.2c-0.2,0-0.3-0.1-0.3-0.3v-4.9c0-0.2,0.1-0.3,0.3-0.3h2.2c0.2,0,0.3,0.1,0.3,0.3v4.9
			C264.4,271.6,264.3,271.8,264.1,271.8z M262.2,271.2h1.6v-4.3h-1.6V271.2z"/>
	</g>
	<g class="st19">
		<path class="st1" d="M234.4,271.8h-2.2c-0.2,0-0.3-0.1-0.3-0.3v-4.9c0-0.2,0.1-0.3,0.3-0.3h2.2c0.2,0,0.3,0.1,0.3,0.3v4.9
			C234.7,271.6,234.6,271.8,234.4,271.8z M232.5,271.2h1.6v-4.3h-1.6V271.2z"/>
	</g>
	<g class="st19">
		<path class="st27" d="M248,348.3c0,0,17.4,8.8,22.5,13.8c5.1,5,5.3,8.4,4.6,10s-36.9-0.8-36.9-0.8s-0.2-10-4.1-9.4
			c-3.9,0.6-2,9.6-2,9.6l-11-0.3c0,0-0.3-9.9,0.6-13.8c1-4.2,3.5-10.7,3.5-10.7L248,348.3z"/>
	</g>
	<g class="st19">
		<path class="st20" d="M244.4,345.3c0,0,14.9,8.9,12.2,9.7c-2.8,0.8-18.4,0.6-22.9-1.1s-8.3-7.3-8.3-7.3l10.5-4L244.4,345.3z"/>
	</g>
	<g class="st19">
		<g>
			<path class="st20" d="M243,228.1c0,0,10.5,3,14.1,12.6c1.3,3.4-7.5,6.9-9.6,7.8c-2.1,0.9-10.8-10.1-10.8-10.1l0.5-6.9L243,228.1z
				"/>
		</g>
	</g>
	<g class="st19">
		<path d="M244.1,247.1c-0.1,0-0.2,0-0.2-0.1l-1.5-1.5c-0.1-0.1-0.1-0.2-0.1-0.3c0-0.1,0.1-0.2,0.2-0.2l1.9-0.4
			c0.1,0,0.3,0.1,0.3,0.2c0,0.2-0.1,0.3-0.2,0.3l-1.4,0.3l1.1,1.2c0.1,0.1,0.1,0.3,0,0.4C244.2,247.1,244.1,247.1,244.1,247.1z"/>
	</g>
	<g class="st19">
		<path d="M254.9,245c-0.1,0-0.2-0.1-0.3-0.2c0,0-1.8-3.8-2.4-4.7c-0.1-0.1-0.1-0.3,0.1-0.4c0.1-0.1,0.3-0.1,0.4,0.1
			c0.6,0.9,2.3,4.6,2.4,4.8c0.1,0.1,0,0.3-0.1,0.4C255,244.9,254.9,245,254.9,245z"/>
	</g>
	<g class="st19">
		<path d="M250.8,246.9c-0.1,0-0.2-0.1-0.3-0.2l-2.4-4.8c-0.1-0.1,0-0.3,0.1-0.4c0.1-0.1,0.3,0,0.4,0.1l2.4,4.8
			c0.1,0.1,0,0.3-0.1,0.4C250.9,246.8,250.9,246.9,250.8,246.9z"/>
	</g>
	<g class="st19">
		<path class="st24" d="M240,181.6c0,0-33,3.8-32.6,38.3c0.3,21.1,28.8,27.5,28.8,27.5l8.8-21.8l-14.7-8.4L240,181.6z"/>
	</g>
	<g class="st19">
		<path class="st1" d="M240.9,223.5c-0.1,0-0.1,0-0.2-0.1c-0.1-0.1-9.2-7-12.7-8.2c-0.1-0.1-0.2-0.2-0.2-0.4
			c0.1-0.1,0.2-0.2,0.4-0.2c3.6,1.3,12.4,8,12.8,8.3c0.1,0.1,0.2,0.3,0.1,0.4C241.1,223.5,241,223.5,240.9,223.5z"/>
	</g>
	<g class="st19">
		<path class="st1" d="M232.7,217.6c-0.1,0-0.2,0-0.2-0.1c-0.1-0.1-3.5-3.6-3.1-5.5c0.1-0.5,0.4-0.9,0.9-1.1c0.6-0.3,1-0.1,1.3,0
			c1.5,1,1.5,5.8,1.5,6.4c0,0.1-0.1,0.2-0.2,0.3C232.8,217.6,232.8,217.6,232.7,217.6z M230.9,211.3c-0.1,0-0.2,0-0.4,0.1
			c-0.3,0.1-0.5,0.4-0.5,0.7c-0.2,1.2,1.4,3.3,2.5,4.5c0-1.7-0.3-4.6-1.2-5.2C231.2,211.4,231.1,211.3,230.9,211.3z"/>
	</g>
	<g class="st19">
		<path class="st26" d="M251.1,179.9c0,0,1.4,0.1,1.4,1.7c0,0.5-0.2,3.9-4.7,4.5c-5.1,0.8-8.3-3.4-8.6-4.4c-0.2-1.1,1.9-3.9,1.6-3.5
			l0.2,1.1C241.1,179.3,248.4,184.4,251.1,179.9z"/>
	</g>
	<g class="st19">
		<path class="st26" d="M248.4,184.4c0,0,2.8,1.5,3.9,5.1c1,3.6,1.7,9.6,1.7,9.6s-3.7-2.1-5.7-5.2s-1.3-9.6-1.3-9.6L248.4,184.4z"/>
	</g>
	<g class="st19">
		<path class="st26" d="M245.9,184.4c0,0-2.8,1.5-3.9,5.1c-1,3.6-1.7,9.6-1.7,9.6s3.7-2.1,5.7-5.2c1.9-3.1,1.3-9.6,1.3-9.6
			L245.9,184.4z"/>
	</g>
	<g class="st19">
		<path class="st23" d="M247.1,186.4c-0.7,0-1.7-0.1-2.8-0.5c-0.2,0-0.2-0.2-0.2-0.4c0-0.2,0.2-0.2,0.4-0.2c3.1,1,4.6,0,4.6,0
			c0.1-0.1,0.3-0.1,0.4,0.1c0.1,0.1,0.1,0.3-0.1,0.4C249.3,185.9,248.6,186.4,247.1,186.4z"/>
	</g>
	<g class="st19">
		<path class="st23" d="M244.5,191.3c-0.1,0-0.1,0-0.2,0c-0.5-0.1-0.6-0.3-0.7-0.5c-0.5-1.2,1.9-4.2,2.4-4.8
			c0.1-0.1,0.2-0.1,0.3-0.1c0.1,0,0.2,0.1,0.2,0.3c0,0.4,0,3.8-1.1,4.8C245.1,191.2,244.8,191.3,244.5,191.3z M245.9,187
			c-1,1.3-2,3-1.7,3.6c0,0,0.1,0.1,0.3,0.2c0.2,0,0.4,0,0.5-0.2C245.6,189.9,245.8,188.2,245.9,187z"/>
	</g>
	<g class="st19">
		<path d="M251,173.1C250.9,173.1,250.9,173.1,251,173.1c-1.2,0-2-1.3-2-1.4c0-0.1,0-0.2,0-0.3c0.1-0.1,0.1-0.1,0.2-0.1h3
			c0.1,0,0.2,0,0.2,0.1c0.1,0.1,0.1,0.2,0.1,0.2C252.4,172.2,251.9,173.1,251,173.1z M249.8,171.9c0.3,0.3,0.7,0.6,1.1,0.7
			c0.5,0,0.7-0.4,0.9-0.7H249.8z"/>
	</g>
</g>
<g class="st18">
	<g class="st19">
		<polygon class="st28" points="452.6,338.9 451.4,353.9 433.9,352.7 433.5,337.7 		"/>
	</g>
	<g class="st19">
		<polygon class="st28" points="410.6,338.3 404.4,355.3 387.1,347.6 392.9,330.1 		"/>
	</g>
	<g class="st19">
		<g>
			<g>
				<g>
					<path class="st26" d="M428.9,366.9c0,1.9,0.6,4,1.9,4.6c1.2,0.5,11.4,1.7,20.2,0.9c8.5-0.8,10.2-1.4,10.9-2.2
						c0.3-0.4-0.3-2.3-1-4.1c0-0.1-0.1-0.2-0.1-0.3c-0.3-0.9-0.7-1.8-1-2.4c-0.3-0.6-0.6-1.2-1-1.7c-0.9-1.3-2.7-4-3.2-5.4
						c-0.6-1.9-1.5-5.9-2.2-7.8c-0.6-1.9-2.1-2.3-2.1-2.3s-17.4-1.2-18.7-0.2c-1.2,1.1-1.9,9.9-1.9,11.3v1.3c0,1.2-0.8,3.7-1.4,5.8
						c-0.1,0.5-0.3,1-0.3,1.4C428.9,366.2,428.9,366.6,428.9,366.9z"/>
				</g>
			</g>
		</g>
	</g>
	<g class="st19">
		<path class="st26" d="M356,370.8c1.2,0.5,50.6,1.9,51.7,0c0.3-0.6,0.6-2.5,0.8-4.9c0.4-5.7,0.4-14.3,0.4-14.3s0.4-2.9,0.3-4.3
			c-0.1-1.3-23.8-0.8-23.8-0.8L369.9,359c0,0-4.2-0.8-8.9,0c-2.5,0.4-4,3.5-4.8,6.5C355.5,368.1,355.4,370.5,356,370.8z"/>
	</g>
	<g class="st19">
		<path d="M421.4,163.7c0,0-1.5-7.7,1.8-9.5c5.2-2.9,10.3,0.5,13,2.9c2.1,1.8,2,4.3,2,4.3s3.8,0.1,2.3,4.6c-1.4,4.5-3.9,12-8.7,10.6
			C426.9,175.4,421.4,163.7,421.4,163.7z"/>
	</g>
	<g class="st19">
		<path class="st20" d="M473.3,253.4l-4.7,3.6c0,0-0.9,2.8-1.7,2.9c-0.8,0.1-2-1.3-2-1.3s-0.5,2.7-2,3c-1.5,0.3-2.2-1.4-2.2-1.4
			s-0.1,2.5-2.5,2.2c-2.4-0.3-2.5-11.2-2.5-11.2l6.9-4.7l9.2-1L473.3,253.4z"/>
	</g>
	<g class="st19">
		<path class="st20" d="M479.5,216.7l-15.2,27l9,9.7c0,0,21.2-16.1,24.2-28.6C500.5,212.4,479.5,216.7,479.5,216.7z"/>
	</g>
	<g class="st19">
		<path class="st28" d="M406.9,240.3c0,0-0.3,6.7-1.1,9.5c-0.8,2.8-1.5,6.7-3.9,5c-1.2-0.8,0.8-6.3-1.3-6.5
			c-2.1-0.1,1.1,11.2-1.7,11.1c-1.7,0-5.9-5.9-6.6-12c-0.7-6.1,5.5-12.3,5.5-12.3L406.9,240.3z"/>
	</g>
	<g class="st19">
		<path class="st29" d="M450.1,237c0,0,1.9,15.7,2.3,23s6.7,81.1,6.7,82.2c0,1.1-30.2,2-30.9,2s-3.7-45.3-3.7-45.3s-11.6,45-12.3,45
			c-0.7,0-28.6-2.2-29.8-2.7c-1.2-0.5,24.9-94.9,29.4-116.3c4.5-21.4,30.5-11.5,30.5-11.5l5.7,6.3L450.1,237z"/>
	</g>
	<g class="st19">
		<path class="st27" d="M444.2,183.4c-11.6-4.6-28.2-2.6-34.4,3.1c-5.2,4.7-15.3,46.3-15.5,49.1c-0.1,0.9,13.8,7,13.8,7l3.2-9.8
			c0,0,5.8,1.5,16.7,2c10.9,0.6,19.6-2.4,19.6-2.4S450.3,185.9,444.2,183.4z"/>
	</g>
	<g class="st19">
		<g>
			<g>
				<g>
					<path class="st28" d="M423.8,177.2l0,0.2l0,3.8l0,3c0,0-0.3,0.7,3.1,0.6c4.5-0.1,6-2,6-2l0.5-6.9L432,176L423.8,177.2z"/>
				</g>
			</g>
		</g>
	</g>
	<g class="st19">
		<g>
			<g>
				<g>
					<path d="M423.8,177.4l0,3.8c2.2-0.2,6.2-1,8-4.4c0.1-0.3,0.2-0.5,0.3-0.7L423.8,177.4L423.8,177.4z"/>
				</g>
			</g>
		</g>
	</g>
	<g class="st19">
		<g>
			<g>
				<g>
					<path class="st28" d="M423.2,159.2c0,0-4.6,9.6-3.4,15.2c1.2,5.6,6.2,5,9.2,4c3-0.9,4.4-2.7,4.4-2.7s2.7,1.1,4.6-1.5
						c1.9-2.5,1-5.6-0.6-6.3c-1.5-0.8-3.4,0.3-3.4,0.3l1.6-2.8C435.6,165.5,430.2,150.7,423.2,159.2z"/>
				</g>
			</g>
		</g>
	</g>
	<g class="st19">
		<path d="M423.1,171.7c-0.1,0-0.2-0.1-0.3-0.2c-0.5-2.1,1-4.2,1-4.3c0.1-0.1,0.3-0.2,0.4-0.1c0.1,0.1,0.2,0.3,0.1,0.4
			c0,0-1.4,1.9-0.9,3.8C423.4,171.5,423.3,171.7,423.1,171.7C423.1,171.7,423.1,171.7,423.1,171.7z"/>
	</g>
	<g class="st19">
		<path d="M434.3,172.9c-0.1,0-0.1,0-0.2-0.1c-0.1-0.1-0.1-0.3,0-0.4l2.7-2.7c0.1-0.1,0.3-0.1,0.4,0c0.1,0.1,0.1,0.3,0,0.4l-2.7,2.7
			C434.4,172.8,434.3,172.9,434.3,172.9z"/>
	</g>
	<g class="st19">
		<path d="M437,172.2C437,172.2,437,172.2,437,172.2l-1.8-0.4c-0.2,0-0.3-0.2-0.2-0.3c0-0.2,0.2-0.3,0.3-0.2l1.8,0.4
			c0.2,0,0.3,0.2,0.2,0.3C437.3,172.1,437.2,172.2,437,172.2z"/>
	</g>
	<g class="st19">
		<path d="M429.3,164.8c-0.1,0-0.2-0.1-0.3-0.2c-0.4-0.9-1.6-0.7-1.6-0.7c-0.2,0-0.3-0.1-0.3-0.2c0-0.2,0.1-0.3,0.2-0.3
			c0.6-0.1,1.8,0,2.3,1c0.1,0.1,0,0.3-0.1,0.4C429.4,164.7,429.4,164.8,429.3,164.8z"/>
	</g>
	<g class="st19">
		<path d="M424.2,163.4c-0.1,0-0.2,0-0.2-0.1c-0.2-0.3-0.3-0.4-0.6-0.4c-0.6-0.1-1.2,0.4-1.2,0.4c-0.1,0.1-0.3,0.1-0.4,0
			c-0.1-0.1-0.1-0.3,0-0.4c0,0,0.8-0.7,1.6-0.6c0.4,0.1,0.7,0.3,1,0.7c0.1,0.1,0,0.3-0.1,0.4C424.3,163.4,424.3,163.4,424.2,163.4z"
			/>
	</g>
	<g class="st19">
		<path d="M422.3,167.6C422.3,167.6,422.3,167.6,422.3,167.6c-0.2,0-0.3-0.2-0.3-0.3l0.3-1.8c0-0.2,0.2-0.3,0.3-0.2
			c0.2,0,0.3,0.2,0.2,0.3l-0.3,1.8C422.5,167.5,422.4,167.6,422.3,167.6z"/>
	</g>
	<g class="st19">
		<path d="M427.6,168.2c-0.2,0-0.3-0.2-0.3-0.3l0.3-1.8c0-0.2,0.2-0.3,0.3-0.2c0.2,0,0.3,0.2,0.2,0.3l-0.3,1.8
			C427.8,168.1,427.7,168.2,427.6,168.2z"/>
	</g>
	<g class="st19">
		<path d="M434,168.3c0,0-4.1-2.4-5.5-5.5c-1.4-3.2-1.4-4.7-1.4-4.7s-0.9-0.5-2.5,0c-1.5,0.4-2.2,2.9-2.2,2.9l-1.1,2.8l0.9-6.8
			c0,0,4.2-2.1,4.8-2.1c0.6,0,7.5,1.6,7.8,2c0.4,0.4,2.4,6.1,2.4,6.1l0.1,2.5L434,168.3z"/>
	</g>
	<g class="st19">
		<path class="st24" d="M426,185c-1,0-2-0.1-3-0.4c-0.2,0-0.2-0.2-0.2-0.4c0-0.2,0.2-0.2,0.4-0.2c5.4,1.5,10.6-1.9,10.6-1.9
			c0.1-0.1,0.3,0,0.4,0.1c0.1,0.1,0,0.3-0.1,0.4C433.9,182.8,430.4,185,426,185z"/>
	</g>
	<g class="st19">
		<path class="st1" d="M424,295.6c-0.2,0-0.3-0.1-0.3-0.3c-0.5-17.3,0.2-39.4,0.3-41.7l-11.2-4.7c-0.1-0.1-0.2-0.2-0.2-0.4
			c0.1-0.1,0.2-0.2,0.4-0.2l11.4,4.8c0.1,0,0.2,0.2,0.2,0.3c0,0.2-0.8,23.7-0.3,41.9C424.3,295.4,424.2,295.6,424,295.6
			C424,295.6,424,295.6,424,295.6z"/>
	</g>
	<g class="st19">
		<path class="st20" d="M537.9,242.1c0,0-2.2,8.2-2.5,9.8c-0.3,1.6,1.6,4.7,1.6,4.7s2.4,6,4,6.5c1.6,0.5,3.5-1.7,3.5-1.7
			s7.6-0.7,10.3-4.1c2.7-3.4-4.8-16.5-4.8-16.5h-8.2L537.9,242.1z"/>
	</g>
	<g class="st19">
		<path d="M544.5,261.7c-0.1,0-0.2-0.1-0.3-0.2l-0.5-1.7c0-0.2,0-0.3,0.2-0.4c0.2,0,0.3,0,0.4,0.2l0.5,1.7
			C544.8,261.5,544.7,261.6,544.5,261.7C544.5,261.7,544.5,261.7,544.5,261.7z"/>
	</g>
	<g class="st19">
		<path d="M537,256.9c-0.1,0-0.3-0.1-0.3-0.3l-0.6-6.2c0-0.2,0.1-0.3,0.3-0.3c0.2,0,0.3,0.1,0.3,0.3l0.6,6.2
			C537.3,256.7,537.2,256.9,537,256.9C537,256.9,537,256.9,537,256.9z"/>
	</g>
	<g class="st19">
		<g>
			<polygon class="st20" points="486.1,343.6 486.1,353.7 467,353 467,343.6 			"/>
		</g>
	</g>
	<g class="st19">
		<g>
			<polygon class="st20" points="533,342.4 533,352.6 515.3,351.9 515.3,342.4 			"/>
		</g>
	</g>
	<g class="st19">
		<g>
			<g>
				<g>
					<g>
						<path class="st24" d="M510.9,369.3c0,1.8,0.6,3.8,1.8,4.3c1.2,0.5,11.2,1.6,19.9,0.8c8.3-0.7,10.1-1.3,10.7-2.1
							c0.3-0.4-0.3-2.2-1-3.9c0-0.1-0.1-0.2-0.1-0.3c-0.3-0.9-0.7-1.7-1-2.3c-0.3-0.6-0.6-1.1-0.9-1.6c-0.9-1.2-2.7-3.8-3.1-5.1
							c-0.6-1.8-1.5-5.6-2.1-7.4c-0.6-1.8-2.1-2.1-2.1-2.1s-17.1-1.2-18.4-0.1c-1.2,1-1.8,9.5-1.8,10.7v1.3c0,1.2-0.8,3.5-1.3,5.5
							c-0.1,0.5-0.3,0.9-0.3,1.4C511,368.7,510.9,369,510.9,369.3z"/>
					</g>
				</g>
			</g>
		</g>
	</g>
	<g class="st19">
		<g>
			<path class="st23" d="M492.5,232.3c0,0-16.9,20.5-25.5,54.8s-8,59.6-8,59.6h32.4c0,0,0.9-21,4.4-38.1c3.6-17.2,8.8-29.8,8.8-29.8
				l3.5,67.9h32.4c0,0-5.9-98.6-11.7-113.3C524.2,221.5,492.5,232.3,492.5,232.3z"/>
		</g>
	</g>
	<g class="st19">
		<path class="st1" d="M519.5,357.1c-0.1,0-0.3-0.1-0.3-0.2c0-0.2,0.1-0.3,0.2-0.3c0.1,0,5.8-0.8,11.8,0c0.2,0,0.3,0.2,0.2,0.3
			c0,0.2-0.2,0.3-0.3,0.2C525.3,356.3,519.6,357.1,519.5,357.1C519.5,357.1,519.5,357.1,519.5,357.1z"/>
	</g>
	<g class="st19">
		<path class="st1" d="M519.5,361.4c-0.1,0-0.3-0.1-0.3-0.2c0-0.2,0.1-0.3,0.2-0.3c0.1,0,5.8-0.8,11.8,0c0.2,0,0.3,0.2,0.2,0.3
			c0,0.2-0.2,0.3-0.3,0.2C525.3,360.6,519.6,361.4,519.5,361.4C519.5,361.4,519.5,361.4,519.5,361.4z"/>
	</g>
	<g class="st19">
		<path class="st24" d="M504.7,279.1c-0.2,0-0.3-0.1-0.3-0.3l-0.3-23.3l-8.3-3.3c-0.1-0.1-0.2-0.2-0.2-0.4c0.1-0.1,0.2-0.2,0.4-0.2
			l8.5,3.3c0.1,0,0.2,0.1,0.2,0.3l0.3,23.5C505,279,504.8,279.1,504.7,279.1C504.7,279.1,504.7,279.1,504.7,279.1z"/>
	</g>
	<g class="st19">
		<path class="st30" d="M506,182.2c0,0-10.6,0.7-14.8,6.4c-4.2,5.7-0.3,42.5,0,43.1c0.3,0.5,6.5,4.5,15.7,4.5c9.7,0,22-2.7,22-2.7
			c-0.1-0.9,2.3-41.5-0.7-45.1C525.1,184.7,513.8,181.4,506,182.2z"/>
	</g>
	<g class="st19">
		<g>
			<g>
				<g>
					<path class="st20" d="M512.8,176.1l-0.5,7.9c0,0-1.6,2.2-6.2,2.3c-3.4,0.1-4.6-0.8-4.6-0.8l0.7-4l0.7-3.9l8.4-1.3L512.8,176.1z
						"/>
				</g>
			</g>
		</g>
	</g>
	<g class="st19">
		<g>
			<g>
				<g>
					<path d="M511.4,176.3c0,0.2-0.1,0.5-0.3,0.7c-2,3.8-6.9,4.4-8.8,4.5l0.7-3.9L511.4,176.3z"/>
				</g>
			</g>
		</g>
	</g>
	<g class="st19">
		<g>
			<g>
				<g>
					<path class="st20" d="M502.3,159.6c0,0-4.7,9.6-3.4,15.2c1.3,5.6,6.4,4.9,9.4,4c3.1-0.9,4.5-2.7,4.5-2.7s2.8,1.1,4.8-1.5
						c2-2.5,1-5.6-0.6-6.3s-3.5,0.3-3.5,0.3l1.6-2.8C515.1,165.8,509.4,151.1,502.3,159.6z"/>
				</g>
			</g>
		</g>
	</g>
	<g class="st19">
		<path d="M502.2,172.1c-0.1,0-0.2-0.1-0.3-0.2c-0.6-2.1,1-4.2,1-4.3c0.1-0.1,0.3-0.2,0.4-0.1c0.1,0.1,0.2,0.3,0.1,0.4
			c0,0-1.4,1.9-0.9,3.8C502.5,171.9,502.5,172,502.2,172.1C502.3,172.1,502.3,172.1,502.2,172.1z"/>
	</g>
	<g class="st19">
		<path d="M513.7,173.2c-0.1,0-0.1,0-0.2-0.1c-0.1-0.1-0.1-0.3,0-0.4l2.8-2.7c0.1-0.1,0.3-0.1,0.4,0c0.1,0.1,0.1,0.3,0,0.4l-2.8,2.7
			C513.9,173.2,513.8,173.2,513.7,173.2z"/>
	</g>
	<g class="st19">
		<path d="M516.6,172.6C516.5,172.6,516.5,172.6,516.6,172.6l-1.9-0.4c-0.2,0-0.3-0.2-0.2-0.3c0-0.2,0.2-0.3,0.3-0.2l1.8,0.3
			c0.2,0,0.3,0.2,0.2,0.3C516.8,172.5,516.7,172.6,516.6,172.6z"/>
	</g>
	<g class="st19">
		<path d="M505.3,175.2c-1,0-1.8-0.9-1.9-0.9c-0.1-0.1-0.1-0.2-0.1-0.3s0.1-0.2,0.2-0.2l3.9-1.1c0.1,0,0.2,0,0.3,0.1
			c0.1,0.1,0.1,0.2,0.1,0.3c0,0.1-0.5,1.4-1.8,2C505.8,175.2,505.5,175.2,505.3,175.2z M504.2,174.2c0.4,0.3,1,0.6,1.6,0.3
			c0.6-0.3,1-0.7,1.2-1.1L504.2,174.2z"/>
	</g>
	<g class="st19">
		<path d="M506.8,168.6c-0.2,0-0.3-0.2-0.3-0.3l0.3-1.8c0-0.2,0.2-0.3,0.3-0.2c0.2,0,0.3,0.2,0.2,0.3l-0.3,1.8
			C507.1,168.5,506.9,168.6,506.8,168.6z"/>
	</g>
	<g class="st19">
		<path d="M501.4,167.9C501.4,167.9,501.4,167.9,501.4,167.9c-0.2,0-0.3-0.2-0.3-0.3l0.3-1.8c0-0.2,0.2-0.3,0.3-0.2
			c0.2,0,0.3,0.2,0.2,0.3l-0.3,1.8C501.7,167.8,501.5,167.9,501.4,167.9z"/>
	</g>
	<g class="st19">
		<path d="M508.6,165.1c-0.1,0-0.2-0.1-0.3-0.2c-0.4-0.9-1.6-0.7-1.7-0.7c-0.2,0-0.3-0.1-0.3-0.2c0-0.2,0.1-0.3,0.2-0.3
			c0.1,0,1.7-0.3,2.3,1c0.1,0.1,0,0.3-0.1,0.4C508.7,165.1,508.7,165.1,508.6,165.1z"/>
	</g>
	<g class="st19">
		<path d="M503.4,163.8c-0.1,0-0.2,0-0.2-0.1c-0.2-0.3-0.4-0.4-0.6-0.4c-0.6-0.1-1.2,0.4-1.2,0.4c-0.1,0.1-0.3,0.1-0.4,0
			c-0.1-0.1-0.1-0.3,0-0.4c0,0,0.9-0.7,1.7-0.6c0.4,0.1,0.7,0.3,1,0.7c0.1,0.1,0,0.3-0.1,0.4C503.5,163.8,503.4,163.8,503.4,163.8z"
			/>
	</g>
	<g class="st19">
		<path class="st1" d="M505.7,186.5c-2.5,0-4.2-0.8-4.2-0.8c-0.1-0.1-0.2-0.2-0.1-0.4c0.1-0.1,0.2-0.2,0.4-0.1
			c0.1,0,5.3,2.4,10.5-1.5c0.1-0.1,0.3-0.1,0.4,0.1c0.1,0.1,0.1,0.3-0.1,0.4C510.1,186,507.6,186.5,505.7,186.5z"/>
	</g>
	<g class="st19">
		<path d="M513.5,168.6c0,0,0.8-4-2.4-5.4c-3.3-1.4-12-3.5-11.8-7.3c0.2-3.8,6.2-0.9,6.2-0.9s-0.8-4,2.8-3.4
			c3.6,0.6,4.7,3.9,4.7,3.9s2.9,0,4.8,1.8c1.9,1.8,0.9,5.4,0.9,5.4s2.4,1.5,1.9,3.7c-0.5,2.2-2.1,3.8-2.1,3.8
			S517.2,167.1,513.5,168.6z"/>
	</g>
	<g class="st19">
		<path class="st24" d="M483.5,347c-0.2,0-0.3-0.2-0.3-0.3c0-0.6,4.9-62.7,20.9-81.2c0.1-0.1,0.3-0.1,0.4,0c0.1,0.1,0.1,0.3,0,0.4
			c-15.9,18.4-20.7,80.3-20.8,80.9C483.8,346.9,483.7,347,483.5,347z"/>
	</g>
	<g class="st19">
		<path class="st24" d="M527.7,248.2c-4.3,0-7.1-4-7.2-4.2c-0.1-0.1-0.1-0.3,0.1-0.4c0.1-0.1,0.3-0.1,0.4,0.1c0,0,2.9,4.4,7.3,3.9
			c0.2,0,0.3,0.1,0.3,0.3c0,0.2-0.1,0.3-0.3,0.3C528.2,248.2,527.9,248.2,527.7,248.2z"/>
	</g>
	<g class="st19">
		<path class="st24" d="M534.8,347c-0.1,0-0.3-0.1-0.3-0.3l-7.7-98.8c0-0.2,0.1-0.3,0.3-0.3c0.2,0,0.3,0.1,0.3,0.3l7.7,98.8
			C535.1,346.9,535,347,534.8,347C534.9,347,534.9,347,534.8,347z"/>
	</g>
	<g class="st19">
		<path class="st30" d="M491.2,188.6c0,0-6.4,8.4-10.1,16c-3.7,7.6-5.7,11.9-5.7,11.9l17.5,8.4L491.2,188.6z"/>
	</g>
	<g class="st19">
		<path class="st20" d="M464.3,243.7c0,0-6.2,0.2-7.8,2.2s-3.1,9.1-1.3,9.6c1.8,0.5,4.2-3.5,4.2-3.5s12.1-0.3,13.5-4
			C474.2,244.2,464.3,243.7,464.3,243.7z"/>
	</g>
	<g class="st19">
		<path d="M455.6,255.9c-0.2,0-0.4-0.2-0.4-0.4c0-0.2,0.2-0.3,0.3-0.3c0.8,0,2.5-2,3.4-3.4c0.1-0.1,0.2-0.1,0.3-0.2
			c0,0,2.5-0.2,5-0.4c2.2-0.2,3.3-2,3.3-2c0.1-0.2,0.3-0.2,0.5-0.1c0.2,0.1,0.2,0.3,0.1,0.5c0,0.1-1.2,2-3.8,2.3
			c-2.1,0.2-4.2,0.4-4.8,0.4C458.9,253.2,457,255.9,455.6,255.9z"/>
	</g>
	<g class="st19">
		<path class="st28" d="M452.4,238.2c0,0-0.7,7.2-0.7,9.4c0,2.2,5,5,5,5s-0.3,4.7,1.7,4.8c2.1,0.1,4.4-3.6,4.4-3.6s4.7-1.6,7-3.9
			c2.3-2.3-4.6-14.4-7.8-14.7C458.7,234.8,452.4,238.2,452.4,238.2z"/>
	</g>
	<g class="st19">
		<path class="st20" d="M453.7,253.4c0,0,0.8-2.6,2.7-2.4c1.9,0.2,0.1,4.5-2.1,4.5C453.1,255.5,453.7,253.4,453.7,253.4z"/>
	</g>
	<g class="st19">
		<path class="st20" d="M468.5,257c0,0,0.1-7.8-1.8-7.5c-2,0.3-1.7,3-1.7,3s-0.8-4.5-2.3-4.1c-1.5,0.4-1.6,3.6-1.6,3.6s-1.9-3.4-3-1
			c-1.1,2.4-1.3,9.6-1.3,9.6l6.9-2.5L468.5,257z"/>
	</g>
	<g class="st19">
		<path d="M464.8,258.9c-0.2,0-0.3-0.1-0.3-0.3l0.1-6.1c0-0.2,0.1-0.3,0.3-0.3c0.2,0,0.3,0.1,0.3,0.3l-0.1,6.1
			C465.1,258.7,465,258.9,464.8,258.9z"/>
	</g>
	<g class="st19">
		<path d="M460.7,260.5c-0.2,0-0.3-0.1-0.3-0.3l0.3-8.2c0-0.2,0.1-0.3,0.3-0.3c0.2,0,0.3,0.1,0.3,0.3l-0.3,8.2
			C461,260.4,460.8,260.5,460.7,260.5z"/>
	</g>
	<g class="st19">
		<path class="st27" d="M467.1,236.1c0,0-1.5-14.8-7.1-30.6c-6.3-17.9-13.6-21.3-15.9-22.1c-1.9-0.7-3.5,16.5-2.9,32
			c0.5,12.7,8.5,26.2,8.5,26.2L467.1,236.1z"/>
	</g>
	<g class="st19">
		<path d="M455.6,249.2c-0.2,0-0.3-0.1-0.3-0.3v-3c0-0.2,0.1-0.3,0.3-0.3s0.3,0.1,0.3,0.3v3C455.9,249.1,455.8,249.2,455.6,249.2z"
			/>
	</g>
	<g class="st19">
		<path class="st20" d="M522,218l15.3,26.9l12.9-2.7c0,0-5-28-14.1-37C527,196.2,522,218,522,218z"/>
	</g>
	<g class="st19">
		<path class="st30" d="M546.2,215.3c0,0-12.4-27.4-23.1-30.2c-10.7-2.8,0.3,38.3,0.3,38.3L546.2,215.3z"/>
	</g>
	<g class="st19">
		<path d="M395.7,256.8c-0.1,0-0.2-0.1-0.3-0.2l-1.7-6.6c0-0.2,0.1-0.3,0.2-0.4c0.2,0,0.3,0.1,0.4,0.2l1.7,6.6
			C396,256.6,395.9,256.8,395.7,256.8C395.7,256.8,395.7,256.8,395.7,256.8z"/>
	</g>
	<g class="st19">
		<path class="st24" d="M445.5,232.1c-0.1,0-0.2,0-0.2-0.1c-0.4-0.6-4-5.7-3.2-7.8c0.2-0.5,0.6-0.8,1.1-0.9c0.3-0.1,0.6,0,0.9,0.2
			c1.6,1.3,1.7,7.6,1.7,8.3C445.8,231.9,445.7,232,445.5,232.1C445.6,232.1,445.6,232.1,445.5,232.1z M443.4,223.8c0,0-0.1,0-0.1,0
			c-0.4,0.1-0.6,0.2-0.7,0.5c-0.5,1.3,1.4,4.6,2.6,6.5c-0.1-2.2-0.5-6-1.5-6.9C443.7,223.9,443.5,223.8,443.4,223.8z"/>
	</g>
	<g class="st19">
		<path class="st1" d="M490.3,223c-0.2,0-0.3-0.1-0.3-0.3V216c0-0.2,0.1-0.3,0.3-0.3s0.3,0.1,0.3,0.3v6.7
			C490.5,222.9,490.4,223,490.3,223z"/>
	</g>
	<g class="st19">
		<path class="st1" d="M521.1,224.2c0,0-0.1,0-0.1,0c-0.1,0-0.1-0.1-0.1-0.2l-2-9.1c0-0.2,0.1-0.3,0.2-0.3c0.2,0,0.3,0.1,0.3,0.2
			l1.9,8.8l3.2-1.1c0.2,0,0.3,0,0.4,0.2c0.1,0.1,0,0.3-0.2,0.4L521.1,224.2C521.2,224.2,521.1,224.2,521.1,224.2z"/>
	</g>
	<g class="st19">
		<path d="M425.1,174.5c-0.1,0-0.1,0-0.1,0c-0.2,0-0.3-0.1-0.3-0.3c0-0.2,0.1-0.3,0.3-0.3c0.1,0,1.4,0.1,2.4-1.3
			c0.1-0.1,0.3-0.2,0.4-0.1c0.1,0.1,0.2,0.3,0.1,0.4C426.9,174.4,425.5,174.5,425.1,174.5z"/>
	</g>
	<g class="st19">
		<path class="st24" d="M411.6,231.8c-0.2,0-0.3-0.2-0.3-0.3l0.6-7.6c0-0.2,0.2-0.3,0.3-0.3c0.2,0,0.3,0.2,0.3,0.3l-0.6,7.6
			C411.9,231.7,411.7,231.8,411.6,231.8z"/>
	</g>
	<g class="st19">
		<path class="st1" d="M446.1,245.5c-4.2,0-6.7-3.7-6.8-3.9c-0.1-0.1,0-0.3,0.1-0.4c0.1-0.1,0.3,0,0.4,0.1c0,0,2.5,3.7,6.5,3.6
			c0.2,0,0.3,0.1,0.3,0.3s-0.1,0.3-0.3,0.3C446.2,245.5,446.1,245.5,446.1,245.5z"/>
	</g>
	<g class="st19">
		<path class="st1" d="M414.9,335.1c0,0-30.5-3.4-30.5-3.4c-0.2,0-0.3-0.2-0.3-0.3c0-0.2,0.2-0.3,0.3-0.3l30.5,3.4
			c0.2,0,0.3,0.2,0.3,0.3C415.1,335,415,335.1,414.9,335.1z"/>
	</g>
	<g class="st19">
		<path class="st1" d="M427.3,336.2c-0.2,0-0.3-0.1-0.3-0.3c0-0.2,0.1-0.3,0.3-0.3l31.1-1.3c0.1,0,0.3,0.1,0.3,0.3
			c0,0.2-0.1,0.3-0.3,0.3L427.3,336.2C427.4,336.2,427.3,336.2,427.3,336.2z"/>
	</g>
	<g class="st19">
		<path class="st27" d="M376.4,354c-0.1,0-0.1,0-0.2-0.1c-0.2-0.2-4.9-4.1-4.4-6.5c0.1-0.5,0.3-0.6,0.5-0.6c0.7-0.2,2,1.1,3.2,2.5
			c-1.1-2.2-2.1-4.8-1.7-6.2c0.2-0.5,0.5-0.8,0.9-0.9c0.5-0.2,0.9-0.1,1.4,0.1c2.3,1.3,3.7,8.4,3.7,8.7c0,0.2-0.1,0.3-0.2,0.3
			c-0.2,0-0.3-0.1-0.3-0.2c0-0.1-1.3-7.1-3.5-8.3c-0.3-0.2-0.6-0.2-0.9-0.1c-0.3,0.1-0.5,0.3-0.6,0.6c-0.6,1.9,2.3,7.2,3.6,9.1
			c0.1,0.1,0,0.3-0.1,0.4c-0.1,0.1-0.3,0.1-0.4-0.1c-1.9-2.7-4.4-5.5-5.1-5.4c-0.1,0-0.1,0.1-0.1,0.2c-0.4,1.7,2.9,4.9,4.2,5.9
			c0.1,0.1,0.1,0.3,0,0.4C376.6,354,376.5,354,376.4,354z"/>
	</g>
	<g class="st19">
		<path class="st27" d="M442.6,357.1c-0.1,0-0.1,0-0.2-0.1c-0.6-0.4-5.5-4.4-5.4-6.6c0-0.4,0.2-0.8,0.6-1c0.4-0.3,0.9-0.3,1.4-0.2
			c1,0.3,1.9,1.6,2.5,2.9c-0.4-1.9-0.6-4.3,0-5.4c0.2-0.4,0.5-0.6,0.9-0.7c0.4-0.1,0.7,0,1,0.2c1.5,1.4,0.7,8.2,0.6,9
			c0,0.2-0.2,0.3-0.3,0.2c-0.2,0-0.3-0.2-0.2-0.3c0.3-2,0.7-7.5-0.4-8.5c-0.1-0.1-0.3-0.1-0.5-0.1c-0.2,0.1-0.4,0.2-0.5,0.5
			c-1.1,1.9,0.7,8,0.7,8.1c0,0.2,0,0.3-0.2,0.4c-0.1,0-0.3,0-0.4-0.2c-0.5-1.3-2-4.9-3.5-5.4c-0.3-0.1-0.6-0.1-0.9,0.1
			c-0.2,0.1-0.3,0.3-0.3,0.6c-0.1,1.6,3.7,4.9,5.1,6.1c0.1,0.1,0.1,0.3,0,0.4C442.7,357.1,442.6,357.1,442.6,357.1z"/>
	</g>
	<g class="st19">
		<path class="st27" d="M408.5,366.1c0,0-52.3-0.3-52.3-0.3c-0.2,0-0.3-0.1-0.3-0.3c0-0.2,0.1-0.3,0.3-0.3c0,0,52.3,0.3,52.3,0.3
			c0.2,0,0.3,0.1,0.3,0.3C408.8,366,408.6,366.1,408.5,366.1z"/>
	</g>
	<g class="st19">
		<path class="st27" d="M440.2,368.4c0,0-11.4-1.2-11.4-1.2c-0.2,0-0.3-0.2-0.3-0.3c0-0.2,0.2-0.3,0.3-0.3l11.3,1.2
			c0.2,0,0.3,0.2,0.3,0.3C440.5,368.3,440.3,368.4,440.2,368.4z"/>
	</g>
	<g class="st19">
		<g>
			<path class="st24" d="M434.9,373c1.1,0.5,49.8,1.8,50.9,0c0.3-0.5,0.6-2.4,0.7-4.7c0.4-5.5,0.4-13.6,0.4-13.6s0.4-2.8,0.3-4.1
				c-0.1-1.3-23.5-0.8-23.5-0.8l-15.1,9.9c0,0-4.3,1.3-8.9,2.1c-2.4,0.4-4,3.3-4.7,6.1C434.4,370.4,434.3,372.7,434.9,373z"/>
		</g>
	</g>
	<g class="st19">
		<path class="st1" d="M461.2,355.6c0,0-5.1-0.1-5.1-0.1c-0.2,0-0.3-0.1-0.3-0.3c0-0.2,0.1-0.3,0.3-0.3l5.1,0.1
			c0.2,0,0.3,0.1,0.3,0.3C461.5,355.5,461.4,355.6,461.2,355.6z"/>
	</g>
	<g class="st19">
		<path class="st1" d="M457.7,358.4c0,0-5.1-0.1-5.1-0.1c-0.2,0-0.3-0.1-0.3-0.3c0-0.2,0.1-0.3,0.3-0.3c0,0,5.1,0.1,5.1,0.1
			c0.2,0,0.3,0.1,0.3,0.3C457.9,358.3,457.8,358.4,457.7,358.4z"/>
	</g>
</g>
</svg>
