<svg xmlns="http://www.w3.org/2000/svg" version="1.1" xmlns:xlink="http://www.w3.org/1999/xlink" xmlns:svgjs="http://svgjs.dev/svgjs" viewBox="0 0 2400 800"><defs><linearGradient x1="50%" y1="0%" x2="50%" y2="100%" id="sssurf-grad"><stop stop-color="hsl(335, 77%, 60%)" stop-opacity="1" offset="0%"></stop><stop stop-color="hsl(335, 77%, 80%)" stop-opacity="1" offset="100%"></stop></linearGradient></defs><g fill="url(#sssurf-grad)" transform="matrix(1,0,0,1,10.8282470703125,225.10079193115234)"><path d="M-10,10C33.75,10.833333333333334,114.58333333333334,22.333333333333336,200,14C285.41666666666663,5.666666666666666,316.66666666666663,-33.333333333333336,400,-30C483.33333333333337,-26.666666666666668,516.6666666666666,28.958333333333332,600,30C683.3333333333334,31.041666666666668,716.6666666666666,-25.208333333333332,800,-25C883.3333333333334,-24.791666666666668,916.6666666666666,28.916666666666668,1000,31C1083.3333333333333,33.083333333333336,1116.6666666666667,-15.833333333333334,1200,-15C1283.3333333333333,-14.166666666666666,1316.6666666666667,36.666666666666664,1400,35C1483.3333333333333,33.333333333333336,1516.6666666666667,-26.333333333333332,1600,-23C1683.3333333333333,-19.666666666666668,1716.6666666666667,49.125,1800,51C1883.3333333333333,52.875,1916.6666666666667,-13.166666666666666,2000,-14C2083.3333333333335,-14.833333333333334,2118.75,42,2200,47C2281.25,52,2296.25,-63.54166666666667,2390,10C2483.75,83.54166666666667,3252.0833333333335,214.58333333333331,2650,400C2047.9166666666665,585.4166666666667,156.25,795.8333333333334,-500,900" transform="matrix(1,0,0,1,0,35)" opacity="0.05"></path><path d="M-10,10C33.75,10.833333333333334,114.58333333333334,22.333333333333336,200,14C285.41666666666663,5.666666666666666,316.66666666666663,-33.333333333333336,400,-30C483.33333333333337,-26.666666666666668,516.6666666666666,28.958333333333332,600,30C683.3333333333334,31.041666666666668,716.6666666666666,-25.208333333333332,800,-25C883.3333333333334,-24.791666666666668,916.6666666666666,28.916666666666668,1000,31C1083.3333333333333,33.083333333333336,1116.6666666666667,-15.833333333333334,1200,-15C1283.3333333333333,-14.166666666666666,1316.6666666666667,36.666666666666664,1400,35C1483.3333333333333,33.333333333333336,1516.6666666666667,-26.333333333333332,1600,-23C1683.3333333333333,-19.666666666666668,1716.6666666666667,49.125,1800,51C1883.3333333333333,52.875,1916.6666666666667,-13.166666666666666,2000,-14C2083.3333333333335,-14.833333333333334,2118.75,42,2200,47C2281.25,52,2296.25,-63.54166666666667,2390,10C2483.75,83.54166666666667,3252.0833333333335,214.58333333333331,2650,400C2047.9166666666665,585.4166666666667,156.25,795.8333333333334,-500,900" transform="matrix(1,0,0,1,0,70)" opacity="0.21"></path><path d="M-10,10C33.75,10.833333333333334,114.58333333333334,22.333333333333336,200,14C285.41666666666663,5.666666666666666,316.66666666666663,-33.333333333333336,400,-30C483.33333333333337,-26.666666666666668,516.6666666666666,28.958333333333332,600,30C683.3333333333334,31.041666666666668,716.6666666666666,-25.208333333333332,800,-25C883.3333333333334,-24.791666666666668,916.6666666666666,28.916666666666668,1000,31C1083.3333333333333,33.083333333333336,1116.6666666666667,-15.833333333333334,1200,-15C1283.3333333333333,-14.166666666666666,1316.6666666666667,36.666666666666664,1400,35C1483.3333333333333,33.333333333333336,1516.6666666666667,-26.333333333333332,1600,-23C1683.3333333333333,-19.666666666666668,1716.6666666666667,49.125,1800,51C1883.3333333333333,52.875,1916.6666666666667,-13.166666666666666,2000,-14C2083.3333333333335,-14.833333333333334,2118.75,42,2200,47C2281.25,52,2296.25,-63.54166666666667,2390,10C2483.75,83.54166666666667,3252.0833333333335,214.58333333333331,2650,400C2047.9166666666665,585.4166666666667,156.25,795.8333333333334,-500,900" transform="matrix(1,0,0,1,0,105)" opacity="0.37"></path><path d="M-10,10C33.75,10.833333333333334,114.58333333333334,22.333333333333336,200,14C285.41666666666663,5.666666666666666,316.66666666666663,-33.333333333333336,400,-30C483.33333333333337,-26.666666666666668,516.6666666666666,28.958333333333332,600,30C683.3333333333334,31.041666666666668,716.6666666666666,-25.208333333333332,800,-25C883.3333333333334,-24.791666666666668,916.6666666666666,28.916666666666668,1000,31C1083.3333333333333,33.083333333333336,1116.6666666666667,-15.833333333333334,1200,-15C1283.3333333333333,-14.166666666666666,1316.6666666666667,36.666666666666664,1400,35C1483.3333333333333,33.333333333333336,1516.6666666666667,-26.333333333333332,1600,-23C1683.3333333333333,-19.666666666666668,1716.6666666666667,49.125,1800,51C1883.3333333333333,52.875,1916.6666666666667,-13.166666666666666,2000,-14C2083.3333333333335,-14.833333333333334,2118.75,42,2200,47C2281.25,52,2296.25,-63.54166666666667,2390,10C2483.75,83.54166666666667,3252.0833333333335,214.58333333333331,2650,400C2047.9166666666665,585.4166666666667,156.25,795.8333333333334,-500,900" transform="matrix(1,0,0,1,0,140)" opacity="0.53"></path><path d="M-10,10C33.75,10.833333333333334,114.58333333333334,22.333333333333336,200,14C285.41666666666663,5.666666666666666,316.66666666666663,-33.333333333333336,400,-30C483.33333333333337,-26.666666666666668,516.6666666666666,28.958333333333332,600,30C683.3333333333334,31.041666666666668,716.6666666666666,-25.208333333333332,800,-25C883.3333333333334,-24.791666666666668,916.6666666666666,28.916666666666668,1000,31C1083.3333333333333,33.083333333333336,1116.6666666666667,-15.833333333333334,1200,-15C1283.3333333333333,-14.166666666666666,1316.6666666666667,36.666666666666664,1400,35C1483.3333333333333,33.333333333333336,1516.6666666666667,-26.333333333333332,1600,-23C1683.3333333333333,-19.666666666666668,1716.6666666666667,49.125,1800,51C1883.3333333333333,52.875,1916.6666666666667,-13.166666666666666,2000,-14C2083.3333333333335,-14.833333333333334,2118.75,42,2200,47C2281.25,52,2296.25,-63.54166666666667,2390,10C2483.75,83.54166666666667,3252.0833333333335,214.58333333333331,2650,400C2047.9166666666665,585.4166666666667,156.25,795.8333333333334,-500,900" transform="matrix(1,0,0,1,0,175)" opacity="0.68"></path><path d="M-10,10C33.75,10.833333333333334,114.58333333333334,22.333333333333336,200,14C285.41666666666663,5.666666666666666,316.66666666666663,-33.333333333333336,400,-30C483.33333333333337,-26.666666666666668,516.6666666666666,28.958333333333332,600,30C683.3333333333334,31.041666666666668,716.6666666666666,-25.208333333333332,800,-25C883.3333333333334,-24.791666666666668,916.6666666666666,28.916666666666668,1000,31C1083.3333333333333,33.083333333333336,1116.6666666666667,-15.833333333333334,1200,-15C1283.3333333333333,-14.166666666666666,1316.6666666666667,36.666666666666664,1400,35C1483.3333333333333,33.333333333333336,1516.6666666666667,-26.333333333333332,1600,-23C1683.3333333333333,-19.666666666666668,1716.6666666666667,49.125,1800,51C1883.3333333333333,52.875,1916.6666666666667,-13.166666666666666,2000,-14C2083.3333333333335,-14.833333333333334,2118.75,42,2200,47C2281.25,52,2296.25,-63.54166666666667,2390,10C2483.75,83.54166666666667,3252.0833333333335,214.58333333333331,2650,400C2047.9166666666665,585.4166666666667,156.25,795.8333333333334,-500,900" transform="matrix(1,0,0,1,0,210)" opacity="0.84"></path><path d="M-10,10C33.75,10.833333333333334,114.58333333333334,22.333333333333336,200,14C285.41666666666663,5.666666666666666,316.66666666666663,-33.333333333333336,400,-30C483.33333333333337,-26.666666666666668,516.6666666666666,28.958333333333332,600,30C683.3333333333334,31.041666666666668,716.6666666666666,-25.208333333333332,800,-25C883.3333333333334,-24.791666666666668,916.6666666666666,28.916666666666668,1000,31C1083.3333333333333,33.083333333333336,1116.6666666666667,-15.833333333333334,1200,-15C1283.3333333333333,-14.166666666666666,1316.6666666666667,36.666666666666664,1400,35C1483.3333333333333,33.333333333333336,1516.6666666666667,-26.333333333333332,1600,-23C1683.3333333333333,-19.666666666666668,1716.6666666666667,49.125,1800,51C1883.3333333333333,52.875,1916.6666666666667,-13.166666666666666,2000,-14C2083.3333333333335,-14.833333333333334,2118.75,42,2200,47C2281.25,52,2296.25,-63.54166666666667,2390,10C2483.75,83.54166666666667,3252.0833333333335,214.58333333333331,2650,400C2047.9166666666665,585.4166666666667,156.25,795.8333333333334,-500,900" transform="matrix(1,0,0,1,0,245)" opacity="1"></path></g></svg>