<?xml version="1.0" encoding="utf-8"?>
<!-- Generator: Adobe Illustrator 19.0.0, SVG Export Plug-In . SVG Version: 6.00 Build 0)  -->
<svg version="1.1" xmlns="http://www.w3.org/2000/svg" xmlns:xlink="http://www.w3.org/1999/xlink" x="0px" y="0px"
	 viewBox="0 0 500 500" style="enable-background:new 0 0 500 500;" xml:space="preserve">
<style type="text/css">
	.st0{opacity:0;}
	.st1{fill:#FBF8F5;}
	.st2{opacity:0.27;fill:#AFCAB7;}
	.st3{opacity:0.22;}
	.st4{fill:#465A94;}
	.st5{fill:#F46136;}
	.st6{opacity:0.32;}
	.st7{fill:#FEBC10;}
	.st8{fill:#211F1C;}
	.st9{fill:#AFCAB7;}
	.st10{opacity:0.32;fill:#FF941E;}
	.st11{opacity:0.32;fill:#465A94;}
	.st12{fill:#1D253D;}
	.st13{fill:#FEA30A;}
	.st14{fill:#FEB12F;}
	.st15{fill:#BF6D3E;}
	.st16{fill:#80410E;}
	.st17{fill:#001E4A;}
	.st18{fill:#A86114;}
	.st19{fill:#A6F3FF;}
	.st20{fill:#47BED1;}
	.st21{fill:#DD4F05;}
	.st22{fill:#7A2923;}
	.st23{fill:#3B1411;}
	.st24{fill:#804E26;}
	.st25{fill:#96432A;}
	.st26{fill:#6C301E;}
	.st27{fill:#FF941E;}
	.st28{fill:#FFC9B9;}
	.st29{fill:#FFFFFF;}
	.st30{fill:#006CB0;}
	.st31{fill:#0081C9;}
	.st32{fill:#FFAB90;}
	.st33{fill:#FFAB91;}
	.st34{fill:#FF8A65;}
	.st35{fill:#3E2410;}
	.st36{fill:#170D05;}
	.st37{opacity:0.37;fill:#170D05;}
</style>
<g id="BACKGROUND">
	<g id="XMLID_1_" class="st0">
		<g>
			<rect id="XMLID_3_" class="st1" width="500" height="500"/>
		</g>
		<path id="XMLID_2_" class="st2" d="M469.4,156.1c-14,26-12,56-21,83c-13,42-61,46-99,48c-6,0-11,5-17,9c-24,18-38,48-69,51
			c-37,4-67-20-89-50c-28-41-44-84-86-111C61,169.1,31,161.9,0,165.3V500h500V118.4C487.4,128.4,476.9,141,469.4,156.1z"/>
		<polygon class="st2" points="310.9,271.4 314.3,274.7 310.9,278.1 312.9,280.1 316.3,276.8 319.7,280.1 321.7,278.1 318.3,274.7 
			321.7,271.4 319.7,269.3 316.3,272.7 312.9,269.3 		"/>
		<g id="XMLID_4_" class="st3">
			<circle class="st4" cx="87.8" cy="13" r="1.6"/>
			<circle class="st4" cx="72" cy="13" r="1.6"/>
			<circle class="st4" cx="72" cy="33.5" r="1.6"/>
			<circle class="st4" cx="56.2" cy="13" r="1.6"/>
			<circle class="st4" cx="56.2" cy="33.5" r="1.6"/>
			<circle class="st4" cx="56.2" cy="54.1" r="1.6"/>
			<circle class="st4" cx="40.5" cy="13" r="1.6"/>
			<circle class="st4" cx="40.5" cy="33.5" r="1.6"/>
			<circle class="st4" cx="40.5" cy="54.1" r="1.6"/>
			<circle class="st4" cx="40.5" cy="74.6" r="1.6"/>
			<circle class="st4" cx="24.7" cy="13" r="1.6"/>
			<circle class="st4" cx="24.7" cy="33.5" r="1.6"/>
			<circle class="st4" cx="24.7" cy="54.1" r="1.6"/>
			<circle class="st4" cx="24.7" cy="74.6" r="1.6"/>
			<circle class="st4" cx="24.7" cy="95.1" r="1.6"/>
			<circle class="st4" cx="8.9" cy="13" r="1.6"/>
			<circle class="st4" cx="8.9" cy="33.5" r="1.6"/>
			<circle class="st4" cx="8.9" cy="54.1" r="1.6"/>
			<circle class="st4" cx="8.9" cy="74.6" r="1.6"/>
			<circle class="st4" cx="8.9" cy="95.1" r="1.6"/>
			<circle class="st4" cx="8.9" cy="115.6" r="1.6"/>
		</g>
		<g id="XMLID_5_">
			<circle class="st5" cx="438.6" cy="483.3" r="0.9"/>
			<circle class="st5" cx="447.3" cy="483.3" r="0.9"/>
			<circle class="st5" cx="447.3" cy="471.9" r="0.9"/>
			<circle class="st5" cx="456" cy="483.3" r="0.9"/>
			<circle class="st5" cx="456" cy="471.9" r="0.9"/>
			<circle class="st5" cx="456" cy="460.6" r="0.9"/>
			<circle class="st5" cx="464.8" cy="483.3" r="0.9"/>
			<circle class="st5" cx="464.8" cy="471.9" r="0.9"/>
			<circle class="st5" cx="464.8" cy="460.6" r="0.9"/>
			<circle class="st5" cx="464.8" cy="449.2" r="0.9"/>
			<circle class="st5" cx="473.5" cy="483.3" r="0.9"/>
			<circle class="st5" cx="473.5" cy="471.9" r="0.9"/>
			<circle class="st5" cx="473.5" cy="460.6" r="0.9"/>
			<circle class="st5" cx="473.5" cy="449.2" r="0.9"/>
			<circle class="st5" cx="473.5" cy="437.9" r="0.9"/>
			<circle class="st5" cx="482.2" cy="483.3" r="0.9"/>
			<circle class="st5" cx="482.2" cy="471.9" r="0.9"/>
			<circle class="st5" cx="482.2" cy="460.6" r="0.9"/>
			<circle class="st5" cx="482.2" cy="449.2" r="0.9"/>
			<circle class="st5" cx="482.2" cy="437.9" r="0.9"/>
			<circle class="st5" cx="482.2" cy="426.5" r="0.9"/>
		</g>
		<g>
			<polygon id="XMLID_7_" class="st1" points="46.1,257.8 37.1,268 45.3,277.3 37.1,286.6 45.3,296 37.1,305.4 46.1,315.6 
				46.1,313.8 38.7,305.4 47,295.9 38.8,286.6 47,277.2 38.8,267.8 46.1,259.5 			"/>
		</g>
		<g id="XMLID_6_" class="st6">
			<circle class="st7" cx="143.6" cy="41.1" r="12.9"/>
			<g>
				<g id="XMLID_9_">
					<path id="XMLID_10_" class="st8" d="M151,22.7c6.7,0,12.1,5.4,12.1,12.1s-5.4,12.1-12.1,12.1c-6.7,0-12.1-5.4-12.1-12.1
						S144.3,22.7,151,22.7 M151,21.9c-7.1,0-12.9,5.8-12.9,12.9c0,7.1,5.8,12.9,12.9,12.9c7.1,0,12.9-5.8,12.9-12.9
						C163.9,27.7,158.1,21.9,151,21.9L151,21.9z"/>
				</g>
			</g>
		</g>
		<g id="XMLID_8_">
			<path id="XMLID_13_" class="st4" d="M472.6,292.3c-2,0-3.6,1.6-3.6,3.6c0,2,1.6,3.6,3.6,3.6c2,0,3.6-1.6,3.6-3.6
				C476.2,293.9,474.6,292.3,472.6,292.3z M472.6,298.3c-1.3,0-2.4-1.1-2.4-2.4c0-1.3,1.1-2.4,2.4-2.4c1.3,0,2.4,1.1,2.4,2.4
				C475,297.2,473.9,298.3,472.6,298.3z"/>
		</g>
		<g id="XMLID_16_" class="st3">
			<polygon id="XMLID_17_" class="st9" points="436.8,121.6 451.8,100.8 464.8,121.6 			"/>
			<g id="XMLID_22_">
				<path id="XMLID_19_" class="st8" d="M461.3,97.8l11.7,18.7h-25.2L461.3,97.8 M461.4,96.4l-15,20.8h28L461.4,96.4L461.4,96.4z"/>
			</g>
		</g>
		<path id="XMLID_23_" class="st10" d="M187.8,402.1c-7.9,0-14.3,6.4-14.3,14.3h28.6C202.1,408.5,195.7,402.1,187.8,402.1z"/>
		<path class="st11" d="M401.3,29.9c4.5,0,8.1,3.6,8.1,8.1h4c0-6.7-5.4-12.1-12.1-12.1c-6.7,0-12.1,5.4-12.1,12.1h4
			C393.2,33.5,396.9,29.9,401.3,29.9z"/>
		<path class="st11" d="M55.8,383.3c0-4.5,3.6-8.1,8.1-8.1v-4c-6.7,0-12.1,5.4-12.1,12.1c0,6.7,5.4,12.1,12.1,12.1v-4
			C59.4,391.4,55.8,387.8,55.8,383.3z"/>
	</g>
</g>
<g id="OBJECTS">
	<g>
		<g id="XMLID_25_">
			<path id="XMLID_26_" class="st12" d="M230.5,96V162h-29c-2.6,0-4.7-2.1-4.7-4.7v-56.6c0-2.6,2.1-4.7,4.7-4.7H230.5z"/>
			<path id="XMLID_29_" class="st13" d="M343.3,127.3c-3,28-18.9,34.7-18.9,34.7h-93.9V96c26.3-5.1,38.9-37.5,36.2-53.8
				c0.5-3.7,0.5-7.1,0-9.9c1.9-5.6,7.4-4.4,7.4-4.4c18.1,2.8,19.1,40.4,19,52.7c0,2.1,1.6,3.9,3.7,4.1c6.9,0.5,22,1.8,35.2,5.3
				c8.7,2.3,12.3,4.5,13.3,9.5C346.5,104.6,344.8,112.9,343.3,127.3z"/>
		</g>
		<g id="XMLID_30_">
			<path id="XMLID_31_" class="st4" d="M230.5,96v55.9h-29c-2.6,0-4.7-2.1-4.7-4.7v-46.6c0-2.6,2.1-4.7,4.7-4.7H230.5z"/>
			<path id="XMLID_34_" class="st14" d="M345.4,99.4c-0.5,4.6-1.3,10.4-2.1,17.8c-3,28-18.9,34.7-18.9,34.7h-93.9c0,0,0-55.9,0-55.9
				c13.1-2.5,23.4-12.2,29.5-23.7c4.5-8.3,5.9-17.6,6.5-26.9c0.3-5.4-1.8-19.5,7.5-17.6c18.1,2.8,19.1,40.4,19,52.7
				c0,2.1,1.6,3.9,3.7,4.1c6.9,0.5,22,1.8,35.2,5.3C340.7,92.2,344.3,94.4,345.4,99.4z"/>
		</g>
		<path class="st15" d="M307.9,162H322l-6.8,7.5v8.1h-10v-7c0-1.6,0.3-3.2,1-4.6L307.9,162z"/>
		<g id="XMLID_35_">
			<path class="st15" d="M307.5,168.4c1.5-0.8,2.6-2.5,2.5-4.2c-0.1-1.7-1.2-3.3-2.8-4c-0.3-2.8-2.8-4.9-5.5-5.4
				c2,4.5,3.2,9.3,3.7,14.2L307.5,168.4z"/>
			<path class="st16" d="M305.2,156.2c1,0.4,1.3,1.5,1.6,2.4c0.1,0.5,0.2,1.1,0.6,1.6c0.4,0.5,1,0.7,1.4,1c1,0.7,1.6,1.6,1.7,2.8
				c0.1,1.3-0.3,2.5-0.8,3.7c-0.1,0.4-0.7,0.1-0.6-0.3c0.4-1.1,0.9-2.3,0.7-3.5c-0.2-1.2-1-2-2-2.5c-0.4-0.2-0.8-0.5-1.1-0.9
				c-0.3-0.4-0.4-0.8-0.5-1.3c-0.2-0.9-0.4-2-1.3-2.4C304.6,156.6,304.9,156.1,305.2,156.2z"/>
		</g>
		<path id="XMLID_36_" class="st15" d="M216.3,162h-14.1l6.8,7.5v8.1h10v-7c0-1.6-0.3-3.2-1-4.6L216.3,162z"/>
		<g id="XMLID_37_">
			<path class="st4" d="M276.4,235.3c8.4-5.5,16.1-12.1,22.8-19.6c2.3-13.3,3.7-27.5,4.7-40.9c4.1-0.4,8.7-0.6,12.9-0.3
				c3.1,18.1,4.3,36.2,3.1,54.5c-11.3,11.2-23.5,23.7-34.8,34.9L276.4,235.3z"/>
			<path class="st12" d="M318.6,220.8c0.7-0.9,1.2-1.9,1.7-2.9c-0.1,3.7-0.2,7.4-0.4,11.2c-11.3,11.2-23.5,23.7-34.8,34.9l-2-6.6
				C295.6,246,308,234.5,318.6,220.8z"/>
			<path class="st12" d="M304.9,181.1c2.9,0.1,5.7,0.1,8.6,0.2c0.4,0,0.4,0.7,0,0.6c-2.9-0.1-5.7-0.1-8.6-0.2
				C304.5,181.8,304.5,181.1,304.9,181.1z"/>
		</g>
		<g id="XMLID_38_">
			<path class="st4" d="M247.6,235.3c-8.4-5.5-16.1-12.1-22.8-19.6c-2.3-13.3-3.7-27.5-4.7-40.9c-4.1-0.4-8.7-0.6-12.9-0.3
				c-3.1,18.1-4.3,36.2-3.1,54.5c11.3,11.2,23.5,23.7,34.8,34.9L247.6,235.3z"/>
			<path class="st12" d="M239.6,254.2c0.2,2.1,0.3,4.3,0.5,6.5l-1,3.3c-11.3-11.2-23.5-23.7-34.8-34.9c-0.3-4.9-0.5-9.7-0.5-14.5
				C210,231.1,224.1,243.8,239.6,254.2z"/>
			<path class="st12" d="M208,181.6c3.8-0.2,7.6-0.4,11.4-0.6c0.4,0,0.4,0.6,0,0.6c-3.8,0.2-7.6,0.4-11.4,0.6
				C207.6,182.3,207.6,181.7,208,181.6z"/>
		</g>
		<g id="XMLID_39_">
			<g id="XMLID_40_">
				<g id="XMLID_41_">
					<path class="st17" d="M234.1,435.3c0,1.6,0,3.1,0,4.6h9.1l0.5-4.6H234.1z"/>
					<path class="st17" d="M279.2,435.3c0,1.6,0,3.1,0,4.6h9.1l0.5-4.6H279.2z"/>
					<path class="st12" d="M289.2,311.1c-24.1,2.7-27.6,16.5-27.6,16.5l9.8,57.6l5.1,52.7h16.2C297.6,372,289.2,311.1,289.2,311.1z"
						/>
					<path class="st4" d="M268.1,326.8c0,0,10.7-6.9,12-12.9l-43.5,1.4c0,0-6.1,77.8-5.9,120h16.6L268.1,326.8z"/>
					<path class="st4" d="M266.8,333.2l-19.6,104.7h-16.6c-0.1-31.4,3.2-85.1,4.9-109.2C245.7,332,256.2,333.6,266.8,333.2z"/>
					<path class="st12" d="M235.5,328.7c0.6-8.3,1-13.4,1-13.4l43.5-1.4c-1.3,6-12,12.9-12,12.9l-1.2,6.4
						C256.2,333.6,245.7,332,235.5,328.7z"/>
					<path class="st12" d="M276.4,319.9c2.1-2.1,4-4.6,4.5-6.9l-40.7-1.9c0,0-0.3,4.4-0.5,6.2C251.8,320.1,264.2,321.2,276.4,319.9z
						"/>
				</g>
				<g id="XMLID_42_">
					<path class="st17" d="M243.8,439.2l-10.7-0.3c-3,3.1-5.1,7-6.1,11.1h19.3C245.8,446.4,245.1,442.7,243.8,439.2z"/>
					<path class="st18" d="M227,450.1c-0.1,0.4-0.2,0.8-0.3,1.2c-0.1,0.6,0.3,1.2,1,1.2h17.7c0.6,0,1.1-0.5,1-1.1
						c0-0.4-0.1-0.9-0.1-1.3H227z"/>
				</g>
				<g id="XMLID_45_">
					<path class="st17" d="M278.7,439.2l10.7-0.3c3,3.1,20.9,7,21.9,11.1h-35C276.6,446.4,277.4,442.7,278.7,439.2z"/>
					<path class="st18" d="M311.2,450.1c0.1,0.4,0.2,0.8,0.3,1.2c0.1,0.6-0.3,1.2-1,1.2h-33.4c-0.6,0-1.1-0.5-1-1.1
						c0-0.4,0.1-0.9,0.1-1.3H311.2z"/>
				</g>
			</g>
			<path class="st12" d="M242.6,389.4c-1.3-2.3-2.7-4.5-3.8-6.9c-1.1-2.4-1.9-4.9-2.7-7.5c-0.1-0.3-0.5-0.2-0.5,0.1
				c0.5,2.6,1.4,5.2,2.5,7.6c1.1,2.4,2.3,4.9,4,7C242.3,390,242.7,389.7,242.6,389.4z"/>
			<path class="st12" d="M233.3,433.8h10.6c0.4,0,0.4,0.6,0,0.6h-10.6C232.9,434.4,232.9,433.8,233.3,433.8z"/>
		</g>
		<g id="XMLID_47_">
			<path class="st19" d="M284.9,243.1c-0.1-2.8-2.1-5.3-5-6.3c-6.2-2.3-13.2-2.9-19.9-2.5c-6.2,0.4-12.3,1.7-18.3,3.5
				c-3.9,1.1-6.3,4.6-5.7,8.2c3.6,21.3,4.8,43.2,3.4,64.8c16,4.6,31.9,6,47,0.7C286.8,289.4,285.9,265.2,284.9,243.1z"/>
			<path class="st20" d="M262.4,240.4c-1.7,0.9-3.4,2-4.9,3.2c-0.6-1.2-1.2-2.4-1.9-3.6c-0.3-0.7-0.7-1.3-1-2
				c-0.3-0.6-0.6-1.4-1.1-1.9c-0.2-0.2-0.6,0-0.5,0.3c0.2,0.7,0.6,1.3,0.9,2c0.3,0.7,0.7,1.4,1,2.1c0.7,1.4,1.4,2.7,2,4.1
				c0.1,0.3,0.4,0.2,0.6,0.1c1.6-1.3,3.3-2.5,5.1-3.5C263.2,240.8,262.8,240.2,262.4,240.4z"/>
			<path class="st20" d="M268.7,240.4c0-0.6,0-1.2,0-1.7c0-0.5,0.1-1.2-0.1-1.7c-0.1-0.2-0.4-0.2-0.5,0c-0.2,0.4-0.1,1.1-0.1,1.6
				c0,0.6,0,1.2,0,1.8c0,1,0.1,1.9,0.2,2.9c-0.8-0.5-1.6-0.9-2.4-1.4c-0.5-0.3-1-0.5-1.5-0.8c-0.5-0.3-1-0.6-1.5-0.7
				c-0.2,0-0.3,0.2-0.2,0.3c0.4,0.4,0.9,0.7,1.4,1c0.5,0.3,1,0.6,1.5,0.9c1,0.6,2,1.1,3,1.7c0.2,0.1,0.6,0,0.5-0.3
				C268.8,242.8,268.8,241.6,268.7,240.4z"/>
			<polygon class="st21" points="262.6,240.8 260.3,242.6 261.5,244.3 261.3,304.7 265.8,307 269.6,304.7 264.3,244.7 265,242.3 			
				"/>
			<path class="st4" d="M234.6,250.2c-0.8-5.2,1.3-10.7,5.5-12.2c3.1-1.1,7-2.2,10.5-2.4c2.8,11.7,14.4,35.7,14.4,35.7
				s9-27.4,3.7-36.9c3.4-0.2,9.8,0.8,13.2,2.5c3.2,1.6,5.2,6.9,5.4,10.9c1.5,25.2,6.2,51.3,8.2,76.8c-2.5,1.1-5.7,1.2-8.3,1.4
				c-4.3,0.4-8.6,0.6-13,0.7c-14,0.5-27.9,0.1-41.1-5C235,297.9,238.1,274.1,234.6,250.2z"/>
			<path class="st12" d="M239.6,254.2c2,22.7,0.1,45.9-4.3,68.4c-0.7-0.3-1.5-0.5-2.2-0.8c1.9-23.7,5-47.4,1.6-71.1
				C236.3,251.9,237.9,253,239.6,254.2z"/>
			<g id="XMLID_49_">
				<path class="st12" d="M273.1,255.6l4.8-1.6c0.4-0.1,0.8-0.3,1.2-0.4c0.3-0.1,0.7-0.2,1.1-0.4c0.7-0.4,0.4-1.2,0.2-1.8
					c-1.1-3.2-2.1-6.4-3.2-9.6c-0.1-0.4,0.5-0.6,0.6-0.2c0.9,2.7,1.8,5.5,2.7,8.2c0.2,0.6,0.5,1.3,0.6,1.9c0.1,0.5,0.2,1,0,1.5
					c-0.2,0.5-0.7,0.7-1.1,0.8c-0.7,0.2-1.3,0.5-2,0.7c-1.5,0.5-3.1,1.1-4.6,1.6C272.9,256.3,272.7,255.7,273.1,255.6z"/>
				<path class="st12" d="M273.5,255.7c1.8,1.9,3.6,3.7,5.4,5.6c0.3,0.3-0.1,0.8-0.4,0.5c-1.8-1.9-3.6-3.7-5.4-5.6
					C272.8,255.9,273.2,255.4,273.5,255.7z"/>
				<path class="st12" d="M266.3,276.6c4.1-5.1,8.1-10.2,12.2-15.3c0.3-0.3,0.7,0.1,0.5,0.4c-4.1,5.1-8.1,10.2-12.2,15.3
					C266.5,277.3,266,276.9,266.3,276.6z"/>
			</g>
			<g id="XMLID_54_">
				<path class="st12" d="M253.5,256.7l-4.9-1c-0.4-0.1-0.8-0.2-1.2-0.2c-0.4-0.1-0.8-0.1-1.1-0.2c-0.7-0.3-0.6-1.1-0.5-1.7
					c0.6-3.3,1.2-6.7,1.8-10c0.1-0.4-0.6-0.5-0.6-0.1c-0.5,2.8-1,5.7-1.5,8.5c-0.1,0.7-0.3,1.3-0.3,2c-0.1,0.5,0,1,0.2,1.4
					c0.3,0.4,0.8,0.6,1.2,0.7c0.7,0.1,1.4,0.3,2.1,0.4c1.6,0.3,3.2,0.6,4.8,0.9C253.8,257.4,253.9,256.8,253.5,256.7z"/>
				<path class="st12" d="M253.2,256.9c-1.5,2.1-3,4.2-4.5,6.3c-0.2,0.3,0.3,0.7,0.5,0.4c1.5-2.1,3-4.2,4.5-6.3
					C253.9,257,253.4,256.6,253.2,256.9z"/>
				<path class="st12" d="M263.2,276.5c-4.7-4.5-9.5-9-14.2-13.4c-0.3-0.3-0.7,0.2-0.4,0.5c4.7,4.5,9.5,9,14.2,13.4
					C263.1,277.3,263.5,276.8,263.2,276.5z"/>
			</g>
			<path class="st12" d="M265.3,272.3c0.5,7.2,0.8,14.4,1.1,21.6c0.3,7.2,0.4,14.4,0.5,21.6c0,4.1,0,8.1,0,12.2c0,0.4-0.6,0.4-0.6,0
				c0.1-7.2,0-14.4-0.1-21.6c-0.1-7.2-0.4-14.4-0.7-21.6c-0.2-4-0.4-8.1-0.7-12.1C264.6,271.9,265.2,271.9,265.3,272.3z"/>
			<path class="st12" d="M276.4,305c3.8,1.1,7.8,0.9,11.5-0.5c0.4-0.1,0.6,0.5,0.2,0.6c-3.8,1.4-8,1.6-11.8,0.5
				C275.9,305.5,276,304.9,276.4,305z"/>
			<path class="st12" d="M241.9,305.8c3.8,1.1,7.8,0.9,11.5-0.5c0.4-0.1,0.6,0.5,0.2,0.6c-3.8,1.4-8,1.6-11.8,0.5
				C241.3,306.3,241.5,305.7,241.9,305.8z"/>
		</g>
		<g id="XMLID_55_">
			<path class="st22" d="M274,214.1c1.1-3.9,0.9-8.2-0.8-11.9c0.2-0.9,0-2-0.4-2.8c-0.5-0.8-1.2-1.5-2-1.9c-1.1-0.6-2.4-0.9-3.6-0.5
				c-1.2,0.4-2.2,1.5-2.3,2.7c-0.9-0.6-1.7-1.1-2.7-1.5c-1-0.4-2.2-0.5-3.2-0.2c-1,0.3-2,1.1-2.3,2.1c-0.3,1,0.2,2.3,1.2,2.8
				c-0.8-1-2.6-1.2-3.8-0.7c-1.2,0.5-2,1.6-2.5,2.7c-0.4,0.9-0.6,2-0.4,2.9c0.2,1,0.8,1.9,1.7,2.3c-1.7,0.9-2.3,3-1.9,4.8
				c0.4,1.9,1.5,3.5,2.8,5c1.3,1.5,2.6,2.9,3.5,4.6L274,214.1z"/>
			<path class="st23" d="M273.5,214.5c1-3.8,0.8-7.9-0.7-11.5c0.2-0.9,0-1.9-0.4-2.7c-0.4-0.8-1.1-1.4-1.8-1.8
				c-1-0.6-2.2-0.9-3.2-0.5c-1.1,0.3-2,1.4-2,2.6c-0.8-0.5-1.5-1.1-2.4-1.4c-0.9-0.3-1.9-0.5-2.8-0.2c-0.9,0.3-1.8,1-2,2.1
				c-0.3,1,0.2,2.2,1,2.6c-0.7-0.9-2.4-1.1-3.4-0.6c-1,0.5-1.8,1.5-2.2,2.6c-0.3,0.9-0.5,1.9-0.4,2.8c0.2,0.9,0.7,1.9,1.5,2.3
				c-1.5,0.8-2,2.8-1.7,4.7c0.3,1.8,1.4,3.4,2.5,4.8c1.1,1.4,2.3,2.7,3.1,4.4L273.5,214.5z"/>
			<g id="XMLID_56_">
				<g id="XMLID_57_">
					<g id="XMLID_58_">
						<g id="XMLID_59_">
							<path class="st15" d="M255.7,219.5c0.4,5.2,0.3,10.4-0.4,15.6c-0.1,1,0.3,2.1,1.2,2.7c2.4,1.7,5.4,2.4,8.3,2
								c1.5-0.2,2.5-1.6,2.3-3c-0.3-3.4-0.4-6.5-0.3-10C264,223.1,260.1,220.9,255.7,219.5z"/>
							<path class="st16" d="M266.9,226.7c-2.8-3.6-6.8-5.8-11.2-7.2c0.1,1.4,0.2,2.7,0.2,4.1c1.7,5.8,6.2,9.4,11.1,10.8
								C266.9,231.8,266.8,229.4,266.9,226.7z"/>
						</g>
						<g id="XMLID_60_">
							<path class="st15" d="M274.1,211c1,7.2-0.5,19.7-6,20.2c-6.4,0.7-10.4-5.1-11.8-10.3c0,0.1-0.6,0.4-1.2,0.4
								c-0.6,0-1.4-0.8-1.8-1.3c-0.7-1-1.3-2.5-0.6-3.6c0.8-1.3,2.7-1.6,3.5,0c-0.1-2.6,0.8-5.1,1.7-7.5c0.3-0.8,0.9-1.5,1.7-1.7
								c3.7-1.3,8.3-1.4,12.1-0.2c0.9,0.3,1.7,1,1.9,2C273.8,209.6,274,210.4,274.1,211z"/>
							<path class="st23" d="M266.3,211.5c-1.2-1.5-4.4-0.5-5.6,0.5c-0.2,0.2-0.5,0.4-0.5,0.7c0,0.2,0.1,0.3,0.3,0.3
								c0.4,0.1,0.7-0.2,1-0.4c0.4-0.2,0.8-0.4,1.3-0.5c0.5-0.1,1.1-0.2,1.7-0.1c0.5,0.1,1,0.3,1.6,0.2
								C266.5,212.3,266.5,211.7,266.3,211.5z"/>
							<path class="st23" d="M264.6,214.1c0-0.1-0.1-0.2-0.1-0.2c-0.1-0.1-0.1-0.1-0.2-0.1c-0.1,0-0.2-0.1-0.3-0.1
								c-0.1,0-0.1,0-0.2,0c-0.1,0-0.2,0.1-0.3,0.2c0,0-0.1,0.1-0.1,0.1c-0.1,0.1-0.1,0.2-0.1,0.4v0.1c0,0.1,0,0.2,0.1,0.3
								c0,0.1,0.1,0.2,0.1,0.2c0.1,0.1,0.1,0.1,0.2,0.1c0.1,0,0.2,0.1,0.3,0.1l0.2,0c0.1,0,0.2-0.1,0.3-0.2c0,0,0.1-0.1,0.1-0.1
								c0.1-0.1,0.1-0.2,0.1-0.4v-0.1C264.7,214.3,264.7,214.2,264.6,214.1z"/>
							<path class="st23" d="M272.4,214.5c0-0.1-0.1-0.2-0.1-0.2c-0.1-0.1-0.1-0.1-0.2-0.1c-0.1,0-0.2-0.1-0.3-0.1
								c-0.1,0-0.1,0-0.2,0c-0.1,0-0.2,0.1-0.3,0.2c0,0-0.1,0.1-0.1,0.1c-0.1,0.1-0.1,0.2-0.1,0.4v0.1c0,0.1,0,0.2,0.1,0.3
								c0,0.1,0.1,0.2,0.1,0.2c0.1,0.1,0.1,0.1,0.2,0.1c0.1,0,0.2,0.1,0.3,0.1l0.2,0c0.1,0,0.2-0.1,0.3-0.2c0,0,0.1-0.1,0.1-0.1
								c0.1-0.1,0.1-0.2,0.1-0.4v-0.1C272.5,214.7,272.5,214.6,272.4,214.5z"/>
							<path class="st23" d="M273.8,212.5c-0.3-0.5-0.9-0.8-1.4-1c-0.6-0.1-1.1-0.2-1.7,0c-0.3,0.1-0.4,0.3-0.4,0.6
								c0.1,0.4,0.4,0.4,0.8,0.5c0.5,0,0.9,0.1,1.3,0.2c0.3,0.1,1.8,0.9,1.5-0.1C273.9,212.6,273.9,212.6,273.8,212.5z"/>
							<path class="st24" d="M267.2,226.7c-0.2-0.1-0.5,0-0.7,0c-0.2,0-0.4,0-0.6,0c-0.2,0-0.4-0.1-0.6-0.1
								c-0.2-0.1-0.4-0.2-0.7-0.1c-0.3,0-0.3,0.3-0.2,0.5c0.2,0.2,0.4,0.3,0.7,0.4c0.2,0.1,0.5,0.1,0.7,0.2c0.2,0,0.5,0.1,0.7,0.1
								c0.3,0,0.6,0,0.8-0.1C267.5,227.2,267.5,226.8,267.2,226.7z"/>
							<path class="st24" d="M255.6,219.1c-0.2,0.1-0.5,0-0.6-0.3c0-0.1,0-0.2,0.1-0.3c0.1-0.1,0.2-0.2,0.3-0.2
								c0.2,0,0.3-0.2,0.3-0.4c-0.2-0.8-0.8-1.5-1.7-1.5c-0.4,0-0.7,0.3-0.9,0.6c-0.1,0.2-0.1,0.4,0,0.5c0,0.1,0.2,0.4,0.3,0.2
								c0.1-0.1,0.1-0.2,0.1-0.3c0-0.1,0.1-0.2,0.1-0.3c0.1-0.2,0.4-0.3,0.6-0.2c0.4,0,0.7,0.4,0.9,0.8c-0.4,0.2-0.7,0.6-0.5,1.1
								c0.1,0.5,0.7,0.8,1.2,0.7C256,219.5,255.9,219,255.6,219.1z"/>
						</g>
					</g>
					<path class="st16" d="M270.6,218.2c-0.3-0.3-0.7-0.5-1.1-0.8c-0.4-0.3-0.6-0.6-0.5-1.1c0-0.3-0.4-0.4-0.6-0.2
						c-0.5,0.7,0.2,1.5,0.7,1.9c0.3,0.2,0.7,0.4,1,0.7c0.3,0.3,0.4,0.6,0.5,0.9c0.2,0.7,0.1,1.5-0.4,2c-0.5,0.6-1.2,0.8-1.9,1
						c-0.2,0.1-0.2,0.4,0,0.5c0.8,0.2,1.6-0.2,2.2-0.7c0.6-0.5,1-1.3,0.9-2.1C271.5,219.5,271.2,218.7,270.6,218.2z"/>
				</g>
				<path class="st23" d="M268.2,225.2c-2.3,0.7-4.8-0.2-6.1-2.2c-0.2-0.3,0.3-0.7,0.5-0.3c1.2,1.8,3.4,2.6,5.4,2
					C268.4,224.5,268.6,225.1,268.2,225.2z"/>
			</g>
		</g>
		<path class="st12" d="M287.4,247c0.5,9.6,1.4,19.2,2.6,28.7c0.3,2.7,0.7,5.3,1.1,8c0.1,0.4-0.6,0.4-0.6,0
			c-1.5-9.5-2.5-19.1-3.2-28.6c-0.2-2.7-0.4-5.4-0.5-8.1C286.8,246.6,287.4,246.5,287.4,247z"/>
		<g id="XMLID_61_">
			<path id="XMLID_62_" class="st15" d="M216.7,168.4c-1.5-0.8-2.6-2.5-2.5-4.2c0.1-1.7,1.2-3.3,2.8-4c0.3-2.8,2.8-4.9,5.5-5.4
				c-2,4.5-3.2,9.3-3.7,14.2L216.7,168.4z"/>
			<path id="XMLID_63_" class="st16" d="M218.9,156.2c-1,0.4-1.3,1.5-1.6,2.4c-0.1,0.5-0.2,1.1-0.6,1.6c-0.4,0.5-1,0.7-1.4,1
				c-1,0.7-1.6,1.6-1.7,2.8c-0.1,1.3,0.3,2.5,0.8,3.7c0.1,0.4,0.7,0.1,0.6-0.3c-0.4-1.1-0.9-2.3-0.7-3.5c0.2-1.2,1-2,2-2.5
				c0.4-0.2,0.8-0.5,1.1-0.9c0.3-0.4,0.4-0.8,0.5-1.3c0.2-0.9,0.4-2,1.3-2.4C219.6,156.6,219.3,156.1,218.9,156.2z"/>
		</g>
	</g>
	<g id="XMLID_24_">
		<path id="XMLID_64_" class="st25" d="M379.6,211.3c4.6,1.3,8.3,5.4,9,10.2c0.2,1.1,0.2,2.3,0.8,3.2c0.7,1,1.9,1.6,2.2,2.7
			c0.3,1.2-0.7,2.6-0.1,3.7c0.6,1.1,2.4,1.1,3,2.3c0.6,1.3-0.8,2.8-0.2,4.1c0.5,1.2,2.2,1.1,3.3,1.8c1,0.6,1.5,1.8,1.5,3
			c0,1.2-0.5,2.3-1,3.4c-3.2,6.3-9.6,10.5-16.5,11.9c-6.9,1.4-14.1,0.2-20.5-2.5c-1.5-0.6-3.1-1.4-4.1-2.7c-1-1.3-1.4-3.3-0.4-4.6
			c0.4-0.5,0.9-0.9,1.2-1.5c0.9-2-2-4-1.6-6.2c0.2-1.2,1.4-1.9,2.4-2.6c1-0.7,2-1.7,1.7-2.9c-0.1-0.6-0.5-1.1-0.7-1.6
			c-0.4-1.5,1.2-2.6,2.2-3.8c1.7-2.1,1.8-5,2.2-7.7C364.8,213.9,372.3,209.2,379.6,211.3z"/>
		<path id="XMLID_65_" class="st26" d="M379.5,213.9c4.3,1.2,7.8,5.1,8.5,9.6c0.2,1,0.2,2.1,0.8,3c0.6,0.9,1.8,1.5,2.1,2.5
			c0.3,1.1-0.7,2.4-0.1,3.5c0.6,1.1,2.3,1.1,2.8,2.1c0.6,1.2-0.7,2.7-0.2,3.9c0.5,1.1,2.1,1.1,3.1,1.7c1,0.6,1.4,1.7,1.4,2.9
			c0,1.1-0.4,2.2-0.9,3.2c-3,5.9-9,9.9-15.5,11.2c-6.5,1.3-13.3,0.2-19.4-2.4c-1.4-0.6-2.9-1.3-3.9-2.6c-1-1.2-1.3-3.1-0.4-4.4
			c0.4-0.5,0.9-0.8,1.1-1.4c0.9-1.9-1.9-3.8-1.5-5.8c0.2-1.1,1.3-1.8,2.2-2.4c0.9-0.6,1.9-1.6,1.6-2.7c-0.1-0.5-0.5-1-0.6-1.5
			c-0.3-1.4,1.1-2.5,2.1-3.6c1.6-2,1.7-4.7,2.1-7.3C365.5,216.4,372.6,212,379.5,213.9z"/>
		<g id="XMLID_66_">
			<path id="XMLID_67_" class="st27" d="M422.5,229.6c0-0.8-0.5-1.6-1.2-2c-0.7-0.4-1.5-0.6-2.3-0.8c-2.4-0.4-4.8-0.7-7.2-0.7
				c-1.2,0-2.3,0.9-2.6,2.1c-0.1,0.6-0.2,1.2-0.3,1.8c-1.6,1.1-1.6,3.6-1.3,5.6c-3.8,3.4-10,8.1-14.9,9.3
				c-4.9,1.2-10.2,3.3-12.5,7.8c-1.6,3.1-1.6,6.8-1.4,10.3c0.1,2.6,0.4,5.4,3.7,6.3c1.1,0.3,2.2,0.2,3.2,0
				c6.9-1.3,11.3-7.3,17.2-10.9c5.7-3.4,11.5-7.1,15.4-12.5C422.2,240.5,426.1,235.2,422.5,229.6z"/>
			<path id="XMLID_68_" class="st27" d="M423.1,238.3c1.1-2.8,1.3-5.7-0.6-8.6c0-0.8-0.5-1.6-1.2-2c-0.7-0.4-1.5-0.6-2.3-0.8
				c-2.4-0.4-4.8-0.7-7.2-0.7c-1.2,0-2.3,0.9-2.6,2.1c-0.1,0.6-0.2,1.2-0.3,1.8c-1.6,1.1-1.6,3.6-1.3,5.6c-3.8,3.4-10,8.1-14.9,9.3
				c-4.9,1.2-10.2,3.3-12.5,7.8c-1.6,3.1-1.6,6.8-1.4,10.3c0,0.6,0.1,1.2,0.1,1.7C395.1,259.5,411.6,251.1,423.1,238.3z"/>
			<path id="XMLID_69_" class="st18" d="M379,264.8c0.3,2,1,3.9,3.6,4.5c1.1,0.3,2.2,0.2,3.2,0c6.9-1.3,11.3-7.3,17.2-10.9
				c5.7-3.4,11.5-7.1,15.4-12.5c1.8-2.6,3.6-5.1,4.7-7.7C411.6,251.1,395.1,259.5,379,264.8z"/>
			<path class="st28" d="M410.5,205.2l-0.6,22.5c0,1.7,1.2,3.1,2.9,3.2c1.3,0.1,3-0.1,4.8-0.9c1.2-0.6,1.9-1.9,1.7-3.3l-3.3-21.9
				C416,204.7,413.1,204.5,410.5,205.2z"/>
			<path id="XMLID_70_" class="st18" d="M415.2,240.5c-2.6-0.4-4.9-1.9-6.4-4c-0.2-0.3-0.7,0.1-0.5,0.4c1.6,2.3,4.1,3.8,6.9,4.2
				C415.6,241.2,415.6,240.5,415.2,240.5z"/>
			<path id="XMLID_71_" class="st18" d="M416.9,232.6c-2,0-3.9-0.5-5.6-1.5c-0.4-0.2-0.7,0.3-0.3,0.5c1.8,1.1,3.8,1.6,5.9,1.6
				C417.2,233.3,417.3,232.6,416.9,232.6z"/>
		</g>
		<path id="XMLID_72_" class="st27" d="M377.1,242.9c-4.3-1.1-8.9-0.9-13.1,0.7c-1.9,0.8-4,2.2-3.9,4.3c0.1,1.8,1.7,3.1,3.3,3.9
			c5.9,3.2,12.9,4.1,19.4,2.6c3.2-0.7,6.3-3.3,3.5-6.4C383.9,245.5,380.4,243.8,377.1,242.9z"/>
		<path id="XMLID_73_" class="st27" d="M363.3,250.7c-4.6,0.7-8.3,4.5-11,8.6c-2.7,4.1-4.7,8.7-7.6,12.6c-2.4,3.2-5.5,5.8-7.6,9.2
			c-2.2,3.4-3.4,8-1.6,11.7c1.7,3.5,5.6,5.1,9.2,5.1c2.6,0,5.5-0.7,7.2-2.9c1.3-1.6,1.8-3.8,1.7-6c0-0.4-0.1-0.9-0.1-1.3
			c-0.3-2.5,0.6-4.9,2.3-6.6c0.5-0.5,1-1.1,1.4-1.7c3-4.1,5.7-8.6,7.1-13.6C365.7,260.8,365.8,255.2,363.3,250.7z"/>
		<path id="XMLID_74_" class="st27" d="M363.9,267.1c0.1-0.4,0.3-0.9,0.4-1.3c1.4-5,1.5-10.6-1-15.1c-4.6,0.7-8.3,4.5-11,8.6
			c-2.7,4.1-4.7,8.7-7.6,12.6c-2.4,3.2-5.5,5.8-7.6,9.2c-2.2,3.4-3.4,8-1.6,11.7c1.7,3.5,5.6,5.1,9.2,5.1c2.6,0,5.5-0.7,7.2-2.9
			c1.3-1.6,1.8-3.8,1.7-6c0-0.4-0.1-0.9-0.1-1.3c0-0.1,0-0.2,0-0.3c-0.9-1.9-1.9-3.6-3.2-5.4C355.4,277.8,360.3,272.8,363.9,267.1z"
			/>
		<path id="XMLID_75_" class="st18" d="M350.2,282c1.3,1.7,2.3,3.5,3.2,5.4c-0.2-2.4,0.7-4.7,2.3-6.3c0.5-0.5,1-1.1,1.4-1.7
			c2.7-3.8,5.2-7.8,6.7-12.3C360.3,272.8,355.4,277.8,350.2,282z"/>
		<path id="XMLID_76_" class="st12" d="M383.1,322.7c2.5-3,4.5-6.1,4.9-8.3l-33-6.1c-1,2.7-2.6,5.4-3.4,8.2
			C361.6,320.2,372.7,322.8,383.1,322.7z"/>
		<g id="XMLID_77_">
			<g id="XMLID_78_">
				<path class="st29" d="M378.3,444l6.9-0.2c1.9,2,13.4,4.5,14.1,7.2h-22.5C377,448.6,377.5,446.2,378.3,444z"/>
				<path class="st4" d="M399.3,451c0.1,0.3,0.1,0.5,0.2,0.8c0.1,0.4-0.2,0.8-0.6,0.8h-21.5c-0.4,0-0.7-0.3-0.7-0.7
					c0-0.3,0.1-0.6,0.1-0.9H399.3z"/>
			</g>
			<path id="XMLID_79_" class="st12" d="M395.1,312.2c-9.9,3.7-14.6,2.3-25,2.1c-0.9,5.9,2.7,18.5,2.7,18.5l0.4,9.2h25.5
				C398.7,331.6,397.7,321.1,395.1,312.2z"/>
			<path id="XMLID_80_" class="st30" d="M373.3,342l0.3,4.4l24.9,0.3c0.2-1.5,0.3-3.1,0.3-4.7H373.3z"/>
			<g id="XMLID_81_">
				<path class="st29" d="M367.6,444l-6.9-0.2c-1.9,2-5.1,4.5-5.7,7.2h14.2C368.9,448.6,368.4,446.2,367.6,444z"/>
				<path class="st4" d="M355,451c-0.1,0.3-0.1,0.5-0.2,0.8c-0.1,0.4,0.2,0.8,0.6,0.8h13.1c0.4,0,0.7-0.3,0.7-0.7
					c0-0.3-0.1-0.6-0.1-0.9H355z"/>
			</g>
			<path id="XMLID_82_" class="st4" d="M373.3,332.8c0,0,5.5-4.9,9.8-10.1c-10.4,0.1-21.6-2.5-31.5-6.2c-2.4,8.3-3.6,16.9-3.9,25.6
				h25.2L373.3,332.8z"/>
			<path id="XMLID_83_" class="st31" d="M347.7,342c-0.2,1.5-0.2,3.1,0,4.7h25.2V342H347.7z"/>
		</g>
		<path id="XMLID_84_" class="st27" d="M392.4,289.7c0-12.2,1.3-22.2,1.8-34.4c0.1-1.3-0.4-2.9-1.5-3.5c-17.5-8.9-30.4-1.7-33.2,0.4
			c-1.5,1.1-2.1,3-1.5,4.7c3.2,10.1,2.9,19.5,1.2,30c-1.3,8.2-10.1,17.8-7.9,28.4c14.1,6.3,30.9,5.7,46.4,2.7
			C401.7,310.7,392.4,296.4,392.4,289.7z"/>
		<g id="XMLID_85_">
			<path class="st28" d="M371.8,232.3c0.6,5.1,0.9,10.2,0.9,15.3c0,1,0.4,2,1,2.6c1.7,1.5,3.8,2.1,5.7,1.5c1-0.3,1.5-1.6,1.4-3.1
				c-0.4-3.3-0.7-6.4-0.9-9.8C377.6,235.4,374.8,233.4,371.8,232.3z"/>
			<path class="st32" d="M379.7,238.8c-2.2-3.4-5-5.4-8-6.5c0.2,1.3,0.3,2.7,0.4,4c2.1,4.1,5,8.2,8.2,10
				C380.1,243.9,379.9,241.4,379.7,238.8z"/>
		</g>
		<path id="XMLID_86_" class="st18" d="M392.1,316.3c-4.7,1.3-9.5,2.1-14.4,2.3c-4.9,0.1-9.7-0.3-14.5-1.3c-2.7-0.6-5.3-1.4-7.9-2.3
			c-0.4-0.1-0.6,0.5-0.2,0.6c4.6,1.7,9.4,2.8,14.3,3.4c4.9,0.5,9.9,0.5,14.7-0.2c2.7-0.4,5.5-1,8.1-1.7
			C392.6,316.8,392.5,316.2,392.1,316.3z"/>
		<g id="XMLID_87_">
			<g id="XMLID_88_">
				<path class="st28" d="M385.4,222.8c1.8,7.9-0.3,17.1-2.3,17.4c-6.9,1.1-11.5-5.4-11.5-5.5c0,0.1-1,0.6-1.6,0.8
					c-0.6,0.1-1.6-0.4-2-0.8c-0.9-0.8-1.8-2.1-1.4-3.3c0.5-1.5,2.7-2.2,3.9-0.9c2.1-4.1,0.3-6.2,0.2-9.2c3.4-2.7,7.9-3.8,12.3-3.5
					C383.5,217.8,385.2,222.1,385.4,222.8z"/>
				<path class="st23" d="M377.4,226.3c0-0.1-0.1-0.1-0.2-0.2c-0.1-0.1-0.2-0.1-0.3-0.1c-0.1,0-0.2,0-0.3,0c-0.1,0-0.1,0-0.2,0.1
					c-0.1,0.1-0.2,0.1-0.3,0.2c0,0.1,0,0.1-0.1,0.2c0,0.1,0,0.2,0,0.4l0,0.1c0,0.1,0.1,0.2,0.1,0.2c0,0.1,0.1,0.1,0.2,0.2
					c0.1,0.1,0.2,0.1,0.3,0.1c0.1,0,0.2,0,0.3,0l0.2-0.1c0.1-0.1,0.2-0.1,0.3-0.2c0-0.1,0-0.1,0.1-0.2c0-0.1,0-0.2,0-0.4l0-0.1
					C377.5,226.5,377.4,226.4,377.4,226.3z"/>
				<path class="st23" d="M384.1,225.1c0-0.1-0.1-0.1-0.2-0.2c-0.1-0.1-0.2-0.1-0.3-0.1c-0.1,0-0.2,0-0.3,0c-0.1,0-0.1,0-0.2,0.1
					c-0.1,0.1-0.2,0.1-0.3,0.2c0,0.1,0,0.1-0.1,0.2c0,0.1,0,0.2,0,0.4l0,0.1c0,0.1,0.1,0.2,0.1,0.2c0,0.1,0.1,0.1,0.2,0.2
					c0.1,0.1,0.2,0.1,0.3,0.1c0.1,0,0.2,0,0.3,0l0.2-0.1c0.1-0.1,0.2-0.1,0.3-0.2c0-0.1,0-0.1,0.1-0.2c0-0.1,0-0.2,0-0.4l0-0.1
					C384.2,225.3,384.2,225.2,384.1,225.1z"/>
				<path class="st32" d="M369.9,233.2c-0.2,0.1-0.5,0.1-0.6-0.1c-0.1-0.1,0-0.2,0-0.4c0.1-0.1,0.2-0.2,0.3-0.2
					c0.2,0,0.3-0.2,0.2-0.4c-0.4-0.7-1.1-1.3-2-1c-0.4,0.1-0.7,0.4-0.7,0.8c0,0.2,0,0.4,0.1,0.5c0,0.1,0.2,0.3,0.3,0.2
					c0.1-0.1,0-0.2,0-0.3c0-0.1,0-0.2,0.1-0.3c0.1-0.2,0.3-0.3,0.5-0.4c0.4-0.1,0.8,0.2,1,0.5c-0.3,0.3-0.5,0.8-0.3,1.2
					c0.2,0.4,0.9,0.6,1.3,0.4C370.4,233.5,370.1,233.1,369.9,233.2z"/>
			</g>
			<path class="st26" d="M378.4,222.2c-1.4,0.1-2.8,0.7-4,1.6c-0.3,0.2,0.1,0.7,0.4,0.5c1.1-0.8,2.4-1.3,3.7-1.4
				c0.2,0,0.3-0.2,0.3-0.4C378.7,222.2,378.6,222.2,378.4,222.2z"/>
			<path class="st26" d="M384.9,222.3c-0.7-0.7-1.7-1-2.6-0.8c-0.2,0-0.3,0.2-0.3,0.4c0,0.2,0.2,0.3,0.4,0.3c0.1,0,0.2,0,0.3,0
				c0,0,0,0,0,0c0,0,0,0,0,0c0,0,0.1,0,0.1,0c0.1,0,0.2,0,0.3,0c0,0,0.1,0,0.1,0c0,0,0,0,0,0c0,0,0.1,0,0.1,0c0,0,0.1,0,0.1,0
				c0.1,0,0.2,0.1,0.3,0.1c0,0,0.1,0,0.1,0.1c0,0,0,0,0,0c0,0,0,0,0,0c0,0,0,0,0.1,0c0.1,0,0.2,0.1,0.2,0.2c0,0,0.1,0.1,0.1,0.1
				c0,0,0,0,0,0c0,0,0,0,0,0c0.1,0.1,0.3,0.2,0.5,0C385,222.7,385,222.5,384.9,222.3z"/>
			<path class="st32" d="M382.6,236.2c-0.7,0.1-1.4,0.2-2.1,0.3c-0.2,0-0.3,0.2-0.3,0.4c0,0.2,0.2,0.3,0.4,0.3
				c0.7-0.1,1.4-0.2,2.1-0.3c0.2,0,0.3-0.2,0.3-0.4C382.9,236.3,382.8,236.2,382.6,236.2z"/>
			<path class="st32" d="M383.5,230.1c-0.2-0.4-0.6-0.6-1-0.8c-0.3-0.2-0.6-0.3-0.8-0.7c-0.1-0.2-0.3-0.2-0.4-0.1
				c-0.2,0.1-0.2,0.3-0.1,0.4c0.3,0.7,1,0.8,1.6,1.3c0.2,0.2,0.4,0.4,0.2,0.7c-0.2,0.3-0.6,0.5-0.8,0.8c-0.1,0.1-0.1,0.3,0,0.5
				c0.1,0.1,0.3,0.2,0.5,0c0.3-0.3,0.7-0.5,0.9-0.9C383.7,230.9,383.7,230.4,383.5,230.1z"/>
			<path class="st23" d="M382.5,234.4c-0.1-0.2-0.3-0.2-0.4-0.1c-0.9,0.4-2,0.4-2.9,0.1c-0.2,0-0.3,0-0.4,0.2
				c-0.1,0.2,0,0.4,0.2,0.4c1.1,0.3,2.3,0.3,3.4-0.2C382.5,234.8,382.6,234.5,382.5,234.4z"/>
		</g>
		<g id="XMLID_89_">
			<path id="XMLID_90_" class="st18" d="M368.2,298.2c-0.6,3.9-2.8,7.4-6,9.6c-0.3,0.2,0.1,0.7,0.4,0.5c3.3-2.4,5.6-6.1,6.2-10.1
				C368.9,297.8,368.3,297.8,368.2,298.2z"/>
			<path id="XMLID_91_" class="st18" d="M388.2,297.3c-6.6,0.2-13.1,0.4-19.7,0.6c-0.4,0-0.4,0.7,0,0.6c6.6-0.2,13.1-0.4,19.7-0.6
				C388.6,297.9,388.6,297.3,388.2,297.3z"/>
			<path id="XMLID_92_" class="st18" d="M392.2,305.4c-2.5-1.7-4-4.8-3.8-7.8c0-0.4-0.6-0.4-0.6,0c-0.3,3.3,1.3,6.5,4,8.4
				C392.2,306.2,392.5,305.6,392.2,305.4z"/>
		</g>
		<path id="XMLID_93_" class="st28" d="M367.5,301l-19.9-15.1c0,0-4.7,2.5-4.5,8.8l21.5,11C364.6,305.7,366.5,303.5,367.5,301z"/>
		<path id="XMLID_94_" class="st18" d="M347.7,285.7c-3.7,1.7-6,5.9-5.5,10c0.1,0.4,0.7,0.3,0.6-0.1c-0.5-3.8,1.7-7.7,5.2-9.3
			C348.4,286.1,348.1,285.5,347.7,285.7z"/>
		<path id="XMLID_95_" class="st18" d="M351,285.6c-1.7-2-4.6-2.7-7-1.8c-0.4,0.2-0.1,0.7,0.3,0.6c2.2-0.9,4.8-0.2,6.3,1.6
			C350.8,286.3,351.3,285.9,351,285.6z"/>
		<path id="XMLID_96_" class="st18" d="M360.4,265.6c0-0.4-0.7-0.4-0.6,0c0.4,6.1,0.3,12.3-0.5,18.4c-0.1,0.4,0.6,0.4,0.6,0
			C360.7,277.9,360.8,271.7,360.4,265.6z"/>
		<path id="XMLID_97_" class="st18" d="M382.4,248c-0.1-0.4-0.8-0.2-0.6,0.1c0.5,1.5-0.3,3-1.2,4.1c-0.4,0.5-0.8,1.2-1.4,1.6
			c-0.6,0.5-1.2,0.4-1.9,0c-0.6-0.4-1.1-0.9-1.6-1.3c-0.6-0.4-1.2-0.8-1.8-1.2c-1.2-0.7-2.5-1.3-3.9-1.7c-1.4-0.5-3.2-1-3.5-2.7
			c-0.1-0.4-0.7-0.3-0.6,0.1c0.2,1.5,1.6,2.4,3,2.9c1.6,0.6,3.1,1.1,4.6,1.9c0.7,0.4,1.4,0.9,2,1.3c0.6,0.5,1.2,1.1,1.9,1.4
			c1.5,0.7,2.6-0.5,3.4-1.6C382,251.6,383,249.8,382.4,248z"/>
		<path id="XMLID_98_" class="st29" d="M372,255.9c-0.1-0.4-0.8-0.2-0.6,0.1c1.4,4,1.8,8.2,1.1,12.4c-0.1,0.4,0.6,0.4,0.6,0
			C373.8,264.2,373.4,259.9,372,255.9z"/>
		<path id="XMLID_99_" class="st29" d="M383.3,254.9c-0.1-0.4-0.8-0.3-0.6,0.1c1.4,4.6,1.7,9.5,0.7,14.2c-0.1,0.4,0.5,0.6,0.6,0.2
			C385,264.7,384.7,259.7,383.3,254.9z"/>
		<path id="XMLID_100_" class="st28" d="M360.8,443.8l-3.9-21.4c-1.3-7.2-1.9-22.3-1.7-29.7l0.2-7.8l-6.4-38.3h22.7l-6.1,39.4
			l0.8,3.9c1.8,8.7,2.5,25.2,2.1,34.1l-0.8,19.8L360.8,443.8z"/>
		<path id="XMLID_101_" class="st28" d="M398.5,346.7l-13.3,97.1h-6.9l-1.2-26.2c-0.3-7.5,0.8-22.8,3.3-29.9l0,0l-5.9-41.2
			L398.5,346.7z"/>
		<polygon id="XMLID_102_" class="st32" points="371.6,346.7 348.9,346.7 349.2,348.7 371.3,348.7 		"/>
		<path id="XMLID_103_" class="st28" d="M365.5,386.1l5.8-37.4h-22.1l6,36.2l-0.2,7.8c-0.2,7.4,0.4,22.4,1.7,29.7l3.9,21.4l6.9,0.2
			l0.8-19.8c0.4-8.8-0.4-25.4-2.1-34.1L365.5,386.1z"/>
		<polygon id="XMLID_104_" class="st32" points="398.5,346.7 374.6,346.4 374.9,348.7 398.2,348.7 		"/>
		<path id="XMLID_105_" class="st28" d="M374.9,348.7l5.6,38.9l0,0c-2.5,7.1-3.6,22.4-3.3,29.9l1.2,26.2h6.9l13-95H374.9z"/>
		<path id="XMLID_106_" class="st28" d="M416.1,206L416.1,206l3.9-7.4l-4.2-3.2l-4.1,1.6l-0.7,6.1c-0.3,0.9-0.3,1.5-0.4,2.5
			L416.1,206z"/>
		<polygon id="XMLID_109_" class="st14" points="415.4,122.8 429.8,152 462,156.7 438.7,179.5 444.2,211.6 415.4,196.4 386.5,211.6 
			392,179.5 368.7,156.7 400.9,152 		"/>
		<path id="XMLID_112_" class="st13" d="M381.6,154.8l-12.9,1.9l23.3,22.8l-5.5,32.1l28.9-15.2l28.9,15.2l-4.7-27.3
			C417.1,183.4,394.8,172.9,381.6,154.8z"/>
		<g id="XMLID_113_">
			<path class="st28" d="M411.7,205.2c0.9-0.6,1.5-1.9,1.4-3.3c0-1.4-0.7-2.6-1.6-3.2c-0.2-2.2-1.6-3.9-3.1-4.3
				c1.1,3.6,1.8,7.4,2.1,11.3L411.7,205.2z"/>
			<path class="st32" d="M410.4,195.5c0.6,0.3,0.8,1.2,0.9,1.9c0.1,0.4,0.1,0.9,0.3,1.3c0.2,0.4,0.6,0.5,0.8,0.8
				c0.5,0.5,0.9,1.3,1,2.2c0.1,1-0.2,2-0.4,2.9c-0.1,0.3-0.4,0.1-0.3-0.2c0.2-0.9,0.5-1.8,0.4-2.8c-0.1-0.9-0.6-1.5-1.2-2
				c-0.2-0.2-0.5-0.4-0.6-0.7c-0.2-0.3-0.2-0.7-0.3-1c-0.1-0.7-0.2-1.6-0.8-1.9C410,195.9,410.2,195.4,410.4,195.5z"/>
		</g>
		<path id="XMLID_114_" class="st26" d="M379.7,218.3c-0.6,0.7-1.5,1.3-2.4,1.8c-0.8,0.5-1.7,1.2-2,2c-0.4,0.9,0,1.9-0.1,2.9
			c-0.1,1.3-0.8,2.6-2,3.4c-1.2,0.8-2.9,1.3-4.5,1.1c-0.2-3.1-0.3-6.3,1.5-9c1.2-1.8,3.2-3.2,5.6-3.9
			C377.8,216,382,215.5,379.7,218.3z"/>
	</g>
	<g id="XMLID_115_">
		<path id="XMLID_116_" class="st4" d="M153.6,227c-1,1.3-1.9,2.5-2.8,3.5c-5.7,1.2-7.5,3-9.9,8.3l4.2,20.3
			c8.3-2.9,14.6-11.1,20.1-17.9c0.5-0.6,0.9-1.2,1.4-1.7c-0.4,0-0.9-0.1-1.3-0.2C159.4,238.4,154.3,232.9,153.6,227z"/>
		<path id="XMLID_117_" class="st33" d="M172.5,220.4c-0.9-2.7-2.9-5.6-5.7-5.6c-1.6,0-2.9,1-4.1,2c-2.7,2.3-6,6.5-8.9,10.2
			c0.7,6,5.8,11.4,11.7,12.4c0.4,0.1,0.9,0.1,1.3,0.2C171.5,233.5,174.9,228,172.5,220.4z"/>
		<path id="XMLID_118_" class="st33" d="M116.2,240.4c0-1.6-0.8-3.2-1.9-4.4c-1.2-1.2-2.7-1.9-4.2-2.4c-3.3-1.1-7.1-1.1-10.5-0.3
			c-6.1-4.1-12-8.6-17.6-13.4c-3.5,2.6-7.1,8-9.8,11.4c10.7,13,24.6,21.7,40.4,27.5L116.2,240.4z"/>
		<path id="XMLID_119_" class="st4" d="M116.2,240.4c0-1.6-0.8-3.2-1.9-4.4c-1.2-1.2-2.7-1.9-4.2-2.4c-3.3-1.1-7.1-1.1-10.5-0.3
			c-1.8-1.3-3.7-2.6-5.5-3.9c-3.7,4.8-5.5,10.5-6.2,16.6c7.4,5.3,15.7,9.5,24.6,12.7L116.2,240.4z"/>
		<path id="XMLID_120_" class="st12" d="M109.4,257.6c-7-5.5-13.8-11.4-20.6-17.1c-0.4,1.8-0.8,3.6-1,5.5
			C94.4,250.7,101.7,254.5,109.4,257.6z"/>
		<g id="XMLID_121_">
			<g id="XMLID_122_">
				<g id="XMLID_123_">
					<path class="st18" d="M108.5,312.9c21.9,2.6,21.6,16.3,21.6,16.3l-8.8,56.9l-6.3,49.5h-10.4C100,370.4,108.5,312.9,108.5,312.9
						z"/>
					<path class="st27" d="M124.2,328.4c0,0-9.7-6.8-10.9-12.7l36.6,1.4c0,0,6.1,76.8,6,118.5h-10.4L124.2,328.4z"/>
					<path class="st33" d="M155,435.6c0,1.6,0,3.1,0,4.5h-8.3l-0.5-4.5H155z"/>
					<path class="st33" d="M114.1,435.6c0,1.6,0,3.1,0,4.5h-8.3l-0.5-4.5H114.1z"/>
					<path class="st18" d="M116.7,321.6c-1.9-2.1-3.6-4.5-4.1-6.8l36.9-1.9c0,0,0.3,4.3,0.4,6.1C139,321.8,127.7,322.9,116.7,321.6z
						"/>
				</g>
				<g id="XMLID_124_">
					<path class="st4" d="M146.2,439.4l9.7-0.3c2.7,3.1,4.6,6.9,5.6,11H144C144.3,446.5,145,442.9,146.2,439.4z"/>
					<path class="st18" d="M161.4,450.1c0.1,0.4,0.2,0.8,0.3,1.2c0.1,0.6-0.3,1.2-0.9,1.2h-16c-0.5,0-1-0.5-0.9-1.1
						c0-0.4,0.1-0.9,0.1-1.3H161.4z"/>
				</g>
				<g id="XMLID_125_">
					<path class="st4" d="M114.6,439.4l-9.7-0.3c-2.7,3.1-18.9,6.9-19.9,11h31.8C116.5,446.5,115.7,442.9,114.6,439.4z"/>
					<path class="st18" d="M85,450.1c-0.1,0.4-0.2,0.8-0.3,1.2c-0.1,0.6,0.3,1.2,0.9,1.2H116c0.5,0,1-0.5,0.9-1.1
						c0-0.4-0.1-0.9-0.1-1.3H85z"/>
				</g>
			</g>
			<path class="st18" d="M147.3,390.2c1.2-2.2,2.5-4.4,3.4-6.8c1-2.4,1.7-4.9,2.4-7.4c0.1-0.3,0.5-0.2,0.4,0.1
				c-0.4,2.6-1.3,5.1-2.3,7.5c-1,2.4-2.1,4.8-3.6,6.9C147.5,390.8,147.2,390.5,147.3,390.2z"/>
		</g>
		<path class="st4" d="M109.4,243c0.2-3,2-5.6,4.8-6.8c5.9-2.5,12.5-3.3,18.9-2.9c5.9,0.4,11.6,1.7,17.2,3.5
			c3.7,1.2,5.9,4.9,5.3,8.7c-3.5,21.8-4.9,44.2-4,66.2c0.1,1.4,0.2,3.5-1.2,3.9c-12.6,3.9-30.5,4.6-42.5,1.4c-3-0.8-0.6-3.5-0.6-6.6
			C107.3,288.4,108.3,264.8,109.4,243z"/>
		<g id="XMLID_126_">
			<g id="XMLID_127_">
				<g id="XMLID_128_">
					<path class="st33" d="M137,219.4c-0.4,4.9-0.3,9.8,0.3,14.7c0.1,1-0.3,2-1.1,2.5c-2.2,1.6-5.1,2.3-7.8,1.9
						c-1.4-0.2-2.3-1.5-2.2-2.8c0.3-3.2,0.3-6.2,0.3-9.5C129.2,222.8,132.9,220.7,137,219.4z"/>
				</g>
				<g id="XMLID_129_">
					<path class="st34" d="M126.5,226.2c2.7-3.4,6.4-5.5,10.5-6.8c-0.2,2.1-0.2,4.2-0.2,6.3c-1.9,5.1-5.2,10-9.8,12.1
						c-0.5-0.5-0.9-1.3-0.8-2.1C126.5,232.5,126.6,229.5,126.5,226.2z"/>
				</g>
				<path class="st35" d="M138,218.2c0.6-2.1,1.1-4.3,1.7-6.4c0.3-1.1,0.6-2.3,0.4-3.4c-0.2-1.1-1.1-2.2-2.3-2.2
					c-3-4.5-8.6-7-13.9-6.4c-1.9,0.2-3.7,0.9-5,2.2c-1.5,1.6-1.8,3.9-1.8,6c0,2.6,1.2,2.8,2.9,4.7c1.7,1.8,3.6,4.9,6,5.4
					C130,218.9,133.9,218.8,138,218.2z"/>
				<path class="st36" d="M137.4,218.2c0.5-1.9,1-3.9,1.5-5.8c0.3-1,0.5-2.1,0.3-3.1c-0.2-1-1-2-2.1-2c-2.8-4.1-7.8-6.4-12.6-5.8
					c-1.7,0.2-3.4,0.8-4.5,2c-1.3,1.5-1.6,3.6-1.6,5.5c0,2.3,1.1,2.6,2.6,4.3c1.5,1.6,3.2,4.5,5.4,4.9
					C130.2,218.9,133.7,218.8,137.4,218.2z"/>
				<g id="XMLID_130_">
					<path class="st33" d="M119.7,211.4c-0.9,6.8,1.9,18.9,5.7,19.1c8.1,0.3,9.8-4.8,11.1-9.7c0,0.1,0.6,0.4,1.1,0.4
						c0.6,0,1.4-0.7,1.7-1.2c0.6-0.9,1.2-2.4,0.6-3.4c-0.8-1.3-2.6-1.5-3.3,0c0.1-2.5-0.8-4.8-1.6-7.1c-0.3-0.7-0.9-1.3-1.6-1.6
						c-3.6-1.3-8-1.3-11.7-0.2c-0.7,0.2-1.3,0.8-1.5,1.5C120,209.9,119.8,210.8,119.7,211.4z"/>
					<path id="XMLID_131_" class="st37" d="M133,222.7c-4-1.1-8.5-0.7-12.1,1.3c1.1,3.7,2.7,6.5,4.5,6.6c7.7,0.3,9.6-4.3,11-9.1
						l0.5-5.2C135.6,218.4,134.3,220.5,133,222.7z"/>
					<path id="XMLID_132_" class="st33" d="M139.9,216.5c-0.7-1.1-2-1.4-2.9-0.6c-0.1,0.1-0.1,0.2-0.2,0.3l-0.5,5.2
						c0.1-0.2,0.1-0.5,0.2-0.7c0,0.1,0.6,0.4,1.1,0.4c0.6,0,1.4-0.7,1.7-1.2C140,219,140.6,217.6,139.9,216.5z"/>
					<path id="XMLID_133_" class="st33" d="M136.6,216.5c0.1-2.5-0.8-4.8-1.6-7.1c-0.3-0.7-0.9-1.3-1.6-1.6c-3.6-1.3-8-1.3-11.7-0.2
						c-0.7,0.2-1.3,0.8-1.5,1.5c-0.3,0.8-0.5,1.7-0.5,2.4c-0.5,3.6,0.1,8.5,1.2,12.5c3.6-1.9,8.1-2.4,12.1-1.3
						c1.3-2.1,2.6-4.3,3.9-6.4l0-0.1C136.8,216.2,136.7,216.3,136.6,216.5z"/>
					<path id="XMLID_134_" class="st33" d="M136.9,216.1l0,0.1c0.1-0.1,0.1-0.2,0.2-0.3C137,215.9,136.9,216,136.9,216.1z"/>
					<path class="st36" d="M127,211.9c1.1-1.4,4.1-0.4,5.2,0.5c0.2,0.2,0.4,0.4,0.4,0.7c0,0.2-0.1,0.3-0.2,0.3
						c-0.3,0.1-0.7-0.2-1-0.3c-0.4-0.2-0.8-0.3-1.2-0.4c-0.5-0.1-1-0.1-1.6-0.1c-0.5,0.1-1,0.3-1.5,0.2
						C126.8,212.6,126.8,212.1,127,211.9z"/>
					<path class="st23" d="M128.6,214.3c0-0.1,0.1-0.2,0.1-0.2c0.1-0.1,0.1-0.1,0.2-0.1c0.1,0,0.2-0.1,0.3-0.1c0.1,0,0.1,0,0.2,0
						c0.1,0,0.2,0.1,0.3,0.2c0,0,0.1,0.1,0.1,0.1c0.1,0.1,0.1,0.2,0.1,0.3v0.1c0,0.1,0,0.2-0.1,0.3c0,0.1-0.1,0.2-0.1,0.2
						c-0.1,0.1-0.1,0.1-0.2,0.1c-0.1,0-0.2,0.1-0.3,0.1l-0.2,0c-0.1,0-0.2-0.1-0.3-0.2c0,0-0.1-0.1-0.1-0.1
						c-0.1-0.1-0.1-0.2-0.1-0.3v-0.1C128.6,214.5,128.6,214.4,128.6,214.3z"/>
					<path class="st23" d="M121.3,214.7c0-0.1,0.1-0.2,0.1-0.2c0.1-0.1,0.1-0.1,0.2-0.1c0.1,0,0.2-0.1,0.3-0.1c0.1,0,0.1,0,0.2,0
						c0.1,0,0.2,0.1,0.3,0.2c0,0,0.1,0.1,0.1,0.1c0.1,0.1,0.1,0.2,0.1,0.3v0.1c0,0.1,0,0.2-0.1,0.3c0,0.1-0.1,0.2-0.1,0.2
						c-0.1,0.1-0.1,0.1-0.2,0.1c-0.1,0-0.2,0.1-0.3,0.1l-0.2,0c-0.1,0-0.2-0.1-0.3-0.2c0,0-0.1-0.1-0.1-0.1
						c-0.1-0.1-0.1-0.2-0.1-0.3V215C121.2,214.9,121.2,214.8,121.3,214.7z"/>
					<path class="st36" d="M120,212.8c0.3-0.5,0.8-0.8,1.4-0.9c0.5-0.1,1.1-0.2,1.6,0c0.2,0.1,0.4,0.3,0.4,0.6
						c-0.1,0.4-0.4,0.4-0.7,0.4c-0.4,0-0.9,0.1-1.3,0.2c-0.3,0.1-1.7,0.8-1.4-0.1C119.9,213,119.9,212.9,120,212.8z"/>
					<path class="st34" d="M137.2,219c0.2,0.1,0.5,0,0.6-0.3c0-0.1,0-0.2-0.1-0.3c-0.1-0.1-0.2-0.1-0.3-0.2c-0.2,0-0.3-0.2-0.3-0.3
						c0.2-0.7,0.8-1.5,1.6-1.4c0.4,0,0.7,0.2,0.9,0.6c0.1,0.2,0.1,0.3,0,0.5c0,0.1-0.1,0.3-0.3,0.2c-0.1-0.1-0.1-0.2-0.1-0.3
						c0-0.1-0.1-0.2-0.1-0.3c-0.1-0.2-0.3-0.2-0.5-0.2c-0.4,0-0.7,0.4-0.9,0.7c0.4,0.2,0.6,0.6,0.5,1c-0.1,0.5-0.7,0.8-1.1,0.6
						C136.8,219.4,136.9,218.9,137.2,219z"/>
				</g>
			</g>
		</g>
		<path class="st12" d="M117.1,312.9c5.2,0.5,10.5-0.4,15.3-2.6c4.4-2,8.3-5.1,11.2-8.9c1.6-2.1,3-4.4,4-6.9
			c0.1-0.4,0.7-0.1,0.5,0.3c-1.9,4.5-4.8,8.5-8.5,11.6c-3.9,3.3-8.7,5.6-13.8,6.6c-2.9,0.6-5.9,0.7-8.9,0.4
			C116.5,313.5,116.7,312.9,117.1,312.9z"/>
		<path class="st12" d="M126.7,239.7c4.1,1.2,8.8,0.1,11.9-2.9c0.3-0.3,0.7,0.1,0.4,0.4c-3.3,3.1-8.2,4.3-12.5,3.1
			C126.2,240.1,126.3,239.5,126.7,239.7z"/>
		<path class="st34" d="M122.9,217.7c0.5-0.6,1-1.1,1.1-1.9c0.1-0.4,0.7-0.2,0.6,0.1c-0.2,1.3-1.5,2-1.9,3.2
			c-0.2,0.6-0.1,1.4,0.4,1.9c0.5,0.5,1.3,0.7,2,0.5c0.4-0.1,0.6,0.5,0.2,0.6c-1.6,0.5-3.3-0.7-3.3-2.4
			C122,218.9,122.5,218.2,122.9,217.7z"/>
		<path id="XMLID_135_" class="st23" d="M129.6,223.9c-1.1,1.5-3.1,2.3-5,1.9c-0.4-0.1-0.6,0.5-0.2,0.6c2.1,0.4,4.4-0.4,5.7-2.2
			C130.4,223.9,129.9,223.5,129.6,223.9z"/>
		<g id="XMLID_136_">
			<polygon id="XMLID_139_" class="st14" points="120.8,104.7 135.2,133.9 167.5,138.6 144.1,161.4 149.7,193.5 120.8,178.3 
				91.9,193.5 97.5,161.4 74.1,138.6 106.4,133.9 			"/>
			<path id="XMLID_142_" class="st13" d="M87,136.7l-12.9,1.9l23.3,22.8l-5.5,32.1l28.9-15.2l28.9,15.2l-4.7-27.3
				C122.5,165.3,100.2,154.8,87,136.7z"/>
		</g>
		<g id="XMLID_143_">
			<g id="XMLID_144_">
				<path class="st33" d="M100.6,180.8c0.4,0,0.8-0.1,1.1,0c0.4,0.1,0.7,0.4,0.8,0.8c0.1,0.5-0.3,0.9-0.7,1.1
					c-0.4,0.2-0.9,0.2-1.4,0.3c-1.6,0.2-3.1,0.9-4.3,1.8c-0.6,0.5-1.2,1.1-2,1.5c-2.5,1.4-4.4-1.3-1.8-2.9
					C94.8,182,97.7,181.1,100.6,180.8z"/>
				<path class="st33" d="M102.1,183.2c0.4,0,0.8-0.1,1.1,0c0.4,0.1,0.7,0.4,0.8,0.8c0.1,0.5-0.3,0.9-0.7,1.1
					c-0.4,0.2-0.9,0.2-1.4,0.3c-1.6,0.2-3.1,0.9-4.3,1.8c-0.6,0.5-1.2,1.1-2,1.5c-2.5,1.4-4.4-1.3-1.8-2.9
					C96.3,184.4,99.2,183.5,102.1,183.2z"/>
				<path class="st33" d="M101.6,185.9c0.4,0,0.8-0.1,1.1,0c0.4,0.1,0.7,0.4,0.8,0.8c0.1,0.5-0.3,0.9-0.7,1.1
					c-0.4,0.2-0.9,0.2-1.4,0.3c-1.6,0.2-3.1,0.9-4.3,1.8c-0.6,0.5-1.2,1.1-2,1.5c-2.5,1.4-4.4-1.3-1.8-2.9
					C95.8,187.1,98.8,186.2,101.6,185.9z"/>
				<path class="st33" d="M100.3,188.6c0.3,0,0.6-0.1,0.9,0c0.3,0.1,0.6,0.3,0.6,0.6c0.1,0.4-0.2,0.7-0.5,0.9
					c-0.3,0.2-0.7,0.2-1.1,0.3c-1.3,0.2-2.5,0.7-3.5,1.5c-0.5,0.4-1,0.9-1.6,1.2c-2,1.1-3.6-1-1.5-2.3
					C95.6,189.6,98,188.9,100.3,188.6z"/>
				<path class="st33" d="M92.1,183.7c-1.3,1.2-2.1,1.9-3,3.4c-1,1.5-1.6,3.3-1.2,5.1c0.4,1.7,1.9,3.3,3.6,3.4c1.1,0,2.1-0.4,2.9-1
					c1.8-1.3,2.8-3.5,2.9-5.7c0-2.2-1-4.4-2.7-5.7L92.1,183.7z"/>
			</g>
			<path class="st33" d="M89.6,188.6c-4,4.8-19.6,29.2-19.7,35.4c0,3.2,1.1,6.7,3.5,8.9c2.8,2.4,6,1.8,7.8-1.4
				c3.3-5.7,9.8-31.1,11.4-38.9L89.6,188.6z"/>
		</g>
		<g id="XMLID_145_">
			<g id="XMLID_146_">
				<path class="st33" d="M141.4,178.4c-0.4,0-0.8-0.1-1.1,0c-0.4,0.1-0.7,0.4-0.8,0.8c-0.1,0.5,0.3,0.9,0.7,1.1
					c0.4,0.2,0.9,0.2,1.4,0.3c1.6,0.2,3.1,0.9,4.3,1.8c0.6,0.5,1.2,1.1,2,1.5c2.5,1.4,4.4-1.3,1.8-2.9
					C147.2,179.6,144.2,178.7,141.4,178.4z"/>
				<path class="st33" d="M139.9,180.8c-0.4,0-0.8-0.1-1.1,0c-0.4,0.1-0.7,0.4-0.8,0.8c-0.1,0.5,0.3,0.9,0.7,1.1
					c0.4,0.2,0.9,0.2,1.4,0.3c1.6,0.2,3.1,0.9,4.3,1.8c0.6,0.5,1.2,1.1,2,1.5c2.5,1.4,4.4-1.3,1.8-2.9
					C145.7,182,142.8,181.1,139.9,180.8z"/>
				<path class="st33" d="M140.4,183.5c-0.4,0-0.8-0.1-1.1,0c-0.4,0.1-0.7,0.4-0.8,0.8c-0.1,0.5,0.3,0.9,0.7,1.1
					c0.4,0.2,0.9,0.2,1.4,0.3c1.6,0.2,3.1,0.9,4.3,1.8c0.6,0.5,1.2,1.1,2,1.5c2.5,1.4,4.4-1.3,1.8-2.9
					C146.1,184.7,143.2,183.8,140.4,183.5z"/>
				<path class="st33" d="M141.6,186.2c-0.3,0-0.6-0.1-0.9,0c-0.3,0.1-0.6,0.3-0.6,0.6c-0.1,0.4,0.2,0.7,0.5,0.9
					c0.3,0.2,0.7,0.2,1.1,0.3c1.3,0.2,2.5,0.7,3.5,1.5c0.5,0.4,1,0.9,1.6,1.2c2,1.1,3.6-1,1.5-2.3
					C146.4,187.2,144,186.5,141.6,186.2z"/>
				<path class="st33" d="M149.9,181.3c1.3,1.2,2.1,1.9,3,3.4c1,1.5,1.6,3.3,1.2,5.1c-0.4,1.7-1.9,3.3-3.6,3.4c-1.1,0-2.1-0.4-2.9-1
					c-1.8-1.3-2.8-3.5-2.9-5.7c0-2.2,1-4.4,2.7-5.7L149.9,181.3z"/>
			</g>
			<path class="st33" d="M152.4,186.2c4,4.8,19.6,29.2,19.7,35.4c0,3.2-1.1,6.7-3.5,8.9c-2.8,2.4-6,1.8-7.8-1.4
				c-3.3-5.7-9.8-31.1-11.4-38.9L152.4,186.2z"/>
		</g>
		<path id="XMLID_147_" class="st12" d="M165.8,239.9c-3.9,4.6-7.8,9.3-11.8,13.9c-1.1,1.3-2.2,2.7-3.4,4c-0.3,0.3,0.2,0.8,0.4,0.5
			c3.9-4.6,7.8-9.3,11.8-13.9l3.4-4C166.5,240.1,166.1,239.6,165.8,239.9z"/>
		<path id="XMLID_148_" class="st12" d="M108.6,242.4c-0.4,5.4-0.6,10.8-0.9,16.3c-0.2,5.5-0.4,10.9-0.5,16.4
			c-0.1,3.1-0.1,6.1-0.1,9.2c0,0.4,0.6,0.4,0.6,0c0-5.4,0.1-10.9,0.3-16.3c0.1-5.5,0.4-10.9,0.6-16.4c0.2-3.1,0.3-6.1,0.5-9.2
			C109.3,242,108.7,242,108.6,242.4z"/>
		<g id="XMLID_149_">
			<g id="XMLID_150_">
				<path id="XMLID_151_" class="st36" d="M120.7,218.8c-1.7,0-3.2-1.4-3.2-3.2c0-1.7,1.4-3.2,3.2-3.2s3.2,1.4,3.2,3.2
					C123.9,217.4,122.5,218.8,120.7,218.8z M120.7,212.8c-1.6,0-2.8,1.3-2.8,2.8c0,1.6,1.3,2.8,2.8,2.8c1.6,0,2.8-1.3,2.8-2.8
					C123.6,214.1,122.3,212.8,120.7,212.8z"/>
			</g>
			<g id="XMLID_154_">
				<path id="XMLID_155_" class="st36" d="M128.4,218.8c-1.7,0-3.2-1.4-3.2-3.2c0-1.7,1.4-3.2,3.2-3.2c1.7,0,3.2,1.4,3.2,3.2
					C131.6,217.4,130.2,218.8,128.4,218.8z M128.4,212.8c-1.6,0-2.8,1.3-2.8,2.8c0,1.6,1.3,2.8,2.8,2.8c1.6,0,2.8-1.3,2.8-2.8
					C131.3,214.1,130,212.8,128.4,212.8z"/>
			</g>
			<g id="XMLID_158_">
				<path id="XMLID_159_" class="st36" d="M123.8,214.7l-0.2-0.2c0.6-0.5,1.5-0.6,2.1-0.1l-0.2,0.2
					C125,214.2,124.2,214.2,123.8,214.7z"/>
			</g>
			<g id="XMLID_160_">
				<path id="XMLID_161_" class="st36" d="M137.6,215.6c-2-0.7-4.1-1-6.2-0.7l0-0.3c2.1-0.3,4.3-0.1,6.3,0.7L137.6,215.6z"/>
			</g>
		</g>
	</g>
	<rect x="63.2" y="452.5" class="st17" width="373.6" height="2.4"/>
</g>
</svg>
