<svg id="visual" viewBox="0 0 900 600" width="900" height="600" xmlns="http://www.w3.org/2000/svg" xmlns:xlink="http://www.w3.org/1999/xlink" version="1.1"><rect x="0" y="0" width="900" height="600" fill="#8ac6e5"></rect><path d="M0 415L21.5 424C43 433 86 451 128.8 464.8C171.7 478.7 214.3 488.3 257.2 477.7C300 467 343 436 385.8 416.2C428.7 396.3 471.3 387.7 514.2 392.3C557 397 600 415 642.8 417C685.7 419 728.3 405 771.2 414.5C814 424 857 457 878.5 473.5L900 490L900 601L878.5 601C857 601 814 601 771.2 601C728.3 601 685.7 601 642.8 601C600 601 557 601 514.2 601C471.3 601 428.7 601 385.8 601C343 601 300 601 257.2 601C214.3 601 171.7 601 128.8 601C86 601 43 601 21.5 601L0 601Z" fill="#0066FF" stroke-linecap="round" stroke-linejoin="miter"></path></svg>