<?xml version="1.0" encoding="utf-8"?>
<!-- Generator: Adobe Illustrator 19.0.0, SVG Export Plug-In . SVG Version: 6.00 Build 0)  -->
<svg version="1.1" xmlns="http://www.w3.org/2000/svg" xmlns:xlink="http://www.w3.org/1999/xlink" x="0px" y="0px"
	 viewBox="0 0 750 500" style="enable-background:new 0 0 750 500;" xml:space="preserve">
<style type="text/css">
	.st0{fill:none;}
	.st1{fill:#272525;}
	.st2{opacity:0;fill:#F9F9F9;}
	.st3{clip-path:url(#SVGID_2_);}
	.st4{fill:#060000;}
	.st5{fill:none;stroke:#060000;stroke-width:1.3;stroke-miterlimit:10;}
	.st6{fill:#F24E3D;}
	.st7{fill:none;stroke:#060000;stroke-width:2;stroke-miterlimit:10;}
	.st8{clip-path:url(#SVGID_2_);fill:url(#SVGID_3_);}
	.st9{clip-path:url(#SVGID_2_);fill:url(#SVGID_4_);}
	.st10{clip-path:url(#SVGID_2_);fill:none;stroke:#F24E3D;stroke-width:2.5;stroke-miterlimit:10;}
	.st11{clip-path:url(#SVGID_2_);fill:#F24E3D;}
	.st12{fill:none;stroke:#F24E3D;stroke-width:2.5;stroke-miterlimit:10;}
	.st13{fill:none;stroke:#3F3F3F;stroke-width:1.5;stroke-miterlimit:10;}
	.st14{fill:none;stroke:#F24E3D;stroke-width:2;stroke-miterlimit:10;}
	.st15{fill:#3F3F3F;}
	.st16{clip-path:url(#SVGID_2_);fill:#3F3F3F;}
	.st17{clip-path:url(#SVGID_2_);fill:none;stroke:#F24E3D;stroke-width:19;stroke-miterlimit:10;}
</style>
<pattern  x="125" width="48" height="48" patternUnits="userSpaceOnUse" id="_x36__dpi_20_x25_" viewBox="2.4 -50.4 48 48" style="overflow:visible;">
	<g>
		<polygon class="st0" points="2.4,-50.4 50.4,-50.4 50.4,-2.4 2.4,-2.4 		"/>
		<g>
			<path class="st1" d="M26.4,0c1.3,0,2.4-1.1,2.4-2.4c0-1.3-1.1-2.4-2.4-2.4c-1.3,0-2.4,1.1-2.4,2.4C24-1.1,25.1,0,26.4,0z"/>
			<path class="st1" d="M50.4,0c1.3,0,2.4-1.1,2.4-2.4c0-1.3-1.1-2.4-2.4-2.4c-1.3,0-2.4,1.1-2.4,2.4C48-1.1,49.1,0,50.4,0z"/>
			<path class="st1" d="M26.4-24c1.3,0,2.4-1.1,2.4-2.4c0-1.3-1.1-2.4-2.4-2.4c-1.3,0-2.4,1.1-2.4,2.4C24-25.1,25.1-24,26.4-24z"/>
			<path class="st1" d="M50.4-24c1.3,0,2.4-1.1,2.4-2.4c0-1.3-1.1-2.4-2.4-2.4c-1.3,0-2.4,1.1-2.4,2.4C48-25.1,49.1-24,50.4-24z"/>
			<path class="st1" d="M38.4-12c1.3,0,2.4-1.1,2.4-2.4c0-1.3-1.1-2.4-2.4-2.4c-1.3,0-2.4,1.1-2.4,2.4C36-13.1,37.1-12,38.4-12z"/>
			<path class="st1" d="M14.4-12c1.3,0,2.4-1.1,2.4-2.4c0-1.3-1.1-2.4-2.4-2.4c-1.3,0-2.4,1.1-2.4,2.4C12-13.1,13.1-12,14.4-12z"/>
			<path class="st1" d="M38.4-36c1.3,0,2.4-1.1,2.4-2.4c0-1.3-1.1-2.4-2.4-2.4c-1.3,0-2.4,1.1-2.4,2.4C36-37.1,37.1-36,38.4-36z"/>
			<path class="st1" d="M14.4-36c1.3,0,2.4-1.1,2.4-2.4c0-1.3-1.1-2.4-2.4-2.4c-1.3,0-2.4,1.1-2.4,2.4C12-37.1,13.1-36,14.4-36z"/>
		</g>
		<g>
			<path class="st1" d="M2.4,0c1.3,0,2.4-1.1,2.4-2.4c0-1.3-1.1-2.4-2.4-2.4C1.1-4.8,0-3.7,0-2.4C0-1.1,1.1,0,2.4,0z"/>
			<path class="st1" d="M2.4-24c1.3,0,2.4-1.1,2.4-2.4c0-1.3-1.1-2.4-2.4-2.4c-1.3,0-2.4,1.1-2.4,2.4C0-25.1,1.1-24,2.4-24z"/>
		</g>
		<g>
			<path class="st1" d="M26.4-48c1.3,0,2.4-1.1,2.4-2.4c0-1.3-1.1-2.4-2.4-2.4c-1.3,0-2.4,1.1-2.4,2.4C24-49.1,25.1-48,26.4-48z"/>
			<path class="st1" d="M50.4-48c1.3,0,2.4-1.1,2.4-2.4c0-1.3-1.1-2.4-2.4-2.4c-1.3,0-2.4,1.1-2.4,2.4C48-49.1,49.1-48,50.4-48z"/>
		</g>
		<g>
			<path class="st1" d="M2.4-48c1.3,0,2.4-1.1,2.4-2.4c0-1.3-1.1-2.4-2.4-2.4c-1.3,0-2.4,1.1-2.4,2.4C0-49.1,1.1-48,2.4-48z"/>
		</g>
	</g>
</pattern>
<g id="BACKGROUND">
	<rect class="st2" width="750" height="500"/>
</g>
<g id="OBJECTS">
	<g>
		<g>
			<defs>
				<rect id="SVGID_1_" width="750" height="500"/>
			</defs>
			<clipPath id="SVGID_2_">
				<use xlink:href="#SVGID_1_"  style="overflow:visible;"/>
			</clipPath>
			<g class="st3">
				<g>
					<g>
						<g>
							<g>
								<circle class="st4" cx="519.8" cy="410.9" r="2.1"/>
								<circle class="st4" cx="519.8" cy="428.8" r="2.1"/>
								<circle class="st4" cx="519.8" cy="446.8" r="2.1"/>
								<circle class="st4" cx="519.8" cy="464.7" r="2.1"/>
							</g>
						</g>
					</g>
					<g>
						<g>
							<g>
								<circle class="st4" cx="519.8" cy="482.2" r="2.1"/>
								<circle class="st4" cx="519.8" cy="500.2" r="2.1"/>
								<circle class="st4" cx="519.8" cy="518.1" r="2.1"/>
								<circle class="st4" cx="519.8" cy="536.1" r="2.1"/>
							</g>
						</g>
					</g>
				</g>
				<g>
					<g>
						<g>
							<g>
								<circle class="st4" cx="498.8" cy="410.9" r="2.1"/>
								<circle class="st4" cx="498.8" cy="428.8" r="2.1"/>
								<circle class="st4" cx="498.8" cy="446.8" r="2.1"/>
								<circle class="st4" cx="498.8" cy="464.7" r="2.1"/>
							</g>
						</g>
					</g>
					<g>
						<g>
							<g>
								<circle class="st4" cx="498.8" cy="482.2" r="2.1"/>
								<circle class="st4" cx="498.8" cy="500.2" r="2.1"/>
								<circle class="st4" cx="498.8" cy="518.1" r="2.1"/>
								<circle class="st4" cx="498.8" cy="536.1" r="2.1"/>
							</g>
						</g>
					</g>
				</g>
			</g>
			<g class="st3">
				<rect x="25.1" y="287" class="st5" width="78.2" height="78.2"/>
				<polyline class="st5" points="25.1,365.2 54.7,394.7 133.6,394.7 133.6,316.2 103.3,287 				"/>
				<line class="st5" x1="103.3" y1="365.2" x2="133.2" y2="395"/>
			</g>
			<g class="st3">
				<g>
					<g>
						<g>
							<circle class="st6" cx="334.4" cy="46.7" r="3.4"/>
							<circle class="st6" cx="363.7" cy="46.7" r="3.4"/>
							<circle class="st6" cx="393" cy="46.7" r="3.4"/>
							<circle class="st6" cx="422.4" cy="46.7" r="3.4"/>
						</g>
						<g>
							<circle class="st6" cx="334.4" cy="74.5" r="3.4"/>
							<circle class="st6" cx="363.7" cy="74.5" r="3.4"/>
							<circle class="st6" cx="393" cy="74.5" r="3.4"/>
							<circle class="st6" cx="422.4" cy="74.5" r="3.4"/>
						</g>
					</g>
				</g>
				<g>
					<rect x="442" y="-44.8" class="st5" width="70.2" height="70.2"/>
					<polyline class="st5" points="512.2,25.4 485.7,51.9 414.9,51.9 414.9,-18.6 441.6,-45.2 					"/>
					<line class="st5" x1="442" y1="25.4" x2="415.2" y2="52.2"/>
				</g>
			</g>
			<g class="st3">
				<g>
					<polyline class="st7" points="560.4,333.5 570.5,345.5 580.6,333.5 590.7,345.5 600.8,333.5 610.9,345.5 621,333.5 
						631.1,345.5 641.2,333.5 651.3,345.5 661.4,333.5 					"/>
				</g>
				<g>
					<polyline class="st7" points="560.4,349.5 570.5,361.5 580.6,349.5 590.7,361.5 600.8,349.5 610.9,361.5 621,349.5 
						631.1,361.5 641.2,349.5 651.3,361.5 661.4,349.5 					"/>
				</g>
			</g>
			<g class="st3">
				<g>
					<polyline class="st7" points="148.8,-3.8 160,8.2 171.1,-3.8 182.3,8.2 193.4,-3.8 204.6,8.2 215.7,-3.8 226.9,8.2 238,-3.8 
						249.2,8.2 260.3,-3.8 					"/>
				</g>
				<g>
					<polyline class="st7" points="148.8,13.8 160,25.8 171.1,13.8 182.3,25.8 193.4,13.8 204.6,25.8 215.7,13.8 226.9,25.8 
						238,13.8 249.2,25.8 260.3,13.8 					"/>
				</g>
			</g>
			<g class="st3">
				<g>
					<g>
						<g>
							<circle class="st4" cx="-13.4" cy="54.9" r="3.5"/>
							<circle class="st4" cx="16.8" cy="54.9" r="3.5"/>
							<circle class="st4" cx="47" cy="54.9" r="3.5"/>
							<circle class="st4" cx="77.2" cy="54.9" r="3.5"/>
						</g>
						<g>
							<circle class="st4" cx="-13.4" cy="83.5" r="3.5"/>
							<circle class="st4" cx="16.8" cy="83.5" r="3.5"/>
							<circle class="st4" cx="47" cy="83.5" r="3.5"/>
							<circle class="st4" cx="77.2" cy="83.5" r="3.5"/>
						</g>
						<g>
							<circle class="st4" cx="-13.4" cy="112.1" r="3.5"/>
							<circle class="st4" cx="16.8" cy="112.1" r="3.5"/>
							<circle class="st4" cx="47" cy="112.1" r="3.5"/>
							<circle class="st4" cx="77.2" cy="112.1" r="3.5"/>
						</g>
						<g>
							<circle class="st4" cx="-13.4" cy="140.7" r="3.5"/>
							<circle class="st4" cx="16.8" cy="140.7" r="3.5"/>
							<circle class="st4" cx="47" cy="140.7" r="3.5"/>
							<circle class="st4" cx="77.2" cy="140.7" r="3.5"/>
						</g>
					</g>
				</g>
				<g>
					<g>
						<g>
							<circle class="st4" cx="-13.4" cy="-56.6" r="3.5"/>
							<circle class="st4" cx="16.8" cy="-56.6" r="3.5"/>
							<circle class="st4" cx="47" cy="-56.6" r="3.5"/>
							<circle class="st4" cx="77.2" cy="-56.6" r="3.5"/>
						</g>
						<g>
							<circle class="st4" cx="-13.4" cy="-27.9" r="3.5"/>
							<circle class="st4" cx="16.8" cy="-27.9" r="3.5"/>
							<circle class="st4" cx="47" cy="-27.9" r="3.5"/>
							<circle class="st4" cx="77.2" cy="-27.9" r="3.5"/>
						</g>
						<g>
							<circle class="st4" cx="-13.4" cy="0.7" r="3.5"/>
							<circle class="st4" cx="16.8" cy="0.7" r="3.5"/>
							<circle class="st4" cx="47" cy="0.7" r="3.5"/>
							<circle class="st4" cx="77.2" cy="0.7" r="3.5"/>
						</g>
						<g>
							<circle class="st4" cx="-13.4" cy="29.3" r="3.5"/>
							<circle class="st4" cx="16.8" cy="29.3" r="3.5"/>
							<circle class="st4" cx="47" cy="29.3" r="3.5"/>
							<circle class="st4" cx="77.2" cy="29.3" r="3.5"/>
						</g>
					</g>
				</g>
				<circle class="st6" cx="90.9" cy="146.3" r="54.7"/>
			</g>
			<pattern  id="SVGID_3_" xlink:href="#_x36__dpi_20_x25_" patternTransform="matrix(0.9833 0 0 0.9833 -15.9903 -119.8113)">
			</pattern>
			<circle class="st8" cx="700.2" cy="48.2" r="108.1"/>
			
				<pattern  id="SVGID_4_" xlink:href="#_x36__dpi_20_x25_" patternTransform="matrix(0.4625 -0.8677 0.8677 0.4625 2182.082 -11121.4561)">
			</pattern>
			<circle class="st9" cx="74.4" cy="546.7" r="108.1"/>
			<path class="st10" d="M559.8,105.1c0-32,25.9-57.9,57.9-57.9c32,0,57.9,25.9,57.9,57.9S649.6,163,617.6,163"/>
			<g class="st3">
				<g>
					<path d="M213.9,74.5l-7.3,7.3l7.4,7.4l-7,7l-7.4-7.4l-7.3,7.3l-6.6-6.6l7.3-7.3l-7.5-7.5l7-7l7.5,7.5l7.3-7.3L213.9,74.5z"/>
				</g>
			</g>
			<g class="st3">
				<g>
					<path d="M764.1,228.3l-7.3,7.3l7.4,7.4l-7,7l-7.4-7.4l-7.3,7.3l-6.6-6.6l7.3-7.3l-7.5-7.5l7-7l7.5,7.5l7.3-7.3L764.1,228.3z"/>
				</g>
			</g>
			<rect x="-86.6" y="369.2" class="st11" width="129.2" height="173.6"/>
			<g class="st3">
				<path class="st12" d="M319.8,427.8c0,17.9-14.5,32.4-32.4,32.4c-17.9,0-32.4-14.5-32.4-32.4c0-17.9,14.5-32.4,32.4-32.4"/>
				<g>
					<line class="st13" x1="196.9" y1="446.4" x2="212.1" y2="431.1"/>
					<line class="st13" x1="210.1" y1="446.4" x2="225.3" y2="431.1"/>
					<line class="st13" x1="223.4" y1="446.4" x2="238.6" y2="431.1"/>
					<line class="st13" x1="236.7" y1="446.4" x2="251.9" y2="431.1"/>
					<line class="st13" x1="249.9" y1="446.4" x2="265.1" y2="431.1"/>
					<line class="st13" x1="263.2" y1="446.4" x2="278.4" y2="431.1"/>
					<line class="st13" x1="276.4" y1="446.4" x2="291.6" y2="431.1"/>
				</g>
			</g>
			<g class="st3">
				<g>
					<circle class="st14" cx="723.6" cy="509.4" r="81.5"/>
					<path class="st14" d="M723.6,619.1c-60.5,0-109.7-49.2-109.7-109.7s49.2-109.7,109.7-109.7s109.7,49.2,109.7,109.7
						S784,619.1,723.6,619.1z"/>
					<path class="st14" d="M723.6,605c-52.7,0-95.6-42.9-95.6-95.6s42.9-95.6,95.6-95.6c52.7,0,95.6,42.9,95.6,95.6
						S776.3,605,723.6,605z"/>
					<circle class="st14" cx="723.6" cy="509.4" r="81.5"/>
					<circle class="st14" cx="723.6" cy="509.4" r="66.4"/>
					<circle class="st14" cx="723.6" cy="509.4" r="52.6"/>
				</g>
				<circle class="st15" cx="626.9" cy="443.7" r="28.4"/>
			</g>
			<rect x="-30.4" y="230.9" class="st16" width="65.9" height="9.7"/>
			<rect x="45.4" y="230.9" class="st16" width="10.6" height="9.7"/>
			<g class="st3">
				<rect x="720.8" y="286.6" class="st6" width="76.1" height="10.2"/>
				<rect x="684.1" y="286.6" class="st6" width="21.5" height="10.2"/>
			</g>
			<rect x="125" y="387.3" class="st11" width="21.5" height="21.5"/>
			<rect x="693.7" class="st11" width="84.9" height="47"/>
			<circle class="st17" cx="407.7" cy="512" r="43.9"/>
		</g>
	</g>
</g>
</svg>
