<?xml version="1.0" encoding="utf-8"?>
<!-- Generator: Adobe Illustrator 19.0.0, SVG Export Plug-In . SVG Version: 6.00 Build 0)  -->
<svg version="1.1" xmlns="http://www.w3.org/2000/svg" xmlns:xlink="http://www.w3.org/1999/xlink" x="0px" y="0px"
	 viewBox="0 0 750 500" style="enable-background:new 0 0 750 500;" xml:space="preserve">
<style type="text/css">
	.st0{opacity:0;fill:#FFFFFF;}
	.st1{clip-path:url(#SVGID_2_);fill:#FFE4DD;}
	.st2{clip-path:url(#SVGID_2_);fill:#FFB8A4;}
	.st3{clip-path:url(#SVGID_2_);}
	.st4{fill:#FFE4DD;}
	.st5{clip-path:url(#SVGID_2_);fill:#18A795;}
	.st6{clip-path:url(#SVGID_2_);fill:#FC981F;}
	.st7{fill:#FC981F;}
	.st8{fill:#FC5B23;}
	.st9{clip-path:url(#SVGID_2_);fill:#011D44;}
	.st10{clip-path:url(#SVGID_2_);fill:#FC5B23;}
	.st11{fill:#011D44;}
	.st12{opacity:0.38;clip-path:url(#SVGID_2_);fill:#FFE4DD;}
	.st13{opacity:0.5;clip-path:url(#SVGID_2_);fill:#FFE4DD;}
	.st14{opacity:0.2;clip-path:url(#SVGID_2_);fill:#FC981F;}
	.st15{fill:#FFFFFF;}
</style>
<g id="BACKGROUND">
	<rect class="st0" width="750" height="500"/>
</g>
<g id="OBJECTS">
	<g>
		<defs>
			<rect id="SVGID_1_" width="750" height="500"/>
		</defs>
		<clipPath id="SVGID_2_">
			<use xlink:href="#SVGID_1_"  style="overflow:visible;"/>
		</clipPath>
		<path class="st1" d="M431,0c19,43,97.1,63.9,180,42c106-28,123,44,130,109c6.8,63.2-49,134,9,172V0L431,0z"/>
		<path class="st2" d="M72.6,456.3c-36.1,1.9-51.8-44-23.9-62.7s96.5,0.2,103.1,21.9C158.3,437.3,99.8,454.8,72.6,456.3z"/>
		<g class="st3">
			<g>
				<path class="st4" d="M93.7,437.7c-10.9-8.7-20-20-25.4-32.9c-5-11.9-7.8-28.7-0.9-40.6c5.2-8.9,16.8-13.5,26.4-15.9
					c10.3-2.5,21.8-0.3,31.7,2.8c25,7.9,43.9,27.6,57.5,49.3c8,12.7,18.2,28.5,10.6,43.7c-5.4,10.8-17.6,17.5-29.5,16.9
					c-11.7-0.6-23.5-3.3-34.7-6.7c-12.6-3.8-25.4-8.7-35.9-16.8c-0.8-0.6-1.5,0.7-0.8,1.3c10.3,7.9,22.7,12.8,35,16.6
					c11.2,3.4,22.9,6.2,34.7,7c11,0.8,21.5-3.3,28.7-11.9c9.9-11.8,7-26,0.3-38.6c-13.2-24.5-31.6-48.1-57.9-59.4
					c-20.1-8.6-46.1-10.5-63.3,5.7c-10.3,9.8-9.5,27.4-5.8,40c4.7,16.1,15.3,30.1,28.2,40.5C93.4,439.3,94.5,438.3,93.7,437.7z"/>
			</g>
		</g>
		<path class="st5" d="M301.5,500c21-12,79-29,147,0H301.5z"/>
		<path class="st6" d="M-14,378C6.3,389.4,3,493,99,474c91.1-18,151,13.5,146,32c-9,33-261,8-261,8L-14,378z"/>
		<path class="st1" d="M0.8,338.6c27.9-45.7,51-89.7,40.6-116.8C30.5,193.1,0,180.4,0,180.4L0.8,338.6z"/>
		<g class="st3">
			<g>
				<g>
					<path class="st7" d="M36.3,336c0.4-1.4,1.3-2.5,2.7-3c0.9-0.3,0.5-1.8-0.4-1.4c-1.9,0.7-3.3,2.2-3.7,4.1
						C34.6,336.6,36,337,36.3,336L36.3,336z"/>
				</g>
			</g>
			<g>
				<g>
					<path class="st7" d="M56.3,340.8c1.5-1.5,3-3,4.6-4.5c0.7-0.7-0.4-1.7-1.1-1.1c-1.5,1.5-3,3-4.6,4.5
						C54.5,340.4,55.6,341.5,56.3,340.8L56.3,340.8z"/>
				</g>
			</g>
			<g>
				<g>
					<path class="st7" d="M59.7,297.8c1.5-1.2,2.9-2.4,4.4-3.6c0.8-0.6-0.3-1.7-1.1-1.1c-1.5,1.2-2.9,2.4-4.4,3.6
						C57.9,297.3,59,298.4,59.7,297.8L59.7,297.8z"/>
				</g>
			</g>
			<g>
				<g>
					<path class="st7" d="M59.7,318.8c1.5-1.2,2.9-2.4,4.4-3.6c0.8-0.6-0.3-1.7-1.1-1.1c-1.5,1.2-2.9,2.4-4.4,3.6
						C57.9,318.3,59,319.4,59.7,318.8L59.7,318.8z"/>
				</g>
			</g>
		</g>
		<path class="st5" d="M1,144c71.2,0,12.7-127,101-127c22,0,84,31,80-16.7C180.9-12.1,0,0,0,0S-37,144,1,144z"/>
		<path class="st1" d="M534,500c63-28,101.3-65.3,168-52c17.3,3.5,48,20,48,52H534z"/>
		<path class="st6" d="M659,57c-28-2-27,26-1,39c16.8,8.4,49,30,55,14S690.1,59.2,659,57z"/>
		<g class="st3">
			<g>
				<path class="st7" d="M756.5,319.9c-9.1,6.5-21.3,6.1-30.8,0.6c-9.7-5.7-15.5-16.3-17.9-27c-5.1-23.1,4.5-48.5,12.4-70.1
					c4.1-11.2,8.7-22.2,13.9-33c2.5-5.1,5-10.2,7.7-15.2c2.6-4.9,5.2-11.5,8.9-15.6c1.4-1.5,2.1-7,6.7-1.7c0.7,0.9,0.9,2.3,1.1,3.4
					c0.8,3.1,1.1,6.4,1.6,9.5c1.1,6.9,2,13.9,2.8,20.9c1.3,12.2,2.2,24.4,2.5,36.7c0.8,28.3-1,56.6-5.3,84.6
					c-0.1,0.9,1.3,1.4,1.4,0.4c4.5-29.1,6.3-58.5,5.3-87.9c-0.5-15.1-1.8-30.3-3.9-45.3c-0.9-6.4-1.5-13-3-19.3
					c-0.6-2.6-1.9-6.7-5.2-6.8c-3.7-0.2-5.8,5.4-7.2,7.8c-3.7,6.2-7.1,12.5-10.4,18.9c-6.1,11.8-11.5,23.9-16.2,36.3
					c-5,13-9.5,26.3-12.7,39.9c-3,12.3-4.6,25.2-1.7,37.6c2.6,11.3,9.1,22.4,19.7,27.9c9.8,5.1,21.9,5.2,31.1-1.3
					C758,320.6,757.3,319.3,756.5,319.9L756.5,319.9z"/>
			</g>
		</g>
		<g class="st3">
			<g>
				<path class="st8" d="M786.5,34.3c-13.7,6.7-28.3,10.9-43.2,13.8c-14.2,2.8-31.8,7-45.3-0.3c-5.9-3.2-11-8.9-12.4-15.6
					c-1.7-8.6,4.2-15.8,8.6-22.6c8.7-13.3,17.3-26.7,26-40c0.5-0.8-0.8-1.6-1.3-0.8c-10.4,16-21.4,31.6-31.1,48
					C681.2,28,684,40,694.8,47.5c12.6,8.7,29.5,5.5,43.5,3c16.9-3,33.5-7.3,48.9-14.9C788.1,35.2,787.4,33.9,786.5,34.3L786.5,34.3z
					"/>
			</g>
		</g>
		<path class="st9" d="M629,51c-5.3,3.6,0,13,8,7C642.1,54.2,635,47,629,51z"/>
		<path class="st9" d="M15.4,374.2c-3.6,2.4,0,8.8,5.4,4.8C24.3,376.4,19.4,371.5,15.4,374.2z"/>
		<path class="st10" d="M269,445c-17.6-5.1-33,42-0.5,34.5C293.4,473.7,300,454,269,445z"/>
		<path class="st10" d="M544-17c-17.9,3.9,16,43,40,34S567-22,544-17z"/>
		<path class="st6" d="M236-9c-3.3,26.4,113,41,148,1C405.3-32.3,236-9,236-9z"/>
		<g class="st3">
			<g>
				<g>
					<path class="st7" d="M319.9,40c1.1,0.4,2.3,0.8,3.4,1.2c0.9,0.3,1.3-1.1,0.4-1.4c-1.1-0.4-2.3-0.8-3.4-1.2
						C319.4,38.2,319,39.7,319.9,40L319.9,40z"/>
				</g>
			</g>
			<g>
				<g>
					<path class="st7" d="M405.9,23.5c1.5,0.4,3,0.8,4.5,1.1c0.9,0.2,1.3-1.2,0.4-1.4c-1.5-0.4-3-0.8-4.5-1.1
						C405.4,21.8,405,23.3,405.9,23.5L405.9,23.5z"/>
				</g>
			</g>
			<g>
				<g>
					<path class="st7" d="M470.9,60.6c1.9,0.4,3.8,0.8,5.7,1.2c0.9,0.2,1.3-1.2,0.4-1.4c-1.9-0.4-3.8-0.8-5.7-1.2
						C470.3,59,469.9,60.4,470.9,60.6L470.9,60.6z"/>
				</g>
			</g>
		</g>
		<path class="st5" d="M773,413c13.5-29-50.3-52.5-64.7-36c-14.4,16.5,12.4,32.5,22.7,37C754.5,424.3,768.5,422.7,773,413z"/>
		<g class="st3">
			<g>
				<g>
					<path class="st11" d="M229.4,35.5c-1.7-1.7-3.5-3.3-5.3-4.9c-0.7-0.7-1.8,0.4-1.1,1.1c1.8,1.6,3.5,3.3,5.3,4.9
						C229,37.2,230.1,36.2,229.4,35.5L229.4,35.5z"/>
				</g>
			</g>
			<g>
				<g>
					<path class="st11" d="M215-0.7c-1.3-1.2-2.6-2.5-3.9-3.7c-0.7-0.7-1.8,0.4-1.1,1.1c1.3,1.2,2.6,2.5,3.9,3.7
						C214.6,1,215.7-0.1,215-0.7L215-0.7z"/>
				</g>
			</g>
			<g>
				<g>
					<path class="st11" d="M217.1,15.8c-1.3-1.3-2.6-2.5-3.9-3.8c-0.7-0.7-1.8,0.4-1.1,1.1c1.3,1.3,2.6,2.5,3.9,3.8
						C216.7,17.6,217.8,16.5,217.1,15.8L217.1,15.8z"/>
				</g>
			</g>
			<g>
				<g>
					<path class="st11" d="M243,39.6c-1.3-1.2-2.6-2.5-3.9-3.7c-0.7-0.7-1.8,0.4-1.1,1.1c1.3,1.2,2.6,2.5,3.9,3.7
						C242.6,41.3,243.7,40.2,243,39.6L243,39.6z"/>
				</g>
			</g>
			<g>
				<g>
					<path class="st11" d="M245.1,56.1c-1.3-1.3-2.6-2.5-3.9-3.8c-0.7-0.7-1.8,0.4-1.1,1.1c1.3,1.3,2.6,2.5,3.9,3.8
						C244.8,57.9,245.8,56.8,245.1,56.1L245.1,56.1z"/>
				</g>
			</g>
		</g>
		<g class="st3">
			<g>
				<g>
					<path class="st11" d="M490.2,505.4c2.6-2.5,5.2-5,7.8-7.6c0.7-0.7-0.4-1.7-1.1-1.1c-2.6,2.5-5.2,5-7.8,7.6
						C488.4,505,489.5,506,490.2,505.4L490.2,505.4z"/>
				</g>
			</g>
			<g>
				<g>
					<path class="st11" d="M499.1,486.2c1.7-1.7,3.4-3.4,5.1-5.2c0.7-0.7-0.4-1.8-1.1-1.1c-1.7,1.7-3.4,3.4-5.1,5.2
						C497.4,485.8,498.5,486.9,499.1,486.2L499.1,486.2z"/>
				</g>
			</g>
			<g>
				<g>
					<path class="st11" d="M514.1,498.2c1.7-1.7,3.4-3.4,5.1-5.2c0.7-0.7-0.4-1.8-1.1-1.1c-1.7,1.7-3.4,3.4-5.1,5.2
						C512.4,497.8,513.5,498.9,514.1,498.2L514.1,498.2z"/>
				</g>
			</g>
			<g>
				<g>
					<path class="st11" d="M521,476.1c1.3-1.3,2.6-2.6,3.8-3.8c0.7-0.7-0.4-1.7-1.1-1.1c-1.3,1.3-2.6,2.6-3.8,3.8
						C519.3,475.7,520.3,476.8,521,476.1L521,476.1z"/>
				</g>
			</g>
		</g>
		<path class="st12" d="M504,101c-38.4,4.4-51,77,40,63S565,94,504,101z"/>
		<path class="st13" d="M314.3,443.8c-10.4,1.2-12,27.1,10.9,17.1C329.5,459,330.9,441.9,314.3,443.8z"/>
		<path class="st14" d="M56.7,152.8c-18.1,2.1-20.9,47.1,18.8,29.7C83.1,179.1,85.4,149.5,56.7,152.8z"/>
		<g class="st3">
			<g>
				<g>
					<path class="st8" d="M690.5,160.9c-1.2,2-2.4,3.9-3.6,5.9c-0.5,0.8,0.8,1.6,1.3,0.8c1.2-2,2.4-3.9,3.6-5.9
						C692.3,160.8,691,160,690.5,160.9L690.5,160.9z"/>
				</g>
			</g>
			<g>
				<g>
					<path class="st8" d="M690.4,176.8c-1.3,1.6-2.7,3.3-4,4.9c-0.6,0.7,0.5,1.8,1.1,1.1c1.3-1.6,2.7-3.3,4-4.9
						C692.1,177.1,691.1,176,690.4,176.8L690.4,176.8z"/>
				</g>
			</g>
			<g>
				<g>
					<path class="st8" d="M686.6,192.2c-1.4,1.6-2.8,3.2-4.1,4.8c-0.6,0.7,0.4,1.8,1.1,1.1c1.4-1.6,2.8-3.2,4.1-4.8
						C688.3,192.5,687.2,191.5,686.6,192.2L686.6,192.2z"/>
				</g>
			</g>
		</g>
		<g class="st3">
			<g>
				<path class="st4" d="M606.3,411.6c15,16.1,44.9,7,56.5-8.8c12.5-17,4.2-41.8-15.4-48.9c-0.9-0.3-1.3,1.1-0.4,1.4
					c19,6.9,26.6,31.1,14.2,47.2c-11.2,14.6-39.6,23.2-53.7,8C606.7,409.9,605.7,410.9,606.3,411.6L606.3,411.6z"/>
			</g>
		</g>
		<g class="st3">
			<g>
				<path class="st4" d="M150.7,59c-15-16.1-44.9-7-56.5,8.8c-12.5,17-4.2,41.8,15.4,48.9c0.9,0.3,1.3-1.1,0.4-1.4
					c-19-6.9-26.6-31.1-14.2-47.2c11.2-14.6,39.6-23.2,53.7-8C150.3,60.8,151.4,59.7,150.7,59L150.7,59z"/>
			</g>
		</g>
		<g class="st3">
			<g>
				<path class="st4" d="M19.2,168.7c-1.9-2.4-0.2-6.4,1.5-8.4c2.1-2.3,4.5-1.9,6,0.8c1.1,1.9,1.9,5.2,0.5,7.2
					C25.9,170.3,20.9,170.2,19.2,168.7c-0.7-0.6-1.8,0.4-1.1,1.1c2.2,2,7.9,2.2,10-0.2c2.3-2.7,1.1-7.4-0.6-10
					c-5.1-7.3-13.8,4.7-9.3,10.2C18.8,170.5,19.8,169.4,19.2,168.7z"/>
			</g>
		</g>
		<g class="st3">
			<path class="st15" d="M576.7,73.2c-2.8-3,0.5-10.7,4.6-11.3c4.2-0.6,7.1,8.4,4.1,11.4C583.8,74.8,578.1,74.8,576.7,73.2z"/>
		</g>
		<g class="st3">
			<g>
				<path class="st4" d="M-5-13.7C-21.2-1.8-15.2,22.5,2.1,29.5c19.7,8.1,40.2-5.4,47.6-23.9c3.2-7.9,3.7-19.2-5.7-23
					c-8.6-3.4-19.3,0.6-25.2,7.2c-6.1,6.8-7.4,16.5-1.5,23.9c4.6,5.9,12.9,9.3,20,5.9C42.8,17,46.9,11,50.1,6
					c3.6-5.6,6.4-11.8,7.2-18.5c1.4-10.8-2.8-22.2-12.4-27.9c-0.8-0.5-1.6,0.8-0.8,1.3C62.3-28.2,56.6-4.7,46,9.3
					c-5.6,7.3-13.1,13.5-22.4,8.1c-8.3-4.8-11.1-15-6.1-23.2c4.6-7.6,14.4-12.4,23.2-10.8c11.5,2.2,10.8,14.7,7,23.1
					c-6.9,15.4-23,27.2-40.4,23.2C-1.7,27.5-9.8,21.2-12.2,12c-2.3-8.9,0.4-18.8,7.9-24.4C-3.5-12.9-4.3-14.2-5-13.7L-5-13.7z"/>
			</g>
		</g>
	</g>
</g>
</svg>
