<svg xmlns="http://www.w3.org/2000/svg" xmlns:xlink="http://www.w3.org/1999/xlink" width="1366" height="350" viewBox="0 0 1366 350">
  <defs>
    <linearGradient id="linear-gradient" y1="0.5" x2="1" y2="0.5" gradientUnits="objectBoundingBox">
      <stop offset="0" stop-color="#fff"/>
      <stop offset="1" stop-color="#e8f2ff"/>
    </linearGradient>
  </defs>
  <g id="Group_15415" data-name="Group 15415" transform="translate(0 -112)">
    <rect id="Rectangle_6740" data-name="Rectangle 6740" width="1366" height="350" transform="translate(0 112)" fill="url(#linear-gradient)"/>
    <g id="Group_15251" data-name="Group 15251" transform="translate(-59.371 30.631)">
      <path id="Union_33" data-name="Union 33" d="M40.824,257.032l103-47-1,20-102,46Zm-41-3v-151l19,8v148Zm41-69,53-23v-24l-53,23v-50l103-46-1,117-102,49Zm57-24,13-10v-12l-13-1Zm17-12,8-9-8-1Zm-104-47h0c9.8-24.558,20.11-58.548,24-75l4,14-28,61h0c15.39-26.141,39.109-69.544,43-86l4,15-47,71h0c24.937-32.359,71.46-87.52,73-101l3,22L10.833,102.023C44.936,69.914,108.873,16.979,110.823.032l1,26-101,76,0,0c43.5-27.217,121.114-77.711,125-92-.288,7.468,1.288,23.532,1,31l-126,61Zm0,0,0,0h0Zm0,0v0h0Z" transform="translate(1177.548 118.337)" fill="rgba(36,124,255,0.15)" stroke="rgba(0,0,0,0)" stroke-width="1"/>
    </g>
  </g>
</svg>